%TF.GenerationSoftware,KiCad,Pcbnew,8.0.5*%
%TF.CreationDate,2024-10-11T20:45:06+03:00*%
%TF.ProjectId,dice-roller-pcb,64696365-2d72-46f6-9c6c-65722d706362,rev?*%
%TF.SameCoordinates,Original*%
%TF.FileFunction,Legend,Bot*%
%TF.FilePolarity,Positive*%
%FSLAX46Y46*%
G04 Gerber Fmt 4.6, Leading zero omitted, Abs format (unit mm)*
G04 Created by KiCad (PCBNEW 8.0.5) date 2024-10-11 20:45:06*
%MOMM*%
%LPD*%
G01*
G04 APERTURE LIST*
%ADD10C,0.150000*%
%ADD11C,0.100000*%
%ADD12C,0.120000*%
%ADD13C,0.152400*%
G04 APERTURE END LIST*
D10*
X135000000Y-98000000D02*
X181000000Y-98000000D01*
X181000000Y-114000000D01*
X135000000Y-114000000D01*
X135000000Y-98000000D01*
X141906077Y-81669819D02*
X141334649Y-81669819D01*
X141620363Y-82669819D02*
X141620363Y-81669819D01*
X141096553Y-81669819D02*
X140429887Y-82669819D01*
X140429887Y-81669819D02*
X141096553Y-82669819D01*
X141291792Y-85269819D02*
X141625125Y-84793628D01*
X141863220Y-85269819D02*
X141863220Y-84269819D01*
X141863220Y-84269819D02*
X141482268Y-84269819D01*
X141482268Y-84269819D02*
X141387030Y-84317438D01*
X141387030Y-84317438D02*
X141339411Y-84365057D01*
X141339411Y-84365057D02*
X141291792Y-84460295D01*
X141291792Y-84460295D02*
X141291792Y-84603152D01*
X141291792Y-84603152D02*
X141339411Y-84698390D01*
X141339411Y-84698390D02*
X141387030Y-84746009D01*
X141387030Y-84746009D02*
X141482268Y-84793628D01*
X141482268Y-84793628D02*
X141863220Y-84793628D01*
X140958458Y-84269819D02*
X140291792Y-85269819D01*
X140291792Y-84269819D02*
X140958458Y-85269819D01*
X143658458Y-89469819D02*
X143039411Y-89469819D01*
X143039411Y-89469819D02*
X143372744Y-89850771D01*
X143372744Y-89850771D02*
X143229887Y-89850771D01*
X143229887Y-89850771D02*
X143134649Y-89898390D01*
X143134649Y-89898390D02*
X143087030Y-89946009D01*
X143087030Y-89946009D02*
X143039411Y-90041247D01*
X143039411Y-90041247D02*
X143039411Y-90279342D01*
X143039411Y-90279342D02*
X143087030Y-90374580D01*
X143087030Y-90374580D02*
X143134649Y-90422200D01*
X143134649Y-90422200D02*
X143229887Y-90469819D01*
X143229887Y-90469819D02*
X143515601Y-90469819D01*
X143515601Y-90469819D02*
X143610839Y-90422200D01*
X143610839Y-90422200D02*
X143658458Y-90374580D01*
X142610839Y-90374580D02*
X142563220Y-90422200D01*
X142563220Y-90422200D02*
X142610839Y-90469819D01*
X142610839Y-90469819D02*
X142658458Y-90422200D01*
X142658458Y-90422200D02*
X142610839Y-90374580D01*
X142610839Y-90374580D02*
X142610839Y-90469819D01*
X142229887Y-89469819D02*
X141610840Y-89469819D01*
X141610840Y-89469819D02*
X141944173Y-89850771D01*
X141944173Y-89850771D02*
X141801316Y-89850771D01*
X141801316Y-89850771D02*
X141706078Y-89898390D01*
X141706078Y-89898390D02*
X141658459Y-89946009D01*
X141658459Y-89946009D02*
X141610840Y-90041247D01*
X141610840Y-90041247D02*
X141610840Y-90279342D01*
X141610840Y-90279342D02*
X141658459Y-90374580D01*
X141658459Y-90374580D02*
X141706078Y-90422200D01*
X141706078Y-90422200D02*
X141801316Y-90469819D01*
X141801316Y-90469819D02*
X142087030Y-90469819D01*
X142087030Y-90469819D02*
X142182268Y-90422200D01*
X142182268Y-90422200D02*
X142229887Y-90374580D01*
X141325125Y-89469819D02*
X140991792Y-90469819D01*
X140991792Y-90469819D02*
X140658459Y-89469819D01*
X137329887Y-127596009D02*
X137187030Y-127643628D01*
X137187030Y-127643628D02*
X137139411Y-127691247D01*
X137139411Y-127691247D02*
X137091792Y-127786485D01*
X137091792Y-127786485D02*
X137091792Y-127929342D01*
X137091792Y-127929342D02*
X137139411Y-128024580D01*
X137139411Y-128024580D02*
X137187030Y-128072200D01*
X137187030Y-128072200D02*
X137282268Y-128119819D01*
X137282268Y-128119819D02*
X137663220Y-128119819D01*
X137663220Y-128119819D02*
X137663220Y-127119819D01*
X137663220Y-127119819D02*
X137329887Y-127119819D01*
X137329887Y-127119819D02*
X137234649Y-127167438D01*
X137234649Y-127167438D02*
X137187030Y-127215057D01*
X137187030Y-127215057D02*
X137139411Y-127310295D01*
X137139411Y-127310295D02*
X137139411Y-127405533D01*
X137139411Y-127405533D02*
X137187030Y-127500771D01*
X137187030Y-127500771D02*
X137234649Y-127548390D01*
X137234649Y-127548390D02*
X137329887Y-127596009D01*
X137329887Y-127596009D02*
X137663220Y-127596009D01*
X136663220Y-127738866D02*
X135901316Y-127738866D01*
X139829887Y-127596009D02*
X139687030Y-127643628D01*
X139687030Y-127643628D02*
X139639411Y-127691247D01*
X139639411Y-127691247D02*
X139591792Y-127786485D01*
X139591792Y-127786485D02*
X139591792Y-127929342D01*
X139591792Y-127929342D02*
X139639411Y-128024580D01*
X139639411Y-128024580D02*
X139687030Y-128072200D01*
X139687030Y-128072200D02*
X139782268Y-128119819D01*
X139782268Y-128119819D02*
X140163220Y-128119819D01*
X140163220Y-128119819D02*
X140163220Y-127119819D01*
X140163220Y-127119819D02*
X139829887Y-127119819D01*
X139829887Y-127119819D02*
X139734649Y-127167438D01*
X139734649Y-127167438D02*
X139687030Y-127215057D01*
X139687030Y-127215057D02*
X139639411Y-127310295D01*
X139639411Y-127310295D02*
X139639411Y-127405533D01*
X139639411Y-127405533D02*
X139687030Y-127500771D01*
X139687030Y-127500771D02*
X139734649Y-127548390D01*
X139734649Y-127548390D02*
X139829887Y-127596009D01*
X139829887Y-127596009D02*
X140163220Y-127596009D01*
X139163220Y-127738866D02*
X138401316Y-127738866D01*
X138782268Y-128119819D02*
X138782268Y-127357914D01*
X142539411Y-86917438D02*
X142634649Y-86869819D01*
X142634649Y-86869819D02*
X142777506Y-86869819D01*
X142777506Y-86869819D02*
X142920363Y-86917438D01*
X142920363Y-86917438D02*
X143015601Y-87012676D01*
X143015601Y-87012676D02*
X143063220Y-87107914D01*
X143063220Y-87107914D02*
X143110839Y-87298390D01*
X143110839Y-87298390D02*
X143110839Y-87441247D01*
X143110839Y-87441247D02*
X143063220Y-87631723D01*
X143063220Y-87631723D02*
X143015601Y-87726961D01*
X143015601Y-87726961D02*
X142920363Y-87822200D01*
X142920363Y-87822200D02*
X142777506Y-87869819D01*
X142777506Y-87869819D02*
X142682268Y-87869819D01*
X142682268Y-87869819D02*
X142539411Y-87822200D01*
X142539411Y-87822200D02*
X142491792Y-87774580D01*
X142491792Y-87774580D02*
X142491792Y-87441247D01*
X142491792Y-87441247D02*
X142682268Y-87441247D01*
X142063220Y-87869819D02*
X142063220Y-86869819D01*
X142063220Y-86869819D02*
X141491792Y-87869819D01*
X141491792Y-87869819D02*
X141491792Y-86869819D01*
X141015601Y-87869819D02*
X141015601Y-86869819D01*
X141015601Y-86869819D02*
X140777506Y-86869819D01*
X140777506Y-86869819D02*
X140634649Y-86917438D01*
X140634649Y-86917438D02*
X140539411Y-87012676D01*
X140539411Y-87012676D02*
X140491792Y-87107914D01*
X140491792Y-87107914D02*
X140444173Y-87298390D01*
X140444173Y-87298390D02*
X140444173Y-87441247D01*
X140444173Y-87441247D02*
X140491792Y-87631723D01*
X140491792Y-87631723D02*
X140539411Y-87726961D01*
X140539411Y-87726961D02*
X140634649Y-87822200D01*
X140634649Y-87822200D02*
X140777506Y-87869819D01*
X140777506Y-87869819D02*
X141015601Y-87869819D01*
X158761904Y-64954819D02*
X158761904Y-65764342D01*
X158761904Y-65764342D02*
X158714285Y-65859580D01*
X158714285Y-65859580D02*
X158666666Y-65907200D01*
X158666666Y-65907200D02*
X158571428Y-65954819D01*
X158571428Y-65954819D02*
X158380952Y-65954819D01*
X158380952Y-65954819D02*
X158285714Y-65907200D01*
X158285714Y-65907200D02*
X158238095Y-65859580D01*
X158238095Y-65859580D02*
X158190476Y-65764342D01*
X158190476Y-65764342D02*
X158190476Y-64954819D01*
X157190476Y-65954819D02*
X157761904Y-65954819D01*
X157476190Y-65954819D02*
X157476190Y-64954819D01*
X157476190Y-64954819D02*
X157571428Y-65097676D01*
X157571428Y-65097676D02*
X157666666Y-65192914D01*
X157666666Y-65192914D02*
X157761904Y-65240533D01*
X135353333Y-92074819D02*
X135353333Y-92789104D01*
X135353333Y-92789104D02*
X135400952Y-92931961D01*
X135400952Y-92931961D02*
X135496190Y-93027200D01*
X135496190Y-93027200D02*
X135639047Y-93074819D01*
X135639047Y-93074819D02*
X135734285Y-93074819D01*
X134353333Y-93074819D02*
X134924761Y-93074819D01*
X134639047Y-93074819D02*
X134639047Y-92074819D01*
X134639047Y-92074819D02*
X134734285Y-92217676D01*
X134734285Y-92217676D02*
X134829523Y-92312914D01*
X134829523Y-92312914D02*
X134924761Y-92360533D01*
X163666666Y-85370769D02*
X163714285Y-85418389D01*
X163714285Y-85418389D02*
X163857142Y-85466008D01*
X163857142Y-85466008D02*
X163952380Y-85466008D01*
X163952380Y-85466008D02*
X164095237Y-85418389D01*
X164095237Y-85418389D02*
X164190475Y-85323150D01*
X164190475Y-85323150D02*
X164238094Y-85227912D01*
X164238094Y-85227912D02*
X164285713Y-85037436D01*
X164285713Y-85037436D02*
X164285713Y-84894579D01*
X164285713Y-84894579D02*
X164238094Y-84704103D01*
X164238094Y-84704103D02*
X164190475Y-84608865D01*
X164190475Y-84608865D02*
X164095237Y-84513627D01*
X164095237Y-84513627D02*
X163952380Y-84466008D01*
X163952380Y-84466008D02*
X163857142Y-84466008D01*
X163857142Y-84466008D02*
X163714285Y-84513627D01*
X163714285Y-84513627D02*
X163666666Y-84561246D01*
X162714285Y-85466008D02*
X163285713Y-85466008D01*
X162999999Y-85466008D02*
X162999999Y-84466008D01*
X162999999Y-84466008D02*
X163095237Y-84608865D01*
X163095237Y-84608865D02*
X163190475Y-84704103D01*
X163190475Y-84704103D02*
X163285713Y-84751722D01*
X142264819Y-133906666D02*
X142979104Y-133906666D01*
X142979104Y-133906666D02*
X143121961Y-133859047D01*
X143121961Y-133859047D02*
X143217200Y-133763809D01*
X143217200Y-133763809D02*
X143264819Y-133620952D01*
X143264819Y-133620952D02*
X143264819Y-133525714D01*
X142360057Y-134335238D02*
X142312438Y-134382857D01*
X142312438Y-134382857D02*
X142264819Y-134478095D01*
X142264819Y-134478095D02*
X142264819Y-134716190D01*
X142264819Y-134716190D02*
X142312438Y-134811428D01*
X142312438Y-134811428D02*
X142360057Y-134859047D01*
X142360057Y-134859047D02*
X142455295Y-134906666D01*
X142455295Y-134906666D02*
X142550533Y-134906666D01*
X142550533Y-134906666D02*
X142693390Y-134859047D01*
X142693390Y-134859047D02*
X143264819Y-134287619D01*
X143264819Y-134287619D02*
X143264819Y-134906666D01*
X142666666Y-56754819D02*
X142999999Y-56278628D01*
X143238094Y-56754819D02*
X143238094Y-55754819D01*
X143238094Y-55754819D02*
X142857142Y-55754819D01*
X142857142Y-55754819D02*
X142761904Y-55802438D01*
X142761904Y-55802438D02*
X142714285Y-55850057D01*
X142714285Y-55850057D02*
X142666666Y-55945295D01*
X142666666Y-55945295D02*
X142666666Y-56088152D01*
X142666666Y-56088152D02*
X142714285Y-56183390D01*
X142714285Y-56183390D02*
X142761904Y-56231009D01*
X142761904Y-56231009D02*
X142857142Y-56278628D01*
X142857142Y-56278628D02*
X143238094Y-56278628D01*
X142333332Y-55754819D02*
X141666666Y-55754819D01*
X141666666Y-55754819D02*
X142095237Y-56754819D01*
X145954819Y-119321428D02*
X145478628Y-118988095D01*
X145954819Y-118750000D02*
X144954819Y-118750000D01*
X144954819Y-118750000D02*
X144954819Y-119130952D01*
X144954819Y-119130952D02*
X145002438Y-119226190D01*
X145002438Y-119226190D02*
X145050057Y-119273809D01*
X145050057Y-119273809D02*
X145145295Y-119321428D01*
X145145295Y-119321428D02*
X145288152Y-119321428D01*
X145288152Y-119321428D02*
X145383390Y-119273809D01*
X145383390Y-119273809D02*
X145431009Y-119226190D01*
X145431009Y-119226190D02*
X145478628Y-119130952D01*
X145478628Y-119130952D02*
X145478628Y-118750000D01*
X145954819Y-119892857D02*
X145907200Y-119797619D01*
X145907200Y-119797619D02*
X145811961Y-119750000D01*
X145811961Y-119750000D02*
X144954819Y-119750000D01*
X145954819Y-120797619D02*
X145954819Y-120226191D01*
X145954819Y-120511905D02*
X144954819Y-120511905D01*
X144954819Y-120511905D02*
X145097676Y-120416667D01*
X145097676Y-120416667D02*
X145192914Y-120321429D01*
X145192914Y-120321429D02*
X145240533Y-120226191D01*
X147666666Y-56754819D02*
X147999999Y-56278628D01*
X148238094Y-56754819D02*
X148238094Y-55754819D01*
X148238094Y-55754819D02*
X147857142Y-55754819D01*
X147857142Y-55754819D02*
X147761904Y-55802438D01*
X147761904Y-55802438D02*
X147714285Y-55850057D01*
X147714285Y-55850057D02*
X147666666Y-55945295D01*
X147666666Y-55945295D02*
X147666666Y-56088152D01*
X147666666Y-56088152D02*
X147714285Y-56183390D01*
X147714285Y-56183390D02*
X147761904Y-56231009D01*
X147761904Y-56231009D02*
X147857142Y-56278628D01*
X147857142Y-56278628D02*
X148238094Y-56278628D01*
X146761904Y-55754819D02*
X147238094Y-55754819D01*
X147238094Y-55754819D02*
X147285713Y-56231009D01*
X147285713Y-56231009D02*
X147238094Y-56183390D01*
X147238094Y-56183390D02*
X147142856Y-56135771D01*
X147142856Y-56135771D02*
X146904761Y-56135771D01*
X146904761Y-56135771D02*
X146809523Y-56183390D01*
X146809523Y-56183390D02*
X146761904Y-56231009D01*
X146761904Y-56231009D02*
X146714285Y-56326247D01*
X146714285Y-56326247D02*
X146714285Y-56564342D01*
X146714285Y-56564342D02*
X146761904Y-56659580D01*
X146761904Y-56659580D02*
X146809523Y-56707200D01*
X146809523Y-56707200D02*
X146904761Y-56754819D01*
X146904761Y-56754819D02*
X147142856Y-56754819D01*
X147142856Y-56754819D02*
X147238094Y-56707200D01*
X147238094Y-56707200D02*
X147285713Y-56659580D01*
X170642857Y-126961580D02*
X170690476Y-127009200D01*
X170690476Y-127009200D02*
X170833333Y-127056819D01*
X170833333Y-127056819D02*
X170928571Y-127056819D01*
X170928571Y-127056819D02*
X171071428Y-127009200D01*
X171071428Y-127009200D02*
X171166666Y-126913961D01*
X171166666Y-126913961D02*
X171214285Y-126818723D01*
X171214285Y-126818723D02*
X171261904Y-126628247D01*
X171261904Y-126628247D02*
X171261904Y-126485390D01*
X171261904Y-126485390D02*
X171214285Y-126294914D01*
X171214285Y-126294914D02*
X171166666Y-126199676D01*
X171166666Y-126199676D02*
X171071428Y-126104438D01*
X171071428Y-126104438D02*
X170928571Y-126056819D01*
X170928571Y-126056819D02*
X170833333Y-126056819D01*
X170833333Y-126056819D02*
X170690476Y-126104438D01*
X170690476Y-126104438D02*
X170642857Y-126152057D01*
X170261904Y-127009200D02*
X170119047Y-127056819D01*
X170119047Y-127056819D02*
X169880952Y-127056819D01*
X169880952Y-127056819D02*
X169785714Y-127009200D01*
X169785714Y-127009200D02*
X169738095Y-126961580D01*
X169738095Y-126961580D02*
X169690476Y-126866342D01*
X169690476Y-126866342D02*
X169690476Y-126771104D01*
X169690476Y-126771104D02*
X169738095Y-126675866D01*
X169738095Y-126675866D02*
X169785714Y-126628247D01*
X169785714Y-126628247D02*
X169880952Y-126580628D01*
X169880952Y-126580628D02*
X170071428Y-126533009D01*
X170071428Y-126533009D02*
X170166666Y-126485390D01*
X170166666Y-126485390D02*
X170214285Y-126437771D01*
X170214285Y-126437771D02*
X170261904Y-126342533D01*
X170261904Y-126342533D02*
X170261904Y-126247295D01*
X170261904Y-126247295D02*
X170214285Y-126152057D01*
X170214285Y-126152057D02*
X170166666Y-126104438D01*
X170166666Y-126104438D02*
X170071428Y-126056819D01*
X170071428Y-126056819D02*
X169833333Y-126056819D01*
X169833333Y-126056819D02*
X169690476Y-126104438D01*
X168738095Y-127056819D02*
X169309523Y-127056819D01*
X169023809Y-127056819D02*
X169023809Y-126056819D01*
X169023809Y-126056819D02*
X169119047Y-126199676D01*
X169119047Y-126199676D02*
X169214285Y-126294914D01*
X169214285Y-126294914D02*
X169309523Y-126342533D01*
X171666666Y-71904819D02*
X171999999Y-71428628D01*
X172238094Y-71904819D02*
X172238094Y-70904819D01*
X172238094Y-70904819D02*
X171857142Y-70904819D01*
X171857142Y-70904819D02*
X171761904Y-70952438D01*
X171761904Y-70952438D02*
X171714285Y-71000057D01*
X171714285Y-71000057D02*
X171666666Y-71095295D01*
X171666666Y-71095295D02*
X171666666Y-71238152D01*
X171666666Y-71238152D02*
X171714285Y-71333390D01*
X171714285Y-71333390D02*
X171761904Y-71381009D01*
X171761904Y-71381009D02*
X171857142Y-71428628D01*
X171857142Y-71428628D02*
X172238094Y-71428628D01*
X171333332Y-70904819D02*
X170714285Y-70904819D01*
X170714285Y-70904819D02*
X171047618Y-71285771D01*
X171047618Y-71285771D02*
X170904761Y-71285771D01*
X170904761Y-71285771D02*
X170809523Y-71333390D01*
X170809523Y-71333390D02*
X170761904Y-71381009D01*
X170761904Y-71381009D02*
X170714285Y-71476247D01*
X170714285Y-71476247D02*
X170714285Y-71714342D01*
X170714285Y-71714342D02*
X170761904Y-71809580D01*
X170761904Y-71809580D02*
X170809523Y-71857200D01*
X170809523Y-71857200D02*
X170904761Y-71904819D01*
X170904761Y-71904819D02*
X171190475Y-71904819D01*
X171190475Y-71904819D02*
X171285713Y-71857200D01*
X171285713Y-71857200D02*
X171333332Y-71809580D01*
X171068104Y-84394319D02*
X171068104Y-85203842D01*
X171068104Y-85203842D02*
X171020485Y-85299080D01*
X171020485Y-85299080D02*
X170972866Y-85346700D01*
X170972866Y-85346700D02*
X170877628Y-85394319D01*
X170877628Y-85394319D02*
X170687152Y-85394319D01*
X170687152Y-85394319D02*
X170591914Y-85346700D01*
X170591914Y-85346700D02*
X170544295Y-85299080D01*
X170544295Y-85299080D02*
X170496676Y-85203842D01*
X170496676Y-85203842D02*
X170496676Y-84394319D01*
X170068104Y-84489557D02*
X170020485Y-84441938D01*
X170020485Y-84441938D02*
X169925247Y-84394319D01*
X169925247Y-84394319D02*
X169687152Y-84394319D01*
X169687152Y-84394319D02*
X169591914Y-84441938D01*
X169591914Y-84441938D02*
X169544295Y-84489557D01*
X169544295Y-84489557D02*
X169496676Y-84584795D01*
X169496676Y-84584795D02*
X169496676Y-84680033D01*
X169496676Y-84680033D02*
X169544295Y-84822890D01*
X169544295Y-84822890D02*
X170115723Y-85394319D01*
X170115723Y-85394319D02*
X169496676Y-85394319D01*
X171428571Y-77454819D02*
X171761904Y-76978628D01*
X171999999Y-77454819D02*
X171999999Y-76454819D01*
X171999999Y-76454819D02*
X171619047Y-76454819D01*
X171619047Y-76454819D02*
X171523809Y-76502438D01*
X171523809Y-76502438D02*
X171476190Y-76550057D01*
X171476190Y-76550057D02*
X171428571Y-76645295D01*
X171428571Y-76645295D02*
X171428571Y-76788152D01*
X171428571Y-76788152D02*
X171476190Y-76883390D01*
X171476190Y-76883390D02*
X171523809Y-76931009D01*
X171523809Y-76931009D02*
X171619047Y-76978628D01*
X171619047Y-76978628D02*
X171999999Y-76978628D01*
X170857142Y-77454819D02*
X170952380Y-77407200D01*
X170952380Y-77407200D02*
X170999999Y-77311961D01*
X170999999Y-77311961D02*
X170999999Y-76454819D01*
X170523808Y-76550057D02*
X170476189Y-76502438D01*
X170476189Y-76502438D02*
X170380951Y-76454819D01*
X170380951Y-76454819D02*
X170142856Y-76454819D01*
X170142856Y-76454819D02*
X170047618Y-76502438D01*
X170047618Y-76502438D02*
X169999999Y-76550057D01*
X169999999Y-76550057D02*
X169952380Y-76645295D01*
X169952380Y-76645295D02*
X169952380Y-76740533D01*
X169952380Y-76740533D02*
X169999999Y-76883390D01*
X169999999Y-76883390D02*
X170571427Y-77454819D01*
X170571427Y-77454819D02*
X169952380Y-77454819D01*
X145166666Y-56754819D02*
X145499999Y-56278628D01*
X145738094Y-56754819D02*
X145738094Y-55754819D01*
X145738094Y-55754819D02*
X145357142Y-55754819D01*
X145357142Y-55754819D02*
X145261904Y-55802438D01*
X145261904Y-55802438D02*
X145214285Y-55850057D01*
X145214285Y-55850057D02*
X145166666Y-55945295D01*
X145166666Y-55945295D02*
X145166666Y-56088152D01*
X145166666Y-56088152D02*
X145214285Y-56183390D01*
X145214285Y-56183390D02*
X145261904Y-56231009D01*
X145261904Y-56231009D02*
X145357142Y-56278628D01*
X145357142Y-56278628D02*
X145738094Y-56278628D01*
X144309523Y-55754819D02*
X144499999Y-55754819D01*
X144499999Y-55754819D02*
X144595237Y-55802438D01*
X144595237Y-55802438D02*
X144642856Y-55850057D01*
X144642856Y-55850057D02*
X144738094Y-55992914D01*
X144738094Y-55992914D02*
X144785713Y-56183390D01*
X144785713Y-56183390D02*
X144785713Y-56564342D01*
X144785713Y-56564342D02*
X144738094Y-56659580D01*
X144738094Y-56659580D02*
X144690475Y-56707200D01*
X144690475Y-56707200D02*
X144595237Y-56754819D01*
X144595237Y-56754819D02*
X144404761Y-56754819D01*
X144404761Y-56754819D02*
X144309523Y-56707200D01*
X144309523Y-56707200D02*
X144261904Y-56659580D01*
X144261904Y-56659580D02*
X144214285Y-56564342D01*
X144214285Y-56564342D02*
X144214285Y-56326247D01*
X144214285Y-56326247D02*
X144261904Y-56231009D01*
X144261904Y-56231009D02*
X144309523Y-56183390D01*
X144309523Y-56183390D02*
X144404761Y-56135771D01*
X144404761Y-56135771D02*
X144595237Y-56135771D01*
X144595237Y-56135771D02*
X144690475Y-56183390D01*
X144690475Y-56183390D02*
X144738094Y-56231009D01*
X144738094Y-56231009D02*
X144785713Y-56326247D01*
X152428571Y-82454819D02*
X152761904Y-81978628D01*
X152999999Y-82454819D02*
X152999999Y-81454819D01*
X152999999Y-81454819D02*
X152619047Y-81454819D01*
X152619047Y-81454819D02*
X152523809Y-81502438D01*
X152523809Y-81502438D02*
X152476190Y-81550057D01*
X152476190Y-81550057D02*
X152428571Y-81645295D01*
X152428571Y-81645295D02*
X152428571Y-81788152D01*
X152428571Y-81788152D02*
X152476190Y-81883390D01*
X152476190Y-81883390D02*
X152523809Y-81931009D01*
X152523809Y-81931009D02*
X152619047Y-81978628D01*
X152619047Y-81978628D02*
X152999999Y-81978628D01*
X151857142Y-82454819D02*
X151952380Y-82407200D01*
X151952380Y-82407200D02*
X151999999Y-82311961D01*
X151999999Y-82311961D02*
X151999999Y-81454819D01*
X151047618Y-81788152D02*
X151047618Y-82454819D01*
X151285713Y-81407200D02*
X151523808Y-82121485D01*
X151523808Y-82121485D02*
X150904761Y-82121485D01*
X180833333Y-91554819D02*
X180833333Y-92269104D01*
X180833333Y-92269104D02*
X180880952Y-92411961D01*
X180880952Y-92411961D02*
X180976190Y-92507200D01*
X180976190Y-92507200D02*
X181119047Y-92554819D01*
X181119047Y-92554819D02*
X181214285Y-92554819D01*
X180357142Y-92554819D02*
X180357142Y-91554819D01*
X180357142Y-91554819D02*
X179976190Y-91554819D01*
X179976190Y-91554819D02*
X179880952Y-91602438D01*
X179880952Y-91602438D02*
X179833333Y-91650057D01*
X179833333Y-91650057D02*
X179785714Y-91745295D01*
X179785714Y-91745295D02*
X179785714Y-91888152D01*
X179785714Y-91888152D02*
X179833333Y-91983390D01*
X179833333Y-91983390D02*
X179880952Y-92031009D01*
X179880952Y-92031009D02*
X179976190Y-92078628D01*
X179976190Y-92078628D02*
X180357142Y-92078628D01*
X178833333Y-92554819D02*
X179404761Y-92554819D01*
X179119047Y-92554819D02*
X179119047Y-91554819D01*
X179119047Y-91554819D02*
X179214285Y-91697676D01*
X179214285Y-91697676D02*
X179309523Y-91792914D01*
X179309523Y-91792914D02*
X179404761Y-91840533D01*
X174392857Y-126961580D02*
X174440476Y-127009200D01*
X174440476Y-127009200D02*
X174583333Y-127056819D01*
X174583333Y-127056819D02*
X174678571Y-127056819D01*
X174678571Y-127056819D02*
X174821428Y-127009200D01*
X174821428Y-127009200D02*
X174916666Y-126913961D01*
X174916666Y-126913961D02*
X174964285Y-126818723D01*
X174964285Y-126818723D02*
X175011904Y-126628247D01*
X175011904Y-126628247D02*
X175011904Y-126485390D01*
X175011904Y-126485390D02*
X174964285Y-126294914D01*
X174964285Y-126294914D02*
X174916666Y-126199676D01*
X174916666Y-126199676D02*
X174821428Y-126104438D01*
X174821428Y-126104438D02*
X174678571Y-126056819D01*
X174678571Y-126056819D02*
X174583333Y-126056819D01*
X174583333Y-126056819D02*
X174440476Y-126104438D01*
X174440476Y-126104438D02*
X174392857Y-126152057D01*
X174011904Y-127009200D02*
X173869047Y-127056819D01*
X173869047Y-127056819D02*
X173630952Y-127056819D01*
X173630952Y-127056819D02*
X173535714Y-127009200D01*
X173535714Y-127009200D02*
X173488095Y-126961580D01*
X173488095Y-126961580D02*
X173440476Y-126866342D01*
X173440476Y-126866342D02*
X173440476Y-126771104D01*
X173440476Y-126771104D02*
X173488095Y-126675866D01*
X173488095Y-126675866D02*
X173535714Y-126628247D01*
X173535714Y-126628247D02*
X173630952Y-126580628D01*
X173630952Y-126580628D02*
X173821428Y-126533009D01*
X173821428Y-126533009D02*
X173916666Y-126485390D01*
X173916666Y-126485390D02*
X173964285Y-126437771D01*
X173964285Y-126437771D02*
X174011904Y-126342533D01*
X174011904Y-126342533D02*
X174011904Y-126247295D01*
X174011904Y-126247295D02*
X173964285Y-126152057D01*
X173964285Y-126152057D02*
X173916666Y-126104438D01*
X173916666Y-126104438D02*
X173821428Y-126056819D01*
X173821428Y-126056819D02*
X173583333Y-126056819D01*
X173583333Y-126056819D02*
X173440476Y-126104438D01*
X173059523Y-126152057D02*
X173011904Y-126104438D01*
X173011904Y-126104438D02*
X172916666Y-126056819D01*
X172916666Y-126056819D02*
X172678571Y-126056819D01*
X172678571Y-126056819D02*
X172583333Y-126104438D01*
X172583333Y-126104438D02*
X172535714Y-126152057D01*
X172535714Y-126152057D02*
X172488095Y-126247295D01*
X172488095Y-126247295D02*
X172488095Y-126342533D01*
X172488095Y-126342533D02*
X172535714Y-126485390D01*
X172535714Y-126485390D02*
X173107142Y-127056819D01*
X173107142Y-127056819D02*
X172488095Y-127056819D01*
D11*
X158809523Y-128707419D02*
X158809523Y-127707419D01*
X158809523Y-127707419D02*
X158476190Y-128421704D01*
X158476190Y-128421704D02*
X158142857Y-127707419D01*
X158142857Y-127707419D02*
X158142857Y-128707419D01*
X157142857Y-128707419D02*
X157714285Y-128707419D01*
X157428571Y-128707419D02*
X157428571Y-127707419D01*
X157428571Y-127707419D02*
X157523809Y-127850276D01*
X157523809Y-127850276D02*
X157619047Y-127945514D01*
X157619047Y-127945514D02*
X157714285Y-127993133D01*
D10*
X179428571Y-77454819D02*
X179761904Y-76978628D01*
X179999999Y-77454819D02*
X179999999Y-76454819D01*
X179999999Y-76454819D02*
X179619047Y-76454819D01*
X179619047Y-76454819D02*
X179523809Y-76502438D01*
X179523809Y-76502438D02*
X179476190Y-76550057D01*
X179476190Y-76550057D02*
X179428571Y-76645295D01*
X179428571Y-76645295D02*
X179428571Y-76788152D01*
X179428571Y-76788152D02*
X179476190Y-76883390D01*
X179476190Y-76883390D02*
X179523809Y-76931009D01*
X179523809Y-76931009D02*
X179619047Y-76978628D01*
X179619047Y-76978628D02*
X179999999Y-76978628D01*
X178857142Y-77454819D02*
X178952380Y-77407200D01*
X178952380Y-77407200D02*
X178999999Y-77311961D01*
X178999999Y-77311961D02*
X178999999Y-76454819D01*
X178571427Y-76454819D02*
X177952380Y-76454819D01*
X177952380Y-76454819D02*
X178285713Y-76835771D01*
X178285713Y-76835771D02*
X178142856Y-76835771D01*
X178142856Y-76835771D02*
X178047618Y-76883390D01*
X178047618Y-76883390D02*
X177999999Y-76931009D01*
X177999999Y-76931009D02*
X177952380Y-77026247D01*
X177952380Y-77026247D02*
X177952380Y-77264342D01*
X177952380Y-77264342D02*
X177999999Y-77359580D01*
X177999999Y-77359580D02*
X178047618Y-77407200D01*
X178047618Y-77407200D02*
X178142856Y-77454819D01*
X178142856Y-77454819D02*
X178428570Y-77454819D01*
X178428570Y-77454819D02*
X178523808Y-77407200D01*
X178523808Y-77407200D02*
X178571427Y-77359580D01*
D12*
%TO.C,U1*%
X149880000Y-53380000D02*
X166120000Y-53380000D01*
X149880000Y-61000000D02*
X149880000Y-53380000D01*
X149880000Y-77620000D02*
X149880000Y-77000000D01*
X152000000Y-77620000D02*
X149880000Y-77620000D01*
X166120000Y-53380000D02*
X166120000Y-61000000D01*
X166120000Y-77000000D02*
X166120000Y-77620000D01*
X166120000Y-77620000D02*
X164000000Y-77620000D01*
X166550000Y-61000000D02*
X166310000Y-60664000D01*
X166790000Y-60664000D01*
X166550000Y-61000000D01*
G36*
X166550000Y-61000000D02*
G01*
X166310000Y-60664000D01*
X166790000Y-60664000D01*
X166550000Y-61000000D01*
G37*
%TO.C,J1*%
X129310000Y-80900000D02*
X129310000Y-91180000D01*
X137940000Y-80900000D02*
X129310000Y-80900000D01*
X137940000Y-80900000D02*
X137940000Y-91180000D01*
X137940000Y-83500000D02*
X129310000Y-83500000D01*
X137940000Y-86040000D02*
X129310000Y-86040000D01*
X137940000Y-88580000D02*
X129310000Y-88580000D01*
X137940000Y-88698100D02*
X129310000Y-88698100D01*
X137940000Y-88816195D02*
X129310000Y-88816195D01*
X137940000Y-88934290D02*
X129310000Y-88934290D01*
X137940000Y-89052385D02*
X129310000Y-89052385D01*
X137940000Y-89170480D02*
X129310000Y-89170480D01*
X137940000Y-89288575D02*
X129310000Y-89288575D01*
X137940000Y-89406670D02*
X129310000Y-89406670D01*
X137940000Y-89524765D02*
X129310000Y-89524765D01*
X137940000Y-89642860D02*
X129310000Y-89642860D01*
X137940000Y-89760955D02*
X129310000Y-89760955D01*
X137940000Y-89879050D02*
X129310000Y-89879050D01*
X137940000Y-89997145D02*
X129310000Y-89997145D01*
X137940000Y-90115240D02*
X129310000Y-90115240D01*
X137940000Y-90233335D02*
X129310000Y-90233335D01*
X137940000Y-90351430D02*
X129310000Y-90351430D01*
X137940000Y-90469525D02*
X129310000Y-90469525D01*
X137940000Y-90587620D02*
X129310000Y-90587620D01*
X137940000Y-90705715D02*
X129310000Y-90705715D01*
X137940000Y-90823810D02*
X129310000Y-90823810D01*
X137940000Y-90941905D02*
X129310000Y-90941905D01*
X137940000Y-91060000D02*
X129310000Y-91060000D01*
X137940000Y-91180000D02*
X129310000Y-91180000D01*
X138290000Y-89490000D02*
X137940000Y-89490000D01*
X138290000Y-90210000D02*
X137940000Y-90210000D01*
X138350000Y-81870000D02*
X137940000Y-81870000D01*
X138350000Y-82590000D02*
X137940000Y-82590000D01*
X138350000Y-84410000D02*
X137940000Y-84410000D01*
X138350000Y-85130000D02*
X137940000Y-85130000D01*
X138350000Y-86950000D02*
X137940000Y-86950000D01*
X138350000Y-87670000D02*
X137940000Y-87670000D01*
X140510000Y-89850000D02*
X140510000Y-91180000D01*
X140510000Y-91180000D02*
X139400000Y-91180000D01*
%TO.C,C1*%
X164590000Y-84288748D02*
X164590000Y-85711252D01*
X166410000Y-84288748D02*
X166410000Y-85711252D01*
%TO.C,J2*%
X136670000Y-134525000D02*
X136670000Y-137185000D01*
X136670000Y-137185000D02*
X141870000Y-137185000D01*
X137620000Y-128525000D02*
X138380000Y-128525000D01*
X137620000Y-134525000D02*
X137620000Y-128525000D01*
X137620000Y-137185000D02*
X137620000Y-137582071D01*
X138380000Y-128525000D02*
X138380000Y-134525000D01*
X138380000Y-137185000D02*
X138380000Y-137582071D01*
X139270000Y-134525000D02*
X139270000Y-137185000D01*
X140160000Y-128525000D02*
X140920000Y-128525000D01*
X140160000Y-134525000D02*
X140160000Y-128525000D01*
X140160000Y-137185000D02*
X140160000Y-137515000D01*
X140260000Y-128525000D02*
X140260000Y-134525000D01*
X140380000Y-128525000D02*
X140380000Y-134525000D01*
X140500000Y-128525000D02*
X140500000Y-134525000D01*
X140620000Y-128525000D02*
X140620000Y-134525000D01*
X140740000Y-128525000D02*
X140740000Y-134525000D01*
X140860000Y-128525000D02*
X140860000Y-134525000D01*
X140920000Y-128525000D02*
X140920000Y-134525000D01*
X140920000Y-137185000D02*
X140920000Y-137515000D01*
X141810000Y-138625000D02*
X141810000Y-139895000D01*
X141810000Y-139895000D02*
X140540000Y-139895000D01*
X141870000Y-134525000D02*
X136670000Y-134525000D01*
X141870000Y-137185000D02*
X141870000Y-134525000D01*
%TO.C,R7*%
X141590000Y-58772936D02*
X141590000Y-60227064D01*
X143410000Y-58772936D02*
X143410000Y-60227064D01*
%TO.C,Rl1*%
X144772936Y-121340000D02*
X146227064Y-121340000D01*
X144772936Y-123160000D02*
X146227064Y-123160000D01*
%TO.C,R5*%
X146590000Y-58772936D02*
X146590000Y-60227064D01*
X148410000Y-58772936D02*
X148410000Y-60227064D01*
%TO.C,CS1*%
X170950000Y-128250000D02*
G75*
G02*
X169050000Y-128250000I-950000J0D01*
G01*
X169050000Y-128250000D02*
G75*
G02*
X170950000Y-128250000I950000J0D01*
G01*
%TO.C,R3*%
X172590000Y-72177064D02*
X172590000Y-70722936D01*
X174410000Y-72177064D02*
X174410000Y-70722936D01*
D13*
%TO.C,U2*%
X169277500Y-84637540D02*
X169277500Y-85241460D01*
X169277500Y-86615900D02*
X171334900Y-86615900D01*
X171334900Y-83263100D02*
X169277500Y-83263100D01*
D12*
%TO.C,REF\u002A\u002A*%
X145450000Y-127750000D02*
G75*
G02*
X143550000Y-127750000I-950000J0D01*
G01*
X143550000Y-127750000D02*
G75*
G02*
X145450000Y-127750000I950000J0D01*
G01*
%TO.C,SW_POWER1*%
D11*
X167910000Y-52500000D02*
X178090000Y-52500000D01*
X178090000Y-50500000D01*
X167910000Y-50500000D01*
X167910000Y-52500000D01*
X168920000Y-60500000D02*
X177080000Y-60500000D01*
X177080000Y-52500000D01*
X168920000Y-52500000D01*
X168920000Y-60500000D01*
D12*
%TO.C,Rl2*%
X172590000Y-76272936D02*
X172590000Y-77727064D01*
X174410000Y-76272936D02*
X174410000Y-77727064D01*
%TO.C,R6*%
X144090000Y-58772936D02*
X144090000Y-60227064D01*
X145910000Y-58772936D02*
X145910000Y-60227064D01*
%TO.C,Rl4*%
X149090000Y-81272936D02*
X149090000Y-82727064D01*
X150910000Y-81272936D02*
X150910000Y-82727064D01*
%TO.C,REF\u002A\u002A*%
X147950000Y-125250000D02*
G75*
G02*
X146050000Y-125250000I-950000J0D01*
G01*
X146050000Y-125250000D02*
G75*
G02*
X147950000Y-125250000I950000J0D01*
G01*
%TO.C,JP1*%
X181500000Y-92800000D02*
X181500000Y-91400000D01*
X182200000Y-90700000D02*
X182800000Y-90700000D01*
X182800000Y-93500000D02*
X182200000Y-93500000D01*
X183500000Y-91400000D02*
X183500000Y-92800000D01*
X181500000Y-91400000D02*
G75*
G02*
X182200000Y-90700000I700000J0D01*
G01*
X182200000Y-93500000D02*
G75*
G02*
X181500000Y-92800000I-1J699999D01*
G01*
X182800000Y-90700000D02*
G75*
G02*
X183500000Y-91400000I0J-700000D01*
G01*
X183500000Y-92800000D02*
G75*
G02*
X182800000Y-93500000I-699999J-1D01*
G01*
%TO.C,CS2*%
X174700000Y-128250000D02*
G75*
G02*
X172800000Y-128250000I-950000J0D01*
G01*
X172800000Y-128250000D02*
G75*
G02*
X174700000Y-128250000I950000J0D01*
G01*
D11*
%TO.C,M1*%
X149400000Y-146750000D02*
X149400000Y-118750000D01*
X149400000Y-146750000D02*
X151800000Y-146750000D01*
X151500000Y-118750000D02*
X149400000Y-118750000D01*
X163000000Y-120250000D02*
X153000000Y-120250000D01*
X163700000Y-146250000D02*
X152300000Y-146250000D01*
X164200000Y-146750000D02*
X166600000Y-146750000D01*
X164500000Y-118750000D02*
X166600000Y-118750000D01*
X166600000Y-146750000D02*
X166600000Y-118750000D01*
X151800000Y-146750000D02*
G75*
G02*
X152300000Y-146250000I500000J0D01*
G01*
X153000000Y-120250000D02*
G75*
G02*
X151500000Y-118750000I0J1500000D01*
G01*
X163700000Y-146250000D02*
G75*
G02*
X164200000Y-146750000I-1J-500001D01*
G01*
X164500000Y-118750000D02*
G75*
G02*
X163000000Y-120250000I-1500001J1D01*
G01*
D12*
%TO.C,Rl3*%
X175590000Y-76272936D02*
X175590000Y-77727064D01*
X177410000Y-76272936D02*
X177410000Y-77727064D01*
%TD*%
M02*
