M48
; DRILL file {KiCad 8.0.5} date 2024-10-11T20:45:04+0300
; FORMAT={-:-/ absolute / metric / decimal}
; #@! TF.CreationDate,2024-10-11T20:45:04+03:00
; #@! TF.GenerationSoftware,Kicad,Pcbnew,8.0.5
; #@! TF.FileFunction,Plated,1,2,PTH
FMAT,2
METRIC
; #@! TA.AperFunction,Plated,PTH,ViaDrill
T1C0.300
; #@! TA.AperFunction,Plated,PTH,ComponentDrill
T2C0.300
; #@! TA.AperFunction,Plated,PTH,ComponentDrill
T3C0.800
; #@! TA.AperFunction,Plated,PTH,ViaDrill
T4C1.000
; #@! TA.AperFunction,Plated,PTH,ComponentDrill
T5C1.000
; #@! TA.AperFunction,Plated,PTH,ComponentDrill
T6C1.100
%
G90
G05
T1
X138.25Y-77.75
X140.75Y-77.75
X145.0Y-59.5
X147.5Y-59.5
X149.0Y-58.0
X150.25Y-78.5
X150.25Y-104.9
X152.5Y-66.0
X152.5Y-68.0
X152.5Y-70.0
X152.5Y-72.0
X152.75Y-129.0
X158.25Y-121.25
X163.0Y-62.0
X163.25Y-70.0
X163.25Y-75.0
X163.5Y-64.0
X164.25Y-107.75
X173.0Y-84.0
X173.0Y-86.0
X173.5Y-71.5
X174.75Y-88.0
X176.5Y-101.75
X176.5Y-104.75
X178.5Y-67.5
X180.0Y-78.0
X180.0Y-82.0
X180.0Y-86.0
T2
X169.35Y-98.625
X169.35Y-99.825
X175.35Y-98.625
X175.35Y-99.825
X181.35Y-98.725
X181.35Y-99.925
T3
X1.075Y-1.275
X8.695Y-1.275
T4
X133.5Y-121.5
X182.5Y-121.5
T5
X138.0Y-138.625
X139.4Y-82.23
X139.4Y-84.77
X139.4Y-87.31
X139.4Y-89.85
X140.54Y-138.625
X150.38Y-92.0
X152.92Y-92.0
X155.46Y-92.0
X158.0Y-92.0
X160.54Y-92.0
X163.08Y-92.0
X165.62Y-92.0
T6
X170.46Y-55.42
X170.46Y-60.5
X173.0Y-60.5
X175.54Y-55.42
X175.54Y-60.5
M30
