%TF.GenerationSoftware,KiCad,Pcbnew,8.0.5*%
%TF.CreationDate,2024-10-11T20:45:06+03:00*%
%TF.ProjectId,dice-roller-pcb,64696365-2d72-46f6-9c6c-65722d706362,rev?*%
%TF.SameCoordinates,Original*%
%TF.FileFunction,Copper,L1,Top*%
%TF.FilePolarity,Positive*%
%FSLAX46Y46*%
G04 Gerber Fmt 4.6, Leading zero omitted, Abs format (unit mm)*
G04 Created by KiCad (PCBNEW 8.0.5) date 2024-10-11 20:45:06*
%MOMM*%
%LPD*%
G01*
G04 APERTURE LIST*
G04 Aperture macros list*
%AMRoundRect*
0 Rectangle with rounded corners*
0 $1 Rounding radius*
0 $2 $3 $4 $5 $6 $7 $8 $9 X,Y pos of 4 corners*
0 Add a 4 corners polygon primitive as box body*
4,1,4,$2,$3,$4,$5,$6,$7,$8,$9,$2,$3,0*
0 Add four circle primitives for the rounded corners*
1,1,$1+$1,$2,$3*
1,1,$1+$1,$4,$5*
1,1,$1+$1,$6,$7*
1,1,$1+$1,$8,$9*
0 Add four rect primitives between the rounded corners*
20,1,$1+$1,$2,$3,$4,$5,0*
20,1,$1+$1,$4,$5,$6,$7,0*
20,1,$1+$1,$6,$7,$8,$9,0*
20,1,$1+$1,$8,$9,$2,$3,0*%
G04 Aperture macros list end*
%TA.AperFunction,EtchedComponent*%
%ADD10C,0.000000*%
%TD*%
%TA.AperFunction,SMDPad,CuDef*%
%ADD11R,1.700000X1.000000*%
%TD*%
%TA.AperFunction,SMDPad,CuDef*%
%ADD12C,1.500000*%
%TD*%
%TA.AperFunction,ComponentPad*%
%ADD13C,0.600000*%
%TD*%
%TA.AperFunction,ComponentPad*%
%ADD14C,1.700000*%
%TD*%
%TA.AperFunction,SMDPad,CuDef*%
%ADD15RoundRect,0.250000X-0.300000X-0.300000X0.300000X-0.300000X0.300000X0.300000X-0.300000X0.300000X0*%
%TD*%
%TA.AperFunction,ComponentPad*%
%ADD16R,1.600000X1.600000*%
%TD*%
%TA.AperFunction,ComponentPad*%
%ADD17O,1.600000X1.600000*%
%TD*%
%TA.AperFunction,ComponentPad*%
%ADD18R,1.700000X1.700000*%
%TD*%
%TA.AperFunction,ComponentPad*%
%ADD19O,1.700000X1.700000*%
%TD*%
%TA.AperFunction,ViaPad*%
%ADD20C,0.700000*%
%TD*%
%TA.AperFunction,ViaPad*%
%ADD21C,1.700000*%
%TD*%
%TA.AperFunction,Conductor*%
%ADD22C,0.300000*%
%TD*%
%TA.AperFunction,Conductor*%
%ADD23C,0.700000*%
%TD*%
%TA.AperFunction,Conductor*%
%ADD24C,0.500000*%
%TD*%
G04 APERTURE END LIST*
D10*
%TA.AperFunction,EtchedComponent*%
%TO.C,NT14*%
G36*
X169650000Y-99825000D02*
G01*
X169050000Y-99825000D01*
X169050000Y-98625000D01*
X169650000Y-98625000D01*
X169650000Y-99825000D01*
G37*
%TD.AperFunction*%
%TA.AperFunction,EtchedComponent*%
%TO.C,NT15*%
G36*
X175650000Y-99825000D02*
G01*
X175050000Y-99825000D01*
X175050000Y-98625000D01*
X175650000Y-98625000D01*
X175650000Y-99825000D01*
G37*
%TD.AperFunction*%
%TA.AperFunction,EtchedComponent*%
%TO.C,NT16*%
G36*
X181650000Y-99925000D02*
G01*
X181050000Y-99925000D01*
X181050000Y-98725000D01*
X181650000Y-98725000D01*
X181650000Y-99925000D01*
G37*
%TD.AperFunction*%
%TD*%
D11*
%TO.P,SW_D20,1,1*%
%TO.N,GND*%
X176150000Y-132900000D03*
X169850000Y-132900000D03*
%TO.P,SW_D20,2,2*%
%TO.N,Net-(D6-K)*%
X176150000Y-129100000D03*
X169850000Y-129100000D03*
%TD*%
D12*
%TO.P,TP6,1,1*%
%TO.N,VCC*%
X180000000Y-68000000D03*
%TD*%
D13*
%TO.P,NT14,1,1*%
%TO.N,/B1*%
X169350000Y-98625000D03*
%TO.P,NT14,2,2*%
%TO.N,/B1_BUS*%
X169350000Y-99825000D03*
%TD*%
D11*
%TO.P,SW_D6,1,1*%
%TO.N,GND*%
X161150000Y-117900000D03*
X154850000Y-117900000D03*
%TO.P,SW_D6,2,2*%
%TO.N,Net-(D4-K)*%
X161150000Y-114100000D03*
X154850000Y-114100000D03*
%TD*%
D14*
%TO.P,OLED1,1,GND*%
%TO.N,GND*%
X165620000Y-92000000D03*
%TO.P,OLED1,2,VCC*%
%TO.N,+3.3V*%
X163080000Y-92000000D03*
%TO.P,OLED1,3,SCL*%
%TO.N,/SCLK*%
X160540000Y-92000000D03*
%TO.P,OLED1,4,SDA*%
%TO.N,/COPI*%
X158000000Y-92000000D03*
%TO.P,OLED1,5,RES*%
%TO.N,/OLED_RES*%
X155460000Y-92000000D03*
%TO.P,OLED1,6,DC*%
%TO.N,/OLED_DC*%
X152920000Y-92000000D03*
%TO.P,OLED1,7,SC*%
%TO.N,/CS*%
X150380000Y-92000000D03*
%TD*%
D11*
%TO.P,SW_D4,1,1*%
%TO.N,GND*%
X146150000Y-117900000D03*
X139850000Y-117900000D03*
%TO.P,SW_D4,2,2*%
%TO.N,Net-(D1-K)*%
X146150000Y-114100000D03*
X139850000Y-114100000D03*
%TD*%
D15*
%TO.P,D8,1,K*%
%TO.N,Net-(D3-K)*%
X177950000Y-104825000D03*
%TO.P,D8,2,A*%
%TO.N,/B3_BUS*%
X180750000Y-104825000D03*
%TD*%
%TO.P,D6,1,K*%
%TO.N,Net-(D6-K)*%
X171950000Y-107825000D03*
%TO.P,D6,2,A*%
%TO.N,/B2_BUS*%
X174750000Y-107825000D03*
%TD*%
D12*
%TO.P,TP1,1,1*%
%TO.N,/B3*%
X180000000Y-84000000D03*
%TD*%
D15*
%TO.P,D7,1,K*%
%TO.N,Net-(D7-K)*%
X177950000Y-101825000D03*
%TO.P,D7,2,A*%
%TO.N,/B3_BUS*%
X180750000Y-101825000D03*
%TD*%
%TO.P,D2,1,K*%
%TO.N,Net-(D2-K)*%
X165950000Y-104825000D03*
%TO.P,D2,2,A*%
%TO.N,/B1_BUS*%
X168750000Y-104825000D03*
%TD*%
%TO.P,D9,1,K*%
%TO.N,Net-(D6-K)*%
X177950000Y-107825000D03*
%TO.P,D9,2,A*%
%TO.N,/B3_BUS*%
X180750000Y-107825000D03*
%TD*%
D11*
%TO.P,SW_D12,1,1*%
%TO.N,GND*%
X161150000Y-132900000D03*
X154850000Y-132900000D03*
%TO.P,SW_D12,2,2*%
%TO.N,Net-(D3-K)*%
X161150000Y-129100000D03*
X154850000Y-129100000D03*
%TD*%
D12*
%TO.P,TP8,1,1*%
%TO.N,/MODE_SW*%
X158500000Y-105000000D03*
%TD*%
D11*
%TO.P,SW_D10,1,1*%
%TO.N,GND*%
X146150000Y-132900000D03*
X139850000Y-132900000D03*
%TO.P,SW_D10,2,2*%
%TO.N,Net-(D7-K)*%
X146150000Y-129100000D03*
X139850000Y-129100000D03*
%TD*%
D16*
%TO.P,D10,1,K*%
%TO.N,unconnected-(D10-K-Pad1)*%
X1075000Y-1275000D03*
D17*
%TO.P,D10,2,A*%
%TO.N,unconnected-(D10-A-Pad2)*%
X8695000Y-1275000D03*
%TD*%
D13*
%TO.P,NT15,1,1*%
%TO.N,/B2*%
X175350000Y-98625000D03*
%TO.P,NT15,2,2*%
%TO.N,/B2_BUS*%
X175350000Y-99825000D03*
%TD*%
D11*
%TO.P,SW_MODE1,1,1*%
%TO.N,GND*%
X147230000Y-101100000D03*
X153530000Y-101100000D03*
%TO.P,SW_MODE1,2,2*%
%TO.N,/MODE_SW*%
X147230000Y-104900000D03*
X153530000Y-104900000D03*
%TD*%
%TO.P,SW_D8,1,1*%
%TO.N,GND*%
X176270000Y-117900000D03*
X169970000Y-117900000D03*
%TO.P,SW_D8,2,2*%
%TO.N,Net-(D2-K)*%
X176270000Y-114100000D03*
X169970000Y-114100000D03*
%TD*%
D15*
%TO.P,D3,1,K*%
%TO.N,Net-(D3-K)*%
X165950000Y-107825000D03*
%TO.P,D3,2,A*%
%TO.N,/B1_BUS*%
X168750000Y-107825000D03*
%TD*%
D12*
%TO.P,TP4,1,1*%
%TO.N,GND*%
X180000000Y-88000000D03*
%TD*%
D15*
%TO.P,D1,1,K*%
%TO.N,Net-(D1-K)*%
X165950000Y-101825000D03*
%TO.P,D1,2,A*%
%TO.N,/B1_BUS*%
X168750000Y-101825000D03*
%TD*%
D12*
%TO.P,TP2,1,1*%
%TO.N,/B2*%
X180000000Y-80000000D03*
%TD*%
D15*
%TO.P,D4,1,K*%
%TO.N,Net-(D4-K)*%
X171950000Y-101825000D03*
%TO.P,D4,2,A*%
%TO.N,/B2_BUS*%
X174750000Y-101825000D03*
%TD*%
%TO.P,D5,1,K*%
%TO.N,Net-(D2-K)*%
X171950000Y-104825000D03*
%TO.P,D5,2,A*%
%TO.N,/B2_BUS*%
X174750000Y-104825000D03*
%TD*%
D13*
%TO.P,NT16,1,1*%
%TO.N,/B3*%
X181350000Y-98725000D03*
%TO.P,NT16,2,2*%
%TO.N,/B3_BUS*%
X181350000Y-99925000D03*
%TD*%
D12*
%TO.P,TP3,1,1*%
%TO.N,/B1*%
X180000000Y-76000000D03*
%TD*%
%TO.P,TP5,1,1*%
%TO.N,/ADC*%
X180000000Y-72000000D03*
%TD*%
D18*
%TO.P,J1,1,Pin_1*%
%TO.N,+3.3V*%
X139400000Y-89850000D03*
D19*
%TO.P,J1,2,Pin_2*%
%TO.N,GND*%
X139400000Y-87310000D03*
%TO.P,J1,3,Pin_3*%
%TO.N,/CHIP_RX*%
X139400000Y-84770000D03*
%TO.P,J1,4,Pin_4*%
%TO.N,/CHIP_TX*%
X139400000Y-82230000D03*
%TD*%
D18*
%TO.P,J2,1,Pin_1*%
%TO.N,/B+*%
X140540000Y-138625000D03*
D19*
%TO.P,J2,2,Pin_2*%
%TO.N,/B-*%
X138000000Y-138625000D03*
%TD*%
D14*
%TO.P,SW_POWER1,*%
%TO.N,*%
X175540000Y-55420000D03*
X170460000Y-55420000D03*
%TO.P,SW_POWER1,1*%
%TO.N,VCC*%
X173000000Y-60500000D03*
%TO.P,SW_POWER1,2*%
%TO.N,Net-(U2-EN)*%
X170460000Y-60500000D03*
%TO.P,SW_POWER1,3*%
%TO.N,N/C*%
X175540000Y-60500000D03*
%TD*%
D20*
%TO.N,/B1*%
X152500000Y-66000000D03*
X180000000Y-78000000D03*
%TO.N,VCC*%
X178500000Y-67500000D03*
D21*
%TO.N,GND*%
X182500000Y-121500000D03*
D20*
X174750000Y-88000000D03*
X150250000Y-78500000D03*
D21*
X133500000Y-121500000D03*
D20*
%TO.N,/MODE_SW*%
X147500000Y-59500000D03*
X150250000Y-104900000D03*
X152500000Y-70000000D03*
%TO.N,/SCLK*%
X163250000Y-75000000D03*
X163250000Y-70000000D03*
%TO.N,/ADC*%
X163500000Y-64000000D03*
X173500000Y-71500000D03*
%TO.N,+3.3V*%
X149000000Y-58000000D03*
X163000000Y-62000000D03*
%TO.N,/B3*%
X145000000Y-59500000D03*
X180000000Y-86000000D03*
X152500000Y-72000000D03*
%TO.N,/B2*%
X152500000Y-68000000D03*
X180000000Y-82000000D03*
%TO.N,/CS2*%
X140750000Y-77750000D03*
X138250000Y-77750000D03*
%TO.N,Net-(U2-EN)*%
X173000000Y-86000000D03*
X173000000Y-84000000D03*
%TO.N,Net-(D3-K)*%
X152750000Y-129000000D03*
X176500000Y-104750000D03*
X164250000Y-107750000D03*
%TO.N,Net-(D7-K)*%
X176500000Y-101750000D03*
X158250000Y-121250000D03*
%TD*%
D22*
%TO.N,/B1*%
X164250000Y-77750000D02*
X152500000Y-66000000D01*
X180000000Y-78000000D02*
X180000000Y-76000000D01*
X179750000Y-77750000D02*
X164250000Y-77750000D01*
X180000000Y-78000000D02*
X179750000Y-77750000D01*
%TO.N,VCC*%
X179000000Y-68000000D02*
X178500000Y-67500000D01*
X180000000Y-68000000D02*
X179000000Y-68000000D01*
D23*
%TO.N,GND*%
X137500000Y-90950000D02*
X142550000Y-96000000D01*
D24*
X163750000Y-117900000D02*
X163600000Y-118050000D01*
D23*
X139400000Y-87310000D02*
X138197919Y-87310000D01*
X152500000Y-78500000D02*
X150250000Y-78500000D01*
X165620000Y-92000000D02*
X165620000Y-91620000D01*
X163600000Y-94520000D02*
X165620000Y-92500000D01*
X165620000Y-91620000D02*
X152500000Y-78500000D01*
D24*
X136000000Y-112330000D02*
X147230000Y-101100000D01*
D23*
X165620000Y-92500000D02*
X165620000Y-91880000D01*
D24*
X151000000Y-121750000D02*
X151000000Y-117900000D01*
X138000000Y-133000000D02*
X136000000Y-131000000D01*
D23*
X169500000Y-88000000D02*
X174750000Y-88000000D01*
D24*
X138100000Y-117900000D02*
X139850000Y-117900000D01*
X136000000Y-120000000D02*
X136125000Y-119875000D01*
X139850000Y-117900000D02*
X151000000Y-117900000D01*
X136125000Y-119875000D02*
X136000000Y-119750000D01*
D23*
X162120000Y-96000000D02*
X165620000Y-92500000D01*
D24*
X147230000Y-101100000D02*
X153530000Y-101100000D01*
X136000000Y-131000000D02*
X136000000Y-120000000D01*
X175880000Y-133000000D02*
X138000000Y-133000000D01*
D23*
X165620000Y-91880000D02*
X169500000Y-88000000D01*
D24*
X136000000Y-119750000D02*
X136000000Y-112330000D01*
X136125000Y-119875000D02*
X138100000Y-117900000D01*
X151000000Y-117900000D02*
X163750000Y-117900000D01*
D23*
X137500000Y-88007919D02*
X137500000Y-90950000D01*
D24*
X163750000Y-117900000D02*
X176270000Y-117900000D01*
D23*
X180000000Y-88000000D02*
X174750000Y-88000000D01*
X138197919Y-87310000D02*
X137500000Y-88007919D01*
X142550000Y-96000000D02*
X162120000Y-96000000D01*
D22*
%TO.N,/MODE_SW*%
X144100000Y-64400000D02*
X144100000Y-66100000D01*
X147500000Y-59500000D02*
X147500000Y-61000000D01*
X147500000Y-61000000D02*
X144100000Y-64400000D01*
X148000000Y-70000000D02*
X152500000Y-70000000D01*
X144100000Y-66100000D02*
X148000000Y-70000000D01*
X150250000Y-104900000D02*
X147230000Y-104900000D01*
X150250000Y-104900000D02*
X153160000Y-104900000D01*
X158500000Y-105000000D02*
X153630000Y-105000000D01*
X153160000Y-104900000D02*
X153260000Y-105000000D01*
X153630000Y-105000000D02*
X153530000Y-104900000D01*
%TO.N,/SCLK*%
X163250000Y-70000000D02*
X163250000Y-75000000D01*
D24*
%TO.N,/ADC*%
X172000000Y-71500000D02*
X173500000Y-71500000D01*
D22*
X179500000Y-71500000D02*
X173500000Y-71500000D01*
D24*
X164500000Y-64000000D02*
X172000000Y-71500000D01*
X163500000Y-64000000D02*
X164500000Y-64000000D01*
D22*
X180000000Y-72000000D02*
X179500000Y-71500000D01*
D24*
%TO.N,+3.3V*%
X163000000Y-62000000D02*
X162000000Y-63000000D01*
D23*
X139400000Y-90400000D02*
X143500000Y-94500000D01*
X161080000Y-94500000D02*
X163080000Y-92500000D01*
D24*
X151000000Y-63000000D02*
X149000000Y-61000000D01*
D23*
X143500000Y-94500000D02*
X161080000Y-94500000D01*
D24*
X149000000Y-61000000D02*
X149000000Y-58000000D01*
D23*
X139400000Y-89850000D02*
X139400000Y-90400000D01*
D24*
X162000000Y-63000000D02*
X151000000Y-63000000D01*
D22*
%TO.N,/B3*%
X143500000Y-61000000D02*
X143500000Y-66500000D01*
X143500000Y-66500000D02*
X149000000Y-72000000D01*
X180000000Y-86000000D02*
X180000000Y-84000000D01*
X162250000Y-81750000D02*
X152500000Y-72000000D01*
X180000000Y-84000000D02*
X177750000Y-81750000D01*
X177750000Y-81750000D02*
X162250000Y-81750000D01*
X149000000Y-72000000D02*
X152500000Y-72000000D01*
X145000000Y-59500000D02*
X143500000Y-61000000D01*
%TO.N,/B2*%
X180000000Y-82000000D02*
X180000000Y-80000000D01*
X163750000Y-80000000D02*
X152500000Y-68750000D01*
X180000000Y-80000000D02*
X163750000Y-80000000D01*
X152500000Y-68750000D02*
X152500000Y-68000000D01*
D24*
%TO.N,/B1_BUS*%
X169000000Y-100175000D02*
X169350000Y-99825000D01*
X169000000Y-107825000D02*
X169000000Y-100175000D01*
%TO.N,/B2_BUS*%
X175000000Y-107825000D02*
X175000000Y-100175000D01*
X175000000Y-100175000D02*
X175350000Y-99825000D01*
%TO.N,/B3_BUS*%
X181000000Y-107825000D02*
X181000000Y-100275000D01*
X181000000Y-100275000D02*
X181350000Y-99925000D01*
D22*
%TO.N,/CS2*%
X138250000Y-77750000D02*
X140750000Y-77750000D01*
%TO.N,Net-(U2-EN)*%
X173000000Y-86000000D02*
X173000000Y-84000000D01*
%TO.N,Net-(D1-K)*%
X146150000Y-114100000D02*
X139850000Y-114100000D01*
X165250000Y-101825000D02*
X152975000Y-114100000D01*
X165700000Y-101825000D02*
X165250000Y-101825000D01*
X152975000Y-114100000D02*
X146150000Y-114100000D01*
%TO.N,Net-(D2-K)*%
X170250000Y-109750000D02*
X168350000Y-109750000D01*
X170250000Y-106275000D02*
X171700000Y-104825000D01*
X168350000Y-109750000D02*
X167400000Y-108800000D01*
X169970000Y-114100000D02*
X176270000Y-114100000D01*
X167400000Y-108800000D02*
X167400000Y-106400000D01*
X167400000Y-106400000D02*
X165825000Y-104825000D01*
X169970000Y-114100000D02*
X170250000Y-113820000D01*
X170250000Y-113820000D02*
X170250000Y-109750000D01*
X170250000Y-109750000D02*
X170250000Y-106275000D01*
X165825000Y-104825000D02*
X165700000Y-104825000D01*
%TO.N,Net-(D3-K)*%
X164250000Y-107750000D02*
X165625000Y-107750000D01*
X161150000Y-129100000D02*
X154850000Y-129100000D01*
X152850000Y-129100000D02*
X152750000Y-129000000D01*
X176500000Y-104750000D02*
X177625000Y-104750000D01*
X165625000Y-107750000D02*
X165700000Y-107825000D01*
X154850000Y-129100000D02*
X152850000Y-129100000D01*
X177625000Y-104750000D02*
X177700000Y-104825000D01*
%TO.N,Net-(D4-K)*%
X161150000Y-114100000D02*
X161150000Y-107650000D01*
X168750000Y-97500000D02*
X170500000Y-97500000D01*
X172000000Y-101525000D02*
X171700000Y-101825000D01*
X167500000Y-102100000D02*
X167500000Y-98750000D01*
X166200000Y-103400000D02*
X167500000Y-102100000D01*
X170500000Y-97500000D02*
X172000000Y-99000000D01*
X165400000Y-103400000D02*
X166200000Y-103400000D01*
X172000000Y-99000000D02*
X172000000Y-101525000D01*
X161150000Y-107650000D02*
X165400000Y-103400000D01*
X167500000Y-98750000D02*
X168750000Y-97500000D01*
X161150000Y-114100000D02*
X154850000Y-114100000D01*
%TO.N,Net-(D6-K)*%
X173600000Y-109725000D02*
X171700000Y-107825000D01*
X179600000Y-109725000D02*
X177700000Y-107825000D01*
X179600000Y-109725000D02*
X173600000Y-109725000D01*
X176150000Y-129100000D02*
X169850000Y-129100000D01*
X176150000Y-129100000D02*
X179600000Y-125650000D01*
X179600000Y-125650000D02*
X179600000Y-109725000D01*
%TO.N,Net-(D7-K)*%
X146150000Y-129100000D02*
X139850000Y-129100000D01*
X176500000Y-101750000D02*
X177625000Y-101750000D01*
X150400000Y-129100000D02*
X146150000Y-129100000D01*
X177625000Y-101750000D02*
X177700000Y-101825000D01*
X158250000Y-121250000D02*
X150400000Y-129100000D01*
%TD*%
%TA.AperFunction,Conductor*%
%TO.N,GND*%
G36*
X147443039Y-53020185D02*
G01*
X147488794Y-53072989D01*
X147500000Y-53124500D01*
X147500000Y-58530086D01*
X147480315Y-58597125D01*
X147427511Y-58642880D01*
X147401781Y-58651376D01*
X147235733Y-58686670D01*
X147235728Y-58686672D01*
X147072408Y-58759387D01*
X146927768Y-58864475D01*
X146808140Y-58997336D01*
X146718750Y-59152164D01*
X146718747Y-59152170D01*
X146663504Y-59322192D01*
X146663503Y-59322194D01*
X146644815Y-59500000D01*
X146663503Y-59677805D01*
X146663504Y-59677807D01*
X146718747Y-59847829D01*
X146718750Y-59847835D01*
X146808141Y-60002665D01*
X146817648Y-60013223D01*
X146847879Y-60076213D01*
X146849500Y-60096197D01*
X146849500Y-60679192D01*
X146829815Y-60746231D01*
X146813181Y-60766873D01*
X144362181Y-63217873D01*
X144300858Y-63251358D01*
X144231166Y-63246374D01*
X144175233Y-63204502D01*
X144150816Y-63139038D01*
X144150500Y-63130192D01*
X144150500Y-61320808D01*
X144170185Y-61253769D01*
X144186819Y-61233127D01*
X144609691Y-60810255D01*
X145038092Y-60381853D01*
X145099413Y-60348370D01*
X145099477Y-60348356D01*
X145264267Y-60313329D01*
X145427593Y-60240612D01*
X145572230Y-60135526D01*
X145691859Y-60002665D01*
X145781250Y-59847835D01*
X145836497Y-59677803D01*
X145855185Y-59500000D01*
X145836497Y-59322197D01*
X145790648Y-59181089D01*
X145781252Y-59152170D01*
X145781249Y-59152164D01*
X145691859Y-58997335D01*
X145628214Y-58926650D01*
X145572235Y-58864478D01*
X145572232Y-58864476D01*
X145572231Y-58864475D01*
X145572230Y-58864474D01*
X145427593Y-58759388D01*
X145264267Y-58686671D01*
X145264265Y-58686670D01*
X145136594Y-58659533D01*
X145089391Y-58649500D01*
X144910609Y-58649500D01*
X144879954Y-58656015D01*
X144735733Y-58686670D01*
X144735728Y-58686672D01*
X144572408Y-58759387D01*
X144427768Y-58864475D01*
X144308140Y-58997336D01*
X144218750Y-59152164D01*
X144218747Y-59152170D01*
X144163504Y-59322192D01*
X144163503Y-59322194D01*
X144157011Y-59383963D01*
X144130425Y-59448577D01*
X144121371Y-59458681D01*
X142994726Y-60585326D01*
X142923534Y-60691874D01*
X142874499Y-60810255D01*
X142874497Y-60810261D01*
X142849500Y-60935928D01*
X142849500Y-66564070D01*
X142850465Y-66568919D01*
X142866494Y-66649500D01*
X142873888Y-66686670D01*
X142874499Y-66689744D01*
X142903346Y-66759388D01*
X142923535Y-66808127D01*
X142992377Y-66911158D01*
X142994726Y-66914673D01*
X148585325Y-72505272D01*
X148585331Y-72505277D01*
X148691874Y-72576466D01*
X148761221Y-72605189D01*
X148810256Y-72625501D01*
X148810259Y-72625501D01*
X148810260Y-72625502D01*
X148935928Y-72650500D01*
X148935931Y-72650500D01*
X151908089Y-72650500D01*
X151975128Y-72670185D01*
X151980976Y-72674182D01*
X152072407Y-72740612D01*
X152235733Y-72813329D01*
X152235735Y-72813329D01*
X152235736Y-72813330D01*
X152292275Y-72825347D01*
X152400010Y-72848247D01*
X152461490Y-72881438D01*
X152461909Y-72881855D01*
X161835324Y-82255271D01*
X161835327Y-82255274D01*
X161909035Y-82304524D01*
X161909034Y-82304524D01*
X161933690Y-82320997D01*
X161941873Y-82326465D01*
X162060256Y-82375501D01*
X162060260Y-82375501D01*
X162060261Y-82375502D01*
X162185928Y-82400500D01*
X162185931Y-82400500D01*
X177429192Y-82400500D01*
X177496231Y-82420185D01*
X177516873Y-82436819D01*
X178733940Y-83653886D01*
X178767425Y-83715209D01*
X178766034Y-83773659D01*
X178763795Y-83782015D01*
X178763792Y-83782029D01*
X178744723Y-83999997D01*
X178744723Y-84000002D01*
X178763793Y-84217975D01*
X178763793Y-84217979D01*
X178820422Y-84429322D01*
X178820424Y-84429326D01*
X178820425Y-84429330D01*
X178854621Y-84502663D01*
X178912897Y-84627638D01*
X178912898Y-84627639D01*
X179038402Y-84806877D01*
X179193123Y-84961598D01*
X179193124Y-84961599D01*
X179296623Y-85034069D01*
X179340248Y-85088645D01*
X179349500Y-85135644D01*
X179349500Y-85403802D01*
X179329815Y-85470841D01*
X179317651Y-85486773D01*
X179308140Y-85497336D01*
X179218750Y-85652164D01*
X179218747Y-85652170D01*
X179163504Y-85822192D01*
X179163503Y-85822194D01*
X179144815Y-86000000D01*
X179163503Y-86177805D01*
X179163504Y-86177807D01*
X179218747Y-86347829D01*
X179218750Y-86347835D01*
X179308141Y-86502665D01*
X179349812Y-86548946D01*
X179427764Y-86635521D01*
X179427767Y-86635523D01*
X179427770Y-86635526D01*
X179572407Y-86740612D01*
X179735733Y-86813329D01*
X179910609Y-86850500D01*
X179910610Y-86850500D01*
X180089389Y-86850500D01*
X180089391Y-86850500D01*
X180264267Y-86813329D01*
X180427593Y-86740612D01*
X180572230Y-86635526D01*
X180691859Y-86502665D01*
X180781250Y-86347835D01*
X180836497Y-86177803D01*
X180855185Y-86000000D01*
X180836497Y-85822197D01*
X180781250Y-85652165D01*
X180691859Y-85497335D01*
X180682349Y-85486773D01*
X180652120Y-85423782D01*
X180650500Y-85403802D01*
X180650500Y-85135644D01*
X180670185Y-85068605D01*
X180703377Y-85034069D01*
X180744302Y-85005413D01*
X180806877Y-84961598D01*
X180961598Y-84806877D01*
X181087102Y-84627639D01*
X181179575Y-84429330D01*
X181236207Y-84217977D01*
X181255277Y-84000000D01*
X181236207Y-83782023D01*
X181179575Y-83570670D01*
X181087102Y-83372362D01*
X181087100Y-83372359D01*
X181087099Y-83372357D01*
X180961599Y-83193124D01*
X180917975Y-83149500D01*
X180806877Y-83038402D01*
X180627639Y-82912898D01*
X180627640Y-82912898D01*
X180627638Y-82912897D01*
X180552148Y-82877696D01*
X180499709Y-82831524D01*
X180480557Y-82764330D01*
X180500773Y-82697449D01*
X180531668Y-82664996D01*
X180572230Y-82635526D01*
X180691859Y-82502665D01*
X180781250Y-82347835D01*
X180836497Y-82177803D01*
X180855185Y-82000000D01*
X180836497Y-81822197D01*
X180781250Y-81652165D01*
X180691859Y-81497335D01*
X180682349Y-81486773D01*
X180652120Y-81423782D01*
X180650500Y-81403802D01*
X180650500Y-81135644D01*
X180670185Y-81068605D01*
X180703377Y-81034069D01*
X180806877Y-80961598D01*
X180961598Y-80806877D01*
X181087102Y-80627639D01*
X181179575Y-80429330D01*
X181236207Y-80217977D01*
X181255277Y-80000000D01*
X181236207Y-79782023D01*
X181179575Y-79570670D01*
X181087102Y-79372362D01*
X181087100Y-79372359D01*
X181087099Y-79372357D01*
X180961599Y-79193124D01*
X180961595Y-79193120D01*
X180806877Y-79038402D01*
X180627639Y-78912898D01*
X180627640Y-78912898D01*
X180627638Y-78912897D01*
X180552148Y-78877696D01*
X180499709Y-78831524D01*
X180480557Y-78764330D01*
X180500773Y-78697449D01*
X180531668Y-78664996D01*
X180572230Y-78635526D01*
X180691859Y-78502665D01*
X180781250Y-78347835D01*
X180836497Y-78177803D01*
X180855185Y-78000000D01*
X180836497Y-77822197D01*
X180781250Y-77652165D01*
X180691859Y-77497335D01*
X180682349Y-77486773D01*
X180652120Y-77423782D01*
X180650500Y-77403802D01*
X180650500Y-77135644D01*
X180670185Y-77068605D01*
X180703377Y-77034069D01*
X180725135Y-77018834D01*
X180806877Y-76961598D01*
X180961598Y-76806877D01*
X181087102Y-76627639D01*
X181179575Y-76429330D01*
X181236207Y-76217977D01*
X181255277Y-76000000D01*
X181236207Y-75782023D01*
X181179575Y-75570670D01*
X181087102Y-75372362D01*
X181087100Y-75372359D01*
X181087099Y-75372357D01*
X180961599Y-75193124D01*
X180946278Y-75177803D01*
X180806877Y-75038402D01*
X180627639Y-74912898D01*
X180627640Y-74912898D01*
X180627638Y-74912897D01*
X180479803Y-74843961D01*
X180429330Y-74820425D01*
X180429326Y-74820424D01*
X180429322Y-74820422D01*
X180217977Y-74763793D01*
X180000002Y-74744723D01*
X179999998Y-74744723D01*
X179854682Y-74757436D01*
X179782023Y-74763793D01*
X179782020Y-74763793D01*
X179570677Y-74820422D01*
X179570670Y-74820424D01*
X179570670Y-74820425D01*
X179566870Y-74822197D01*
X179372361Y-74912898D01*
X179372357Y-74912900D01*
X179193121Y-75038402D01*
X179038402Y-75193121D01*
X178912900Y-75372357D01*
X178912898Y-75372361D01*
X178820426Y-75570668D01*
X178820422Y-75570677D01*
X178763793Y-75782020D01*
X178763793Y-75782024D01*
X178744723Y-75999997D01*
X178744723Y-76000002D01*
X178763793Y-76217975D01*
X178763793Y-76217979D01*
X178820422Y-76429322D01*
X178820424Y-76429326D01*
X178820425Y-76429330D01*
X178866661Y-76528484D01*
X178912897Y-76627638D01*
X179038403Y-76806878D01*
X179119344Y-76887819D01*
X179152828Y-76949143D01*
X179147844Y-77018834D01*
X179105972Y-77074768D01*
X179040507Y-77099184D01*
X179031662Y-77099500D01*
X164570808Y-77099500D01*
X164503769Y-77079815D01*
X164483127Y-77063181D01*
X163444020Y-76024074D01*
X163410535Y-75962751D01*
X163415519Y-75893059D01*
X163457391Y-75837126D01*
X163505920Y-75815103D01*
X163514267Y-75813329D01*
X163677593Y-75740612D01*
X163822230Y-75635526D01*
X163941859Y-75502665D01*
X164031250Y-75347835D01*
X164086497Y-75177803D01*
X164105185Y-75000000D01*
X164086497Y-74822197D01*
X164031250Y-74652165D01*
X163941859Y-74497335D01*
X163932349Y-74486773D01*
X163902120Y-74423782D01*
X163900500Y-74403802D01*
X163900500Y-70596197D01*
X163920185Y-70529158D01*
X163932352Y-70513223D01*
X163941859Y-70502665D01*
X164031250Y-70347835D01*
X164086497Y-70177803D01*
X164105185Y-70000000D01*
X164086497Y-69822197D01*
X164031250Y-69652165D01*
X163941859Y-69497335D01*
X163895003Y-69445296D01*
X163822235Y-69364478D01*
X163822232Y-69364476D01*
X163822231Y-69364475D01*
X163822230Y-69364474D01*
X163677593Y-69259388D01*
X163514267Y-69186671D01*
X163514265Y-69186670D01*
X163372841Y-69156610D01*
X163339391Y-69149500D01*
X163160609Y-69149500D01*
X163129954Y-69156015D01*
X162985733Y-69186670D01*
X162985728Y-69186672D01*
X162822408Y-69259387D01*
X162677768Y-69364475D01*
X162558140Y-69497336D01*
X162468750Y-69652164D01*
X162468747Y-69652170D01*
X162413504Y-69822192D01*
X162413503Y-69822194D01*
X162394815Y-70000000D01*
X162413503Y-70177805D01*
X162413504Y-70177807D01*
X162468747Y-70347829D01*
X162468750Y-70347835D01*
X162558141Y-70502665D01*
X162567648Y-70513223D01*
X162597879Y-70576213D01*
X162599500Y-70596197D01*
X162599500Y-74403802D01*
X162579815Y-74470841D01*
X162567651Y-74486773D01*
X162558140Y-74497336D01*
X162468750Y-74652164D01*
X162468748Y-74652168D01*
X162434008Y-74759088D01*
X162394570Y-74816763D01*
X162330211Y-74843961D01*
X162261365Y-74832046D01*
X162228396Y-74808450D01*
X153378628Y-65958682D01*
X153345143Y-65897359D01*
X153342988Y-65883961D01*
X153336497Y-65822198D01*
X153330024Y-65802277D01*
X153281250Y-65652165D01*
X153191859Y-65497335D01*
X153145003Y-65445296D01*
X153072235Y-65364478D01*
X153072232Y-65364476D01*
X153072231Y-65364475D01*
X153072230Y-65364474D01*
X152927593Y-65259388D01*
X152877934Y-65237278D01*
X152824699Y-65192030D01*
X152804377Y-65125181D01*
X152823422Y-65057957D01*
X152875788Y-65011701D01*
X152928371Y-65000000D01*
X164387270Y-65000000D01*
X164454309Y-65019685D01*
X164474951Y-65036319D01*
X171521586Y-72082954D01*
X171547056Y-72099971D01*
X171585265Y-72125501D01*
X171644505Y-72165084D01*
X171644507Y-72165085D01*
X171644511Y-72165087D01*
X171701079Y-72188518D01*
X171701080Y-72188518D01*
X171781088Y-72221659D01*
X171897241Y-72244763D01*
X171916468Y-72248587D01*
X171926081Y-72250500D01*
X171926082Y-72250500D01*
X171926083Y-72250500D01*
X172073918Y-72250500D01*
X173068259Y-72250500D01*
X173118693Y-72261219D01*
X173235733Y-72313329D01*
X173410609Y-72350500D01*
X173410610Y-72350500D01*
X173589389Y-72350500D01*
X173589391Y-72350500D01*
X173764267Y-72313329D01*
X173927593Y-72240612D01*
X174019025Y-72174182D01*
X174084831Y-72150702D01*
X174091911Y-72150500D01*
X178650564Y-72150500D01*
X178717603Y-72170185D01*
X178763358Y-72222989D01*
X178770339Y-72242407D01*
X178820422Y-72429322D01*
X178820424Y-72429326D01*
X178820425Y-72429330D01*
X178855837Y-72505272D01*
X178912897Y-72627638D01*
X178912898Y-72627639D01*
X179038402Y-72806877D01*
X179193123Y-72961598D01*
X179372361Y-73087102D01*
X179570670Y-73179575D01*
X179782023Y-73236207D01*
X179964926Y-73252208D01*
X179999998Y-73255277D01*
X180000000Y-73255277D01*
X180000002Y-73255277D01*
X180028254Y-73252805D01*
X180217977Y-73236207D01*
X180429330Y-73179575D01*
X180627639Y-73087102D01*
X180806877Y-72961598D01*
X180961598Y-72806877D01*
X181087102Y-72627639D01*
X181179575Y-72429330D01*
X181236207Y-72217977D01*
X181255277Y-72000000D01*
X181236207Y-71782023D01*
X181179575Y-71570670D01*
X181087102Y-71372362D01*
X181087100Y-71372359D01*
X181087099Y-71372357D01*
X180961599Y-71193124D01*
X180917975Y-71149500D01*
X180806877Y-71038402D01*
X180627639Y-70912898D01*
X180627640Y-70912898D01*
X180627638Y-70912897D01*
X180493826Y-70850500D01*
X180429330Y-70820425D01*
X180429326Y-70820424D01*
X180429322Y-70820422D01*
X180217977Y-70763793D01*
X180000002Y-70744723D01*
X179999998Y-70744723D01*
X179854682Y-70757436D01*
X179782023Y-70763793D01*
X179782020Y-70763793D01*
X179570677Y-70820422D01*
X179570670Y-70820424D01*
X179570670Y-70820425D01*
X179550534Y-70829815D01*
X179533234Y-70837882D01*
X179480829Y-70849500D01*
X174091911Y-70849500D01*
X174024872Y-70829815D01*
X174019025Y-70825818D01*
X174003803Y-70814758D01*
X173927593Y-70759388D01*
X173764267Y-70686671D01*
X173764265Y-70686670D01*
X173636594Y-70659533D01*
X173589391Y-70649500D01*
X173410609Y-70649500D01*
X173404418Y-70650816D01*
X173235733Y-70686670D01*
X173118694Y-70738780D01*
X173068259Y-70749500D01*
X172362230Y-70749500D01*
X172295191Y-70729815D01*
X172274549Y-70713181D01*
X169061368Y-67500000D01*
X177644815Y-67500000D01*
X177663503Y-67677805D01*
X177663504Y-67677807D01*
X177718747Y-67847829D01*
X177718750Y-67847835D01*
X177808141Y-68002665D01*
X177849812Y-68048946D01*
X177927764Y-68135521D01*
X177927767Y-68135523D01*
X177927770Y-68135526D01*
X178072407Y-68240612D01*
X178235733Y-68313329D01*
X178235735Y-68313329D01*
X178235736Y-68313330D01*
X178292275Y-68325347D01*
X178400010Y-68348247D01*
X178461490Y-68381438D01*
X178461770Y-68381716D01*
X178585331Y-68505277D01*
X178667614Y-68560256D01*
X178667615Y-68560257D01*
X178667614Y-68560257D01*
X178691871Y-68576464D01*
X178691872Y-68576464D01*
X178691873Y-68576465D01*
X178810256Y-68625501D01*
X178878939Y-68639163D01*
X178940850Y-68671547D01*
X178956322Y-68689656D01*
X179038402Y-68806877D01*
X179193123Y-68961598D01*
X179372361Y-69087102D01*
X179570670Y-69179575D01*
X179782023Y-69236207D01*
X179964926Y-69252208D01*
X179999998Y-69255277D01*
X180000000Y-69255277D01*
X180000002Y-69255277D01*
X180028254Y-69252805D01*
X180217977Y-69236207D01*
X180429330Y-69179575D01*
X180627639Y-69087102D01*
X180806877Y-68961598D01*
X180961598Y-68806877D01*
X181087102Y-68627639D01*
X181179575Y-68429330D01*
X181236207Y-68217977D01*
X181255277Y-68000000D01*
X181253557Y-67980345D01*
X181250711Y-67947805D01*
X181236207Y-67782023D01*
X181179575Y-67570670D01*
X181087102Y-67372362D01*
X181087100Y-67372359D01*
X181087099Y-67372357D01*
X180961599Y-67193124D01*
X180893242Y-67124767D01*
X180806877Y-67038402D01*
X180630174Y-66914673D01*
X180627638Y-66912897D01*
X180523798Y-66864476D01*
X180429330Y-66820425D01*
X180429326Y-66820424D01*
X180429322Y-66820422D01*
X180217977Y-66763793D01*
X180000002Y-66744723D01*
X179999998Y-66744723D01*
X179854682Y-66757436D01*
X179782023Y-66763793D01*
X179782020Y-66763793D01*
X179570677Y-66820422D01*
X179570670Y-66820424D01*
X179570670Y-66820425D01*
X179548437Y-66830792D01*
X179372363Y-66912897D01*
X179304891Y-66960141D01*
X179238685Y-66982468D01*
X179170918Y-66965456D01*
X179141619Y-66941537D01*
X179072235Y-66864478D01*
X179072232Y-66864476D01*
X179072231Y-66864475D01*
X179072230Y-66864474D01*
X178927593Y-66759388D01*
X178764267Y-66686671D01*
X178764265Y-66686670D01*
X178636594Y-66659533D01*
X178589391Y-66649500D01*
X178410609Y-66649500D01*
X178379954Y-66656015D01*
X178235733Y-66686670D01*
X178235728Y-66686672D01*
X178072408Y-66759387D01*
X177927768Y-66864475D01*
X177808140Y-66997336D01*
X177718750Y-67152164D01*
X177718747Y-67152170D01*
X177663504Y-67322192D01*
X177663503Y-67322194D01*
X177644815Y-67500000D01*
X169061368Y-67500000D01*
X168721576Y-67160208D01*
X168688091Y-67098885D01*
X168693075Y-67029193D01*
X168734947Y-66973260D01*
X168800411Y-66948843D01*
X168841342Y-66952751D01*
X168907762Y-66970548D01*
X169135266Y-67000500D01*
X169135273Y-67000500D01*
X169364727Y-67000500D01*
X169364734Y-67000500D01*
X169592238Y-66970548D01*
X169813887Y-66911158D01*
X170025888Y-66823344D01*
X170224612Y-66708611D01*
X170406661Y-66568919D01*
X170406665Y-66568914D01*
X170406670Y-66568911D01*
X170568911Y-66406670D01*
X170568914Y-66406665D01*
X170568919Y-66406661D01*
X170708611Y-66224612D01*
X170823344Y-66025888D01*
X170911158Y-65813887D01*
X170970548Y-65592238D01*
X171000500Y-65364734D01*
X171000500Y-65135266D01*
X170970548Y-64907762D01*
X170911158Y-64686113D01*
X170861190Y-64565480D01*
X170823349Y-64474123D01*
X170823346Y-64474117D01*
X170823344Y-64474112D01*
X170708611Y-64275388D01*
X170708608Y-64275385D01*
X170708607Y-64275382D01*
X170568918Y-64093338D01*
X170568911Y-64093330D01*
X170406670Y-63931089D01*
X170406661Y-63931081D01*
X170224617Y-63791392D01*
X170025890Y-63676657D01*
X170025876Y-63676650D01*
X169813887Y-63588842D01*
X169592238Y-63529452D01*
X169554215Y-63524446D01*
X169364741Y-63499500D01*
X169364734Y-63499500D01*
X169135266Y-63499500D01*
X169135258Y-63499500D01*
X168918715Y-63528009D01*
X168907762Y-63529452D01*
X168752298Y-63571108D01*
X168686113Y-63588842D01*
X168686097Y-63588847D01*
X168671452Y-63594914D01*
X168601983Y-63602383D01*
X168539504Y-63571108D01*
X168503852Y-63511019D01*
X168500000Y-63480353D01*
X168500000Y-60499999D01*
X169104341Y-60499999D01*
X169104341Y-60500000D01*
X169124936Y-60735403D01*
X169124938Y-60735413D01*
X169186094Y-60963655D01*
X169186096Y-60963659D01*
X169186097Y-60963663D01*
X169266004Y-61135023D01*
X169285965Y-61177830D01*
X169285967Y-61177834D01*
X169354626Y-61275888D01*
X169421505Y-61371401D01*
X169588599Y-61538495D01*
X169685384Y-61606265D01*
X169782165Y-61674032D01*
X169782167Y-61674033D01*
X169782170Y-61674035D01*
X169996337Y-61773903D01*
X170224592Y-61835063D01*
X170412918Y-61851539D01*
X170459999Y-61855659D01*
X170460000Y-61855659D01*
X170460001Y-61855659D01*
X170499234Y-61852226D01*
X170695408Y-61835063D01*
X170923663Y-61773903D01*
X171137830Y-61674035D01*
X171331401Y-61538495D01*
X171498495Y-61371401D01*
X171628425Y-61185842D01*
X171683002Y-61142217D01*
X171752500Y-61135023D01*
X171814855Y-61166546D01*
X171831575Y-61185842D01*
X171961500Y-61371395D01*
X171961505Y-61371401D01*
X172128599Y-61538495D01*
X172225384Y-61606265D01*
X172322165Y-61674032D01*
X172322167Y-61674033D01*
X172322170Y-61674035D01*
X172536337Y-61773903D01*
X172764592Y-61835063D01*
X172952918Y-61851539D01*
X172999999Y-61855659D01*
X173000000Y-61855659D01*
X173000001Y-61855659D01*
X173039234Y-61852226D01*
X173235408Y-61835063D01*
X173463663Y-61773903D01*
X173677830Y-61674035D01*
X173871401Y-61538495D01*
X174038495Y-61371401D01*
X174168425Y-61185842D01*
X174223002Y-61142217D01*
X174292500Y-61135023D01*
X174354855Y-61166546D01*
X174371575Y-61185842D01*
X174501500Y-61371395D01*
X174501505Y-61371401D01*
X174668599Y-61538495D01*
X174765384Y-61606265D01*
X174862165Y-61674032D01*
X174862167Y-61674033D01*
X174862170Y-61674035D01*
X175076337Y-61773903D01*
X175304592Y-61835063D01*
X175492918Y-61851539D01*
X175539999Y-61855659D01*
X175540000Y-61855659D01*
X175540001Y-61855659D01*
X175579234Y-61852226D01*
X175775408Y-61835063D01*
X176003663Y-61773903D01*
X176217830Y-61674035D01*
X176411401Y-61538495D01*
X176578495Y-61371401D01*
X176714035Y-61177830D01*
X176813903Y-60963663D01*
X176875063Y-60735408D01*
X176895659Y-60500000D01*
X176885620Y-60385258D01*
X181249500Y-60385258D01*
X181249500Y-60614741D01*
X181265387Y-60735408D01*
X181279452Y-60842238D01*
X181311988Y-60963664D01*
X181338842Y-61063887D01*
X181426650Y-61275876D01*
X181426657Y-61275890D01*
X181541392Y-61474617D01*
X181681081Y-61656661D01*
X181681089Y-61656670D01*
X181843330Y-61818911D01*
X181843338Y-61818918D01*
X182025382Y-61958607D01*
X182025385Y-61958608D01*
X182025388Y-61958611D01*
X182224112Y-62073344D01*
X182224117Y-62073346D01*
X182224123Y-62073349D01*
X182283979Y-62098142D01*
X182436113Y-62161158D01*
X182657762Y-62220548D01*
X182885266Y-62250500D01*
X182885273Y-62250500D01*
X183114727Y-62250500D01*
X183114734Y-62250500D01*
X183342238Y-62220548D01*
X183563887Y-62161158D01*
X183775888Y-62073344D01*
X183974612Y-61958611D01*
X184156661Y-61818919D01*
X184156665Y-61818914D01*
X184156670Y-61818911D01*
X184318911Y-61656670D01*
X184318914Y-61656665D01*
X184318919Y-61656661D01*
X184458611Y-61474612D01*
X184573344Y-61275888D01*
X184661158Y-61063887D01*
X184720548Y-60842238D01*
X184750500Y-60614734D01*
X184750500Y-60385266D01*
X184720548Y-60157762D01*
X184661158Y-59936113D01*
X184573344Y-59724112D01*
X184458611Y-59525388D01*
X184458608Y-59525385D01*
X184458607Y-59525382D01*
X184318918Y-59343338D01*
X184318911Y-59343330D01*
X184156670Y-59181089D01*
X184156661Y-59181081D01*
X183974617Y-59041392D01*
X183775890Y-58926657D01*
X183775876Y-58926650D01*
X183563887Y-58838842D01*
X183342238Y-58779452D01*
X183304215Y-58774446D01*
X183114741Y-58749500D01*
X183114734Y-58749500D01*
X182885266Y-58749500D01*
X182885258Y-58749500D01*
X182668715Y-58778009D01*
X182657762Y-58779452D01*
X182564076Y-58804554D01*
X182436112Y-58838842D01*
X182224123Y-58926650D01*
X182224109Y-58926657D01*
X182025382Y-59041392D01*
X181843338Y-59181081D01*
X181681081Y-59343338D01*
X181541392Y-59525382D01*
X181426657Y-59724109D01*
X181426650Y-59724123D01*
X181338842Y-59936112D01*
X181338842Y-59936113D01*
X181285412Y-60135521D01*
X181279453Y-60157759D01*
X181279451Y-60157770D01*
X181249500Y-60385258D01*
X176885620Y-60385258D01*
X176875063Y-60264592D01*
X176813903Y-60036337D01*
X176714035Y-59822171D01*
X176708425Y-59814158D01*
X176578494Y-59628597D01*
X176411402Y-59461506D01*
X176411395Y-59461501D01*
X176217834Y-59325967D01*
X176217830Y-59325965D01*
X176217828Y-59325964D01*
X176003663Y-59226097D01*
X176003659Y-59226096D01*
X176003655Y-59226094D01*
X175775413Y-59164938D01*
X175775403Y-59164936D01*
X175540001Y-59144341D01*
X175539999Y-59144341D01*
X175304596Y-59164936D01*
X175304586Y-59164938D01*
X175076344Y-59226094D01*
X175076335Y-59226098D01*
X174862171Y-59325964D01*
X174862169Y-59325965D01*
X174668597Y-59461505D01*
X174501505Y-59628597D01*
X174371575Y-59814158D01*
X174316998Y-59857783D01*
X174247500Y-59864977D01*
X174185145Y-59833454D01*
X174168425Y-59814158D01*
X174038494Y-59628597D01*
X173871402Y-59461506D01*
X173871395Y-59461501D01*
X173677834Y-59325967D01*
X173677830Y-59325965D01*
X173677828Y-59325964D01*
X173463663Y-59226097D01*
X173463659Y-59226096D01*
X173463655Y-59226094D01*
X173235413Y-59164938D01*
X173235403Y-59164936D01*
X173000001Y-59144341D01*
X172999999Y-59144341D01*
X172764596Y-59164936D01*
X172764586Y-59164938D01*
X172536344Y-59226094D01*
X172536335Y-59226098D01*
X172322171Y-59325964D01*
X172322169Y-59325965D01*
X172128597Y-59461505D01*
X171961505Y-59628597D01*
X171831575Y-59814158D01*
X171776998Y-59857783D01*
X171707500Y-59864977D01*
X171645145Y-59833454D01*
X171628425Y-59814158D01*
X171498494Y-59628597D01*
X171331402Y-59461506D01*
X171331395Y-59461501D01*
X171137834Y-59325967D01*
X171137830Y-59325965D01*
X171137828Y-59325964D01*
X170923663Y-59226097D01*
X170923659Y-59226096D01*
X170923655Y-59226094D01*
X170695413Y-59164938D01*
X170695403Y-59164936D01*
X170460001Y-59144341D01*
X170459999Y-59144341D01*
X170224596Y-59164936D01*
X170224586Y-59164938D01*
X169996344Y-59226094D01*
X169996335Y-59226098D01*
X169782171Y-59325964D01*
X169782169Y-59325965D01*
X169588597Y-59461505D01*
X169421505Y-59628597D01*
X169285965Y-59822169D01*
X169285964Y-59822171D01*
X169186098Y-60036335D01*
X169186094Y-60036344D01*
X169124938Y-60264586D01*
X169124936Y-60264596D01*
X169104341Y-60499999D01*
X168500000Y-60499999D01*
X168500000Y-55419999D01*
X169104341Y-55419999D01*
X169104341Y-55420000D01*
X169124936Y-55655403D01*
X169124938Y-55655413D01*
X169186094Y-55883655D01*
X169186096Y-55883659D01*
X169186097Y-55883663D01*
X169285965Y-56097830D01*
X169285967Y-56097834D01*
X169394281Y-56252521D01*
X169421505Y-56291401D01*
X169588599Y-56458495D01*
X169685384Y-56526265D01*
X169782165Y-56594032D01*
X169782167Y-56594033D01*
X169782170Y-56594035D01*
X169996337Y-56693903D01*
X170224592Y-56755063D01*
X170412918Y-56771539D01*
X170459999Y-56775659D01*
X170460000Y-56775659D01*
X170460001Y-56775659D01*
X170499234Y-56772226D01*
X170695408Y-56755063D01*
X170923663Y-56693903D01*
X171137830Y-56594035D01*
X171331401Y-56458495D01*
X171498495Y-56291401D01*
X171634035Y-56097830D01*
X171733903Y-55883663D01*
X171795063Y-55655408D01*
X171815659Y-55420000D01*
X171815659Y-55419999D01*
X174184341Y-55419999D01*
X174184341Y-55420000D01*
X174204936Y-55655403D01*
X174204938Y-55655413D01*
X174266094Y-55883655D01*
X174266096Y-55883659D01*
X174266097Y-55883663D01*
X174365965Y-56097830D01*
X174365967Y-56097834D01*
X174474281Y-56252521D01*
X174501505Y-56291401D01*
X174668599Y-56458495D01*
X174765384Y-56526265D01*
X174862165Y-56594032D01*
X174862167Y-56594033D01*
X174862170Y-56594035D01*
X175076337Y-56693903D01*
X175304592Y-56755063D01*
X175492918Y-56771539D01*
X175539999Y-56775659D01*
X175540000Y-56775659D01*
X175540001Y-56775659D01*
X175579234Y-56772226D01*
X175775408Y-56755063D01*
X176003663Y-56693903D01*
X176217830Y-56594035D01*
X176411401Y-56458495D01*
X176578495Y-56291401D01*
X176714035Y-56097830D01*
X176813903Y-55883663D01*
X176875063Y-55655408D01*
X176895659Y-55420000D01*
X176875063Y-55184592D01*
X176813903Y-54956337D01*
X176714035Y-54742171D01*
X176578495Y-54548599D01*
X176578494Y-54548597D01*
X176411402Y-54381506D01*
X176411395Y-54381501D01*
X176217834Y-54245967D01*
X176217830Y-54245965D01*
X176217828Y-54245964D01*
X176003663Y-54146097D01*
X176003659Y-54146096D01*
X176003655Y-54146094D01*
X175775413Y-54084938D01*
X175775403Y-54084936D01*
X175540001Y-54064341D01*
X175539999Y-54064341D01*
X175304596Y-54084936D01*
X175304586Y-54084938D01*
X175076344Y-54146094D01*
X175076335Y-54146098D01*
X174862171Y-54245964D01*
X174862169Y-54245965D01*
X174668597Y-54381505D01*
X174501505Y-54548597D01*
X174365965Y-54742169D01*
X174365964Y-54742171D01*
X174266098Y-54956335D01*
X174266094Y-54956344D01*
X174204938Y-55184586D01*
X174204936Y-55184596D01*
X174184341Y-55419999D01*
X171815659Y-55419999D01*
X171795063Y-55184592D01*
X171733903Y-54956337D01*
X171634035Y-54742171D01*
X171498495Y-54548599D01*
X171498494Y-54548597D01*
X171331402Y-54381506D01*
X171331395Y-54381501D01*
X171137834Y-54245967D01*
X171137830Y-54245965D01*
X171137828Y-54245964D01*
X170923663Y-54146097D01*
X170923659Y-54146096D01*
X170923655Y-54146094D01*
X170695413Y-54084938D01*
X170695403Y-54084936D01*
X170460001Y-54064341D01*
X170459999Y-54064341D01*
X170224596Y-54084936D01*
X170224586Y-54084938D01*
X169996344Y-54146094D01*
X169996335Y-54146098D01*
X169782171Y-54245964D01*
X169782169Y-54245965D01*
X169588597Y-54381505D01*
X169421505Y-54548597D01*
X169285965Y-54742169D01*
X169285964Y-54742171D01*
X169186098Y-54956335D01*
X169186094Y-54956344D01*
X169124938Y-55184586D01*
X169124936Y-55184596D01*
X169104341Y-55419999D01*
X168500000Y-55419999D01*
X168500000Y-53124500D01*
X168519685Y-53057461D01*
X168572489Y-53011706D01*
X168624000Y-53000500D01*
X179241324Y-53000500D01*
X179308363Y-53020185D01*
X179329005Y-53036819D01*
X185463181Y-59170995D01*
X185496666Y-59232318D01*
X185499500Y-59258676D01*
X185499500Y-140241324D01*
X185479815Y-140308363D01*
X185463181Y-140329005D01*
X179329005Y-146463181D01*
X179267682Y-146496666D01*
X179241324Y-146499500D01*
X136758676Y-146499500D01*
X136691637Y-146479815D01*
X136670995Y-146463181D01*
X130536819Y-140329005D01*
X130503334Y-140267682D01*
X130500500Y-140241324D01*
X130500500Y-138885258D01*
X131249500Y-138885258D01*
X131249500Y-139114741D01*
X131269897Y-139269663D01*
X131279452Y-139342238D01*
X131327855Y-139522883D01*
X131338842Y-139563887D01*
X131426650Y-139775876D01*
X131426656Y-139775888D01*
X131538201Y-139969091D01*
X131541392Y-139974617D01*
X131681081Y-140156661D01*
X131681089Y-140156670D01*
X131843330Y-140318911D01*
X131843338Y-140318918D01*
X132025382Y-140458607D01*
X132025385Y-140458608D01*
X132025388Y-140458611D01*
X132224112Y-140573344D01*
X132224117Y-140573346D01*
X132224123Y-140573349D01*
X132315480Y-140611190D01*
X132436113Y-140661158D01*
X132657762Y-140720548D01*
X132885266Y-140750500D01*
X132885273Y-140750500D01*
X133114727Y-140750500D01*
X133114734Y-140750500D01*
X133342238Y-140720548D01*
X133563887Y-140661158D01*
X133775888Y-140573344D01*
X133974612Y-140458611D01*
X134156661Y-140318919D01*
X134156665Y-140318914D01*
X134156670Y-140318911D01*
X134318911Y-140156670D01*
X134318914Y-140156665D01*
X134318919Y-140156661D01*
X134458611Y-139974612D01*
X134573344Y-139775888D01*
X134661158Y-139563887D01*
X134720548Y-139342238D01*
X134750500Y-139114734D01*
X134750500Y-138885266D01*
X134720548Y-138657762D01*
X134711769Y-138624999D01*
X136644341Y-138624999D01*
X136644341Y-138625000D01*
X136664936Y-138860403D01*
X136664938Y-138860413D01*
X136726094Y-139088655D01*
X136726096Y-139088659D01*
X136726097Y-139088663D01*
X136810499Y-139269663D01*
X136825965Y-139302830D01*
X136825967Y-139302834D01*
X136853560Y-139342240D01*
X136961505Y-139496401D01*
X137128599Y-139663495D01*
X137225384Y-139731265D01*
X137322165Y-139799032D01*
X137322167Y-139799033D01*
X137322170Y-139799035D01*
X137536337Y-139898903D01*
X137764592Y-139960063D01*
X137941034Y-139975500D01*
X137999999Y-139980659D01*
X138000000Y-139980659D01*
X138000001Y-139980659D01*
X138058966Y-139975500D01*
X138235408Y-139960063D01*
X138463663Y-139898903D01*
X138677830Y-139799035D01*
X138871401Y-139663495D01*
X138993329Y-139541566D01*
X139054648Y-139508084D01*
X139124340Y-139513068D01*
X139180274Y-139554939D01*
X139197189Y-139585917D01*
X139246202Y-139717328D01*
X139246206Y-139717335D01*
X139332452Y-139832544D01*
X139332455Y-139832547D01*
X139447664Y-139918793D01*
X139447671Y-139918797D01*
X139582517Y-139969091D01*
X139582516Y-139969091D01*
X139589444Y-139969835D01*
X139642127Y-139975500D01*
X141437872Y-139975499D01*
X141497483Y-139969091D01*
X141632331Y-139918796D01*
X141747546Y-139832546D01*
X141833796Y-139717331D01*
X141884091Y-139582483D01*
X141890500Y-139522873D01*
X141890500Y-138885258D01*
X181249500Y-138885258D01*
X181249500Y-139114741D01*
X181269897Y-139269663D01*
X181279452Y-139342238D01*
X181327855Y-139522883D01*
X181338842Y-139563887D01*
X181426650Y-139775876D01*
X181426656Y-139775888D01*
X181538201Y-139969091D01*
X181541392Y-139974617D01*
X181681081Y-140156661D01*
X181681089Y-140156670D01*
X181843330Y-140318911D01*
X181843338Y-140318918D01*
X182025382Y-140458607D01*
X182025385Y-140458608D01*
X182025388Y-140458611D01*
X182224112Y-140573344D01*
X182224117Y-140573346D01*
X182224123Y-140573349D01*
X182315480Y-140611190D01*
X182436113Y-140661158D01*
X182657762Y-140720548D01*
X182885266Y-140750500D01*
X182885273Y-140750500D01*
X183114727Y-140750500D01*
X183114734Y-140750500D01*
X183342238Y-140720548D01*
X183563887Y-140661158D01*
X183775888Y-140573344D01*
X183974612Y-140458611D01*
X184156661Y-140318919D01*
X184156665Y-140318914D01*
X184156670Y-140318911D01*
X184318911Y-140156670D01*
X184318914Y-140156665D01*
X184318919Y-140156661D01*
X184458611Y-139974612D01*
X184573344Y-139775888D01*
X184661158Y-139563887D01*
X184720548Y-139342238D01*
X184750500Y-139114734D01*
X184750500Y-138885266D01*
X184720548Y-138657762D01*
X184661158Y-138436113D01*
X184573344Y-138224112D01*
X184458611Y-138025388D01*
X184458608Y-138025385D01*
X184458607Y-138025382D01*
X184318918Y-137843338D01*
X184318911Y-137843330D01*
X184156670Y-137681089D01*
X184156661Y-137681081D01*
X183974617Y-137541392D01*
X183775890Y-137426657D01*
X183775876Y-137426650D01*
X183563887Y-137338842D01*
X183535374Y-137331202D01*
X183342238Y-137279452D01*
X183304215Y-137274446D01*
X183114741Y-137249500D01*
X183114734Y-137249500D01*
X182885266Y-137249500D01*
X182885258Y-137249500D01*
X182668715Y-137278009D01*
X182657762Y-137279452D01*
X182564076Y-137304554D01*
X182436112Y-137338842D01*
X182224123Y-137426650D01*
X182224109Y-137426657D01*
X182025382Y-137541392D01*
X181843338Y-137681081D01*
X181681081Y-137843338D01*
X181541392Y-138025382D01*
X181426657Y-138224109D01*
X181426650Y-138224123D01*
X181338842Y-138436112D01*
X181338842Y-138436113D01*
X181288231Y-138625000D01*
X181279453Y-138657759D01*
X181279451Y-138657770D01*
X181249500Y-138885258D01*
X141890500Y-138885258D01*
X141890499Y-137727128D01*
X141884091Y-137667517D01*
X141882810Y-137664083D01*
X141833797Y-137532671D01*
X141833793Y-137532664D01*
X141747547Y-137417455D01*
X141747544Y-137417452D01*
X141632335Y-137331206D01*
X141632328Y-137331202D01*
X141497482Y-137280908D01*
X141497483Y-137280908D01*
X141437883Y-137274501D01*
X141437881Y-137274500D01*
X141437873Y-137274500D01*
X141437864Y-137274500D01*
X139642129Y-137274500D01*
X139642123Y-137274501D01*
X139582516Y-137280908D01*
X139447671Y-137331202D01*
X139447664Y-137331206D01*
X139332455Y-137417452D01*
X139332452Y-137417455D01*
X139246206Y-137532664D01*
X139246203Y-137532669D01*
X139197189Y-137664083D01*
X139155317Y-137720016D01*
X139089853Y-137744433D01*
X139021580Y-137729581D01*
X138993326Y-137708430D01*
X138871402Y-137586506D01*
X138871395Y-137586501D01*
X138677834Y-137450967D01*
X138677830Y-137450965D01*
X138625686Y-137426650D01*
X138463663Y-137351097D01*
X138463659Y-137351096D01*
X138463655Y-137351094D01*
X138235413Y-137289938D01*
X138235403Y-137289936D01*
X138000001Y-137269341D01*
X137999999Y-137269341D01*
X137764596Y-137289936D01*
X137764586Y-137289938D01*
X137536344Y-137351094D01*
X137536335Y-137351098D01*
X137322171Y-137450964D01*
X137322169Y-137450965D01*
X137128597Y-137586505D01*
X136961505Y-137753597D01*
X136825965Y-137947169D01*
X136825964Y-137947171D01*
X136726098Y-138161335D01*
X136726094Y-138161344D01*
X136664938Y-138389586D01*
X136664936Y-138389596D01*
X136644341Y-138624999D01*
X134711769Y-138624999D01*
X134661158Y-138436113D01*
X134573344Y-138224112D01*
X134458611Y-138025388D01*
X134458608Y-138025385D01*
X134458607Y-138025382D01*
X134318918Y-137843338D01*
X134318911Y-137843330D01*
X134156670Y-137681089D01*
X134156661Y-137681081D01*
X133974617Y-137541392D01*
X133775890Y-137426657D01*
X133775876Y-137426650D01*
X133563887Y-137338842D01*
X133535374Y-137331202D01*
X133342238Y-137279452D01*
X133304215Y-137274446D01*
X133114741Y-137249500D01*
X133114734Y-137249500D01*
X132885266Y-137249500D01*
X132885258Y-137249500D01*
X132668715Y-137278009D01*
X132657762Y-137279452D01*
X132564076Y-137304554D01*
X132436112Y-137338842D01*
X132224123Y-137426650D01*
X132224109Y-137426657D01*
X132025382Y-137541392D01*
X131843338Y-137681081D01*
X131681081Y-137843338D01*
X131541392Y-138025382D01*
X131426657Y-138224109D01*
X131426650Y-138224123D01*
X131338842Y-138436112D01*
X131338842Y-138436113D01*
X131288231Y-138625000D01*
X131279453Y-138657759D01*
X131279451Y-138657770D01*
X131249500Y-138885258D01*
X130500500Y-138885258D01*
X130500500Y-128552135D01*
X138499500Y-128552135D01*
X138499500Y-129647870D01*
X138499501Y-129647876D01*
X138505908Y-129707483D01*
X138556202Y-129842328D01*
X138556206Y-129842335D01*
X138642452Y-129957544D01*
X138642455Y-129957547D01*
X138757664Y-130043793D01*
X138757671Y-130043797D01*
X138892517Y-130094091D01*
X138892516Y-130094091D01*
X138899444Y-130094835D01*
X138952127Y-130100500D01*
X140747872Y-130100499D01*
X140807483Y-130094091D01*
X140942331Y-130043796D01*
X141057546Y-129957546D01*
X141143796Y-129842331D01*
X141147960Y-129831165D01*
X141189829Y-129775234D01*
X141255293Y-129750816D01*
X141264141Y-129750500D01*
X144735859Y-129750500D01*
X144802898Y-129770185D01*
X144848653Y-129822989D01*
X144852030Y-129831140D01*
X144856204Y-129842331D01*
X144856205Y-129842332D01*
X144856206Y-129842335D01*
X144942452Y-129957544D01*
X144942455Y-129957547D01*
X145057664Y-130043793D01*
X145057671Y-130043797D01*
X145192517Y-130094091D01*
X145192516Y-130094091D01*
X145199444Y-130094835D01*
X145252127Y-130100500D01*
X147047872Y-130100499D01*
X147107483Y-130094091D01*
X147242331Y-130043796D01*
X147357546Y-129957546D01*
X147443796Y-129842331D01*
X147447960Y-129831165D01*
X147489829Y-129775234D01*
X147555293Y-129750816D01*
X147564141Y-129750500D01*
X150464071Y-129750500D01*
X150548615Y-129733682D01*
X150589744Y-129725501D01*
X150708127Y-129676465D01*
X150814669Y-129605277D01*
X151702984Y-128716962D01*
X151764307Y-128683477D01*
X151833998Y-128688461D01*
X151889932Y-128730333D01*
X151914349Y-128795797D01*
X151913986Y-128817605D01*
X151894815Y-128999999D01*
X151913503Y-129177805D01*
X151913504Y-129177807D01*
X151968747Y-129347829D01*
X151968750Y-129347835D01*
X152058141Y-129502665D01*
X152099812Y-129548946D01*
X152177764Y-129635521D01*
X152177767Y-129635523D01*
X152177770Y-129635526D01*
X152322407Y-129740612D01*
X152485733Y-129813329D01*
X152660609Y-129850500D01*
X152660610Y-129850500D01*
X152839389Y-129850500D01*
X152839391Y-129850500D01*
X153014267Y-129813329D01*
X153131306Y-129761219D01*
X153181741Y-129750500D01*
X153435859Y-129750500D01*
X153502898Y-129770185D01*
X153548653Y-129822989D01*
X153552030Y-129831140D01*
X153556204Y-129842331D01*
X153556205Y-129842332D01*
X153556206Y-129842335D01*
X153642452Y-129957544D01*
X153642455Y-129957547D01*
X153757664Y-130043793D01*
X153757671Y-130043797D01*
X153892517Y-130094091D01*
X153892516Y-130094091D01*
X153899444Y-130094835D01*
X153952127Y-130100500D01*
X155747872Y-130100499D01*
X155807483Y-130094091D01*
X155942331Y-130043796D01*
X156057546Y-129957546D01*
X156143796Y-129842331D01*
X156147960Y-129831165D01*
X156189829Y-129775234D01*
X156255293Y-129750816D01*
X156264141Y-129750500D01*
X159735859Y-129750500D01*
X159802898Y-129770185D01*
X159848653Y-129822989D01*
X159852030Y-129831140D01*
X159856204Y-129842331D01*
X159856205Y-129842332D01*
X159856206Y-129842335D01*
X159942452Y-129957544D01*
X159942455Y-129957547D01*
X160057664Y-130043793D01*
X160057671Y-130043797D01*
X160192517Y-130094091D01*
X160192516Y-130094091D01*
X160199444Y-130094835D01*
X160252127Y-130100500D01*
X162047872Y-130100499D01*
X162107483Y-130094091D01*
X162242331Y-130043796D01*
X162357546Y-129957546D01*
X162443796Y-129842331D01*
X162494091Y-129707483D01*
X162500500Y-129647873D01*
X162500499Y-128552128D01*
X162494091Y-128492517D01*
X162472616Y-128434940D01*
X162443797Y-128357671D01*
X162443793Y-128357664D01*
X162357547Y-128242455D01*
X162357544Y-128242452D01*
X162242335Y-128156206D01*
X162242328Y-128156202D01*
X162107482Y-128105908D01*
X162107483Y-128105908D01*
X162047883Y-128099501D01*
X162047881Y-128099500D01*
X162047873Y-128099500D01*
X162047864Y-128099500D01*
X160252129Y-128099500D01*
X160252123Y-128099501D01*
X160192516Y-128105908D01*
X160057671Y-128156202D01*
X160057664Y-128156206D01*
X159942455Y-128242452D01*
X159942452Y-128242455D01*
X159856206Y-128357664D01*
X159856204Y-128357668D01*
X159856204Y-128357669D01*
X159852039Y-128368834D01*
X159810171Y-128424766D01*
X159744707Y-128449184D01*
X159735859Y-128449500D01*
X156264141Y-128449500D01*
X156197102Y-128429815D01*
X156151347Y-128377011D01*
X156147969Y-128368859D01*
X156143796Y-128357669D01*
X156143793Y-128357665D01*
X156143793Y-128357664D01*
X156057547Y-128242455D01*
X156057544Y-128242452D01*
X155942335Y-128156206D01*
X155942328Y-128156202D01*
X155807482Y-128105908D01*
X155807483Y-128105908D01*
X155747883Y-128099501D01*
X155747881Y-128099500D01*
X155747873Y-128099500D01*
X155747864Y-128099500D01*
X153952129Y-128099500D01*
X153952123Y-128099501D01*
X153892516Y-128105908D01*
X153757671Y-128156202D01*
X153757664Y-128156206D01*
X153642455Y-128242452D01*
X153642452Y-128242455D01*
X153556205Y-128357665D01*
X153551956Y-128365449D01*
X153550018Y-128364391D01*
X153515470Y-128410531D01*
X153450003Y-128434940D01*
X153381732Y-128420080D01*
X153349021Y-128394228D01*
X153322231Y-128364475D01*
X153322116Y-128364391D01*
X153177593Y-128259388D01*
X153014267Y-128186671D01*
X153014265Y-128186670D01*
X152870921Y-128156202D01*
X152839391Y-128149500D01*
X152660609Y-128149500D01*
X152660607Y-128149500D01*
X152574596Y-128167782D01*
X152504929Y-128162466D01*
X152449196Y-128120328D01*
X152425091Y-128054748D01*
X152440268Y-127986547D01*
X152461135Y-127958811D01*
X155090755Y-125329191D01*
X158288092Y-122131853D01*
X158349413Y-122098370D01*
X158349477Y-122098356D01*
X158514267Y-122063329D01*
X158677593Y-121990612D01*
X158822230Y-121885526D01*
X158941859Y-121752665D01*
X159031250Y-121597835D01*
X159086497Y-121427803D01*
X159105185Y-121250000D01*
X159086497Y-121072197D01*
X159031250Y-120902165D01*
X158941859Y-120747335D01*
X158895003Y-120695296D01*
X158822235Y-120614478D01*
X158822232Y-120614476D01*
X158822231Y-120614475D01*
X158822230Y-120614474D01*
X158677593Y-120509388D01*
X158514267Y-120436671D01*
X158514265Y-120436670D01*
X158386594Y-120409533D01*
X158339391Y-120399500D01*
X158160609Y-120399500D01*
X158129954Y-120406015D01*
X157985733Y-120436670D01*
X157985728Y-120436672D01*
X157822408Y-120509387D01*
X157677768Y-120614475D01*
X157558140Y-120747336D01*
X157468750Y-120902164D01*
X157468747Y-120902170D01*
X157413504Y-121072192D01*
X157413503Y-121072194D01*
X157407011Y-121133963D01*
X157380425Y-121198577D01*
X157371371Y-121208681D01*
X150166873Y-128413181D01*
X150105550Y-128446666D01*
X150079192Y-128449500D01*
X147564141Y-128449500D01*
X147497102Y-128429815D01*
X147451347Y-128377011D01*
X147447969Y-128368859D01*
X147443796Y-128357669D01*
X147443793Y-128357665D01*
X147443793Y-128357664D01*
X147357547Y-128242455D01*
X147357544Y-128242452D01*
X147242335Y-128156206D01*
X147242328Y-128156202D01*
X147107482Y-128105908D01*
X147107483Y-128105908D01*
X147047883Y-128099501D01*
X147047881Y-128099500D01*
X147047873Y-128099500D01*
X147047864Y-128099500D01*
X145252129Y-128099500D01*
X145252123Y-128099501D01*
X145192516Y-128105908D01*
X145057671Y-128156202D01*
X145057664Y-128156206D01*
X144942455Y-128242452D01*
X144942452Y-128242455D01*
X144856206Y-128357664D01*
X144856204Y-128357668D01*
X144856204Y-128357669D01*
X144852039Y-128368834D01*
X144810171Y-128424766D01*
X144744707Y-128449184D01*
X144735859Y-128449500D01*
X141264141Y-128449500D01*
X141197102Y-128429815D01*
X141151347Y-128377011D01*
X141147969Y-128368859D01*
X141143796Y-128357669D01*
X141143793Y-128357665D01*
X141143793Y-128357664D01*
X141057547Y-128242455D01*
X141057544Y-128242452D01*
X140942335Y-128156206D01*
X140942328Y-128156202D01*
X140807482Y-128105908D01*
X140807483Y-128105908D01*
X140747883Y-128099501D01*
X140747881Y-128099500D01*
X140747873Y-128099500D01*
X140747864Y-128099500D01*
X138952129Y-128099500D01*
X138952123Y-128099501D01*
X138892516Y-128105908D01*
X138757671Y-128156202D01*
X138757664Y-128156206D01*
X138642455Y-128242452D01*
X138642452Y-128242455D01*
X138556206Y-128357664D01*
X138556202Y-128357671D01*
X138505908Y-128492517D01*
X138499501Y-128552116D01*
X138499501Y-128552123D01*
X138499500Y-128552135D01*
X130500500Y-128552135D01*
X130500500Y-113552135D01*
X138499500Y-113552135D01*
X138499500Y-114647870D01*
X138499501Y-114647876D01*
X138505908Y-114707483D01*
X138556202Y-114842328D01*
X138556206Y-114842335D01*
X138642452Y-114957544D01*
X138642455Y-114957547D01*
X138757664Y-115043793D01*
X138757671Y-115043797D01*
X138892517Y-115094091D01*
X138892516Y-115094091D01*
X138899444Y-115094835D01*
X138952127Y-115100500D01*
X140747872Y-115100499D01*
X140807483Y-115094091D01*
X140942331Y-115043796D01*
X141057546Y-114957546D01*
X141143796Y-114842331D01*
X141147960Y-114831165D01*
X141189829Y-114775234D01*
X141255293Y-114750816D01*
X141264141Y-114750500D01*
X144735859Y-114750500D01*
X144802898Y-114770185D01*
X144848653Y-114822989D01*
X144852030Y-114831140D01*
X144856204Y-114842331D01*
X144856205Y-114842332D01*
X144856206Y-114842335D01*
X144942452Y-114957544D01*
X144942455Y-114957547D01*
X145057664Y-115043793D01*
X145057671Y-115043797D01*
X145192517Y-115094091D01*
X145192516Y-115094091D01*
X145199444Y-115094835D01*
X145252127Y-115100500D01*
X147047872Y-115100499D01*
X147107483Y-115094091D01*
X147242331Y-115043796D01*
X147357546Y-114957546D01*
X147443796Y-114842331D01*
X147447960Y-114831165D01*
X147489829Y-114775234D01*
X147555293Y-114750816D01*
X147564141Y-114750500D01*
X153039071Y-114750500D01*
X153123615Y-114733682D01*
X153164744Y-114725501D01*
X153283127Y-114676465D01*
X153321898Y-114650559D01*
X153388573Y-114629681D01*
X153455954Y-114648165D01*
X153502644Y-114700143D01*
X153506970Y-114710328D01*
X153556202Y-114842328D01*
X153556206Y-114842335D01*
X153642452Y-114957544D01*
X153642455Y-114957547D01*
X153757664Y-115043793D01*
X153757671Y-115043797D01*
X153892517Y-115094091D01*
X153892516Y-115094091D01*
X153899444Y-115094835D01*
X153952127Y-115100500D01*
X155747872Y-115100499D01*
X155807483Y-115094091D01*
X155942331Y-115043796D01*
X156057546Y-114957546D01*
X156143796Y-114842331D01*
X156147960Y-114831165D01*
X156189829Y-114775234D01*
X156255293Y-114750816D01*
X156264141Y-114750500D01*
X159735859Y-114750500D01*
X159802898Y-114770185D01*
X159848653Y-114822989D01*
X159852030Y-114831140D01*
X159856204Y-114842331D01*
X159856205Y-114842332D01*
X159856206Y-114842335D01*
X159942452Y-114957544D01*
X159942455Y-114957547D01*
X160057664Y-115043793D01*
X160057671Y-115043797D01*
X160192517Y-115094091D01*
X160192516Y-115094091D01*
X160199444Y-115094835D01*
X160252127Y-115100500D01*
X162047872Y-115100499D01*
X162107483Y-115094091D01*
X162242331Y-115043796D01*
X162357546Y-114957546D01*
X162443796Y-114842331D01*
X162494091Y-114707483D01*
X162500500Y-114647873D01*
X162500499Y-113552128D01*
X162494091Y-113492517D01*
X162443796Y-113357669D01*
X162443795Y-113357668D01*
X162443793Y-113357664D01*
X162357547Y-113242455D01*
X162357544Y-113242452D01*
X162242335Y-113156206D01*
X162242328Y-113156202D01*
X162107482Y-113105908D01*
X162107483Y-113105908D01*
X162047883Y-113099501D01*
X162047881Y-113099500D01*
X162047873Y-113099500D01*
X162047865Y-113099500D01*
X161924500Y-113099500D01*
X161857461Y-113079815D01*
X161811706Y-113027011D01*
X161800500Y-112975500D01*
X161800500Y-107970807D01*
X161820185Y-107903768D01*
X161836814Y-107883131D01*
X164687821Y-105032123D01*
X164749142Y-104998640D01*
X164818834Y-105003624D01*
X164874767Y-105045496D01*
X164899184Y-105110960D01*
X164899500Y-105119804D01*
X164899500Y-105175000D01*
X164899501Y-105175019D01*
X164910000Y-105277796D01*
X164910001Y-105277799D01*
X164965185Y-105444331D01*
X164965187Y-105444336D01*
X164993728Y-105490608D01*
X165057288Y-105593656D01*
X165181344Y-105717712D01*
X165330666Y-105809814D01*
X165497203Y-105864999D01*
X165599991Y-105875500D01*
X165904191Y-105875499D01*
X165971230Y-105895183D01*
X165991872Y-105911818D01*
X166713181Y-106633127D01*
X166746666Y-106694450D01*
X166749500Y-106720808D01*
X166749500Y-106729557D01*
X166729815Y-106796596D01*
X166677011Y-106842351D01*
X166607853Y-106852295D01*
X166573106Y-106841944D01*
X166569340Y-106840188D01*
X166535492Y-106828972D01*
X166402797Y-106785001D01*
X166402795Y-106785000D01*
X166300010Y-106774500D01*
X165599998Y-106774500D01*
X165599980Y-106774501D01*
X165497203Y-106785000D01*
X165497200Y-106785001D01*
X165330668Y-106840185D01*
X165330663Y-106840187D01*
X165181342Y-106932289D01*
X165052181Y-107061451D01*
X165050294Y-107059564D01*
X165003375Y-107092788D01*
X164963132Y-107099500D01*
X164841911Y-107099500D01*
X164774872Y-107079815D01*
X164769025Y-107075818D01*
X164712756Y-107034936D01*
X164677593Y-107009388D01*
X164514267Y-106936671D01*
X164514265Y-106936670D01*
X164386594Y-106909533D01*
X164339391Y-106899500D01*
X164160609Y-106899500D01*
X164129954Y-106906015D01*
X163985733Y-106936670D01*
X163985728Y-106936672D01*
X163822408Y-107009387D01*
X163677768Y-107114475D01*
X163558140Y-107247336D01*
X163468750Y-107402164D01*
X163468747Y-107402170D01*
X163413504Y-107572192D01*
X163413503Y-107572194D01*
X163394815Y-107750000D01*
X163413503Y-107927805D01*
X163413504Y-107927807D01*
X163468747Y-108097829D01*
X163468750Y-108097835D01*
X163558141Y-108252665D01*
X163580769Y-108277796D01*
X163677764Y-108385521D01*
X163677767Y-108385523D01*
X163677770Y-108385526D01*
X163822407Y-108490612D01*
X163985733Y-108563329D01*
X164160609Y-108600500D01*
X164160610Y-108600500D01*
X164339389Y-108600500D01*
X164339391Y-108600500D01*
X164514267Y-108563329D01*
X164677593Y-108490612D01*
X164769025Y-108424182D01*
X164834831Y-108400702D01*
X164841911Y-108400500D01*
X164868942Y-108400500D01*
X164935981Y-108420185D01*
X164974479Y-108459401D01*
X165057288Y-108593656D01*
X165181344Y-108717712D01*
X165330666Y-108809814D01*
X165497203Y-108864999D01*
X165599991Y-108875500D01*
X166300008Y-108875499D01*
X166300016Y-108875498D01*
X166300019Y-108875498D01*
X166360722Y-108869297D01*
X166402797Y-108864999D01*
X166569334Y-108809814D01*
X166569343Y-108809808D01*
X166575882Y-108806760D01*
X166576551Y-108808195D01*
X166635682Y-108792010D01*
X166702348Y-108812926D01*
X166747122Y-108866564D01*
X166755015Y-108891797D01*
X166774497Y-108989738D01*
X166774499Y-108989744D01*
X166823534Y-109108125D01*
X166894726Y-109214673D01*
X167935326Y-110255273D01*
X167935329Y-110255275D01*
X167935331Y-110255277D01*
X168041873Y-110326465D01*
X168160256Y-110375501D01*
X168160260Y-110375501D01*
X168160261Y-110375502D01*
X168285928Y-110400500D01*
X168285931Y-110400500D01*
X169475500Y-110400500D01*
X169542539Y-110420185D01*
X169588294Y-110472989D01*
X169599500Y-110524500D01*
X169599500Y-112975500D01*
X169579815Y-113042539D01*
X169527011Y-113088294D01*
X169475500Y-113099500D01*
X169072129Y-113099500D01*
X169072123Y-113099501D01*
X169012516Y-113105908D01*
X168877671Y-113156202D01*
X168877664Y-113156206D01*
X168762455Y-113242452D01*
X168762452Y-113242455D01*
X168676206Y-113357664D01*
X168676202Y-113357671D01*
X168625908Y-113492517D01*
X168619501Y-113552116D01*
X168619501Y-113552123D01*
X168619500Y-113552135D01*
X168619500Y-114647870D01*
X168619501Y-114647876D01*
X168625908Y-114707483D01*
X168676202Y-114842328D01*
X168676206Y-114842335D01*
X168762452Y-114957544D01*
X168762455Y-114957547D01*
X168877664Y-115043793D01*
X168877671Y-115043797D01*
X169012517Y-115094091D01*
X169012516Y-115094091D01*
X169019444Y-115094835D01*
X169072127Y-115100500D01*
X170867872Y-115100499D01*
X170927483Y-115094091D01*
X171062331Y-115043796D01*
X171177546Y-114957546D01*
X171263796Y-114842331D01*
X171267960Y-114831165D01*
X171309829Y-114775234D01*
X171375293Y-114750816D01*
X171384141Y-114750500D01*
X174855859Y-114750500D01*
X174922898Y-114770185D01*
X174968653Y-114822989D01*
X174972030Y-114831140D01*
X174976204Y-114842331D01*
X174976205Y-114842332D01*
X174976206Y-114842335D01*
X175062452Y-114957544D01*
X175062455Y-114957547D01*
X175177664Y-115043793D01*
X175177671Y-115043797D01*
X175312517Y-115094091D01*
X175312516Y-115094091D01*
X175319444Y-115094835D01*
X175372127Y-115100500D01*
X177167872Y-115100499D01*
X177227483Y-115094091D01*
X177362331Y-115043796D01*
X177477546Y-114957546D01*
X177563796Y-114842331D01*
X177614091Y-114707483D01*
X177620500Y-114647873D01*
X177620499Y-113552128D01*
X177614091Y-113492517D01*
X177563796Y-113357669D01*
X177563795Y-113357668D01*
X177563793Y-113357664D01*
X177477547Y-113242455D01*
X177477544Y-113242452D01*
X177362335Y-113156206D01*
X177362328Y-113156202D01*
X177227482Y-113105908D01*
X177227483Y-113105908D01*
X177167883Y-113099501D01*
X177167881Y-113099500D01*
X177167873Y-113099500D01*
X177167864Y-113099500D01*
X175372129Y-113099500D01*
X175372123Y-113099501D01*
X175312516Y-113105908D01*
X175177671Y-113156202D01*
X175177664Y-113156206D01*
X175062455Y-113242452D01*
X175062452Y-113242455D01*
X174976206Y-113357664D01*
X174976204Y-113357668D01*
X174976204Y-113357669D01*
X174972039Y-113368834D01*
X174930171Y-113424766D01*
X174864707Y-113449184D01*
X174855859Y-113449500D01*
X171384141Y-113449500D01*
X171317102Y-113429815D01*
X171271347Y-113377011D01*
X171267969Y-113368859D01*
X171263796Y-113357669D01*
X171263793Y-113357665D01*
X171263793Y-113357664D01*
X171177547Y-113242455D01*
X171177544Y-113242452D01*
X171062335Y-113156206D01*
X171062328Y-113156202D01*
X170981167Y-113125931D01*
X170925233Y-113084060D01*
X170900816Y-113018595D01*
X170900500Y-113009749D01*
X170900500Y-108736230D01*
X170920185Y-108669191D01*
X170972989Y-108623436D01*
X171042147Y-108613492D01*
X171105703Y-108642517D01*
X171112181Y-108648549D01*
X171181344Y-108717712D01*
X171330666Y-108809814D01*
X171497203Y-108864999D01*
X171599991Y-108875500D01*
X171779190Y-108875499D01*
X171846230Y-108895183D01*
X171866872Y-108911818D01*
X173185325Y-110230272D01*
X173185326Y-110230273D01*
X173185329Y-110230275D01*
X173185331Y-110230277D01*
X173291873Y-110301465D01*
X173410256Y-110350501D01*
X173410260Y-110350501D01*
X173410261Y-110350502D01*
X173535928Y-110375500D01*
X173535931Y-110375500D01*
X178825500Y-110375500D01*
X178892539Y-110395185D01*
X178938294Y-110447989D01*
X178949500Y-110499500D01*
X178949500Y-125329191D01*
X178929815Y-125396230D01*
X178913181Y-125416872D01*
X176266871Y-128063181D01*
X176205548Y-128096666D01*
X176179190Y-128099500D01*
X175252129Y-128099500D01*
X175252123Y-128099501D01*
X175192516Y-128105908D01*
X175057671Y-128156202D01*
X175057664Y-128156206D01*
X174942455Y-128242452D01*
X174942452Y-128242455D01*
X174856206Y-128357664D01*
X174856204Y-128357668D01*
X174856204Y-128357669D01*
X174852039Y-128368834D01*
X174810171Y-128424766D01*
X174744707Y-128449184D01*
X174735859Y-128449500D01*
X171264141Y-128449500D01*
X171197102Y-128429815D01*
X171151347Y-128377011D01*
X171147969Y-128368859D01*
X171143796Y-128357669D01*
X171143793Y-128357665D01*
X171143793Y-128357664D01*
X171057547Y-128242455D01*
X171057544Y-128242452D01*
X170942335Y-128156206D01*
X170942328Y-128156202D01*
X170807482Y-128105908D01*
X170807483Y-128105908D01*
X170747883Y-128099501D01*
X170747881Y-128099500D01*
X170747873Y-128099500D01*
X170747864Y-128099500D01*
X168952129Y-128099500D01*
X168952123Y-128099501D01*
X168892516Y-128105908D01*
X168757671Y-128156202D01*
X168757664Y-128156206D01*
X168642455Y-128242452D01*
X168642452Y-128242455D01*
X168556206Y-128357664D01*
X168556202Y-128357671D01*
X168505908Y-128492517D01*
X168499501Y-128552116D01*
X168499501Y-128552123D01*
X168499500Y-128552135D01*
X168499500Y-129647870D01*
X168499501Y-129647876D01*
X168505908Y-129707483D01*
X168556202Y-129842328D01*
X168556206Y-129842335D01*
X168642452Y-129957544D01*
X168642455Y-129957547D01*
X168757664Y-130043793D01*
X168757671Y-130043797D01*
X168892517Y-130094091D01*
X168892516Y-130094091D01*
X168899444Y-130094835D01*
X168952127Y-130100500D01*
X170747872Y-130100499D01*
X170807483Y-130094091D01*
X170942331Y-130043796D01*
X171057546Y-129957546D01*
X171143796Y-129842331D01*
X171147960Y-129831165D01*
X171189829Y-129775234D01*
X171255293Y-129750816D01*
X171264141Y-129750500D01*
X174735859Y-129750500D01*
X174802898Y-129770185D01*
X174848653Y-129822989D01*
X174852030Y-129831140D01*
X174856204Y-129842331D01*
X174856205Y-129842332D01*
X174856206Y-129842335D01*
X174942452Y-129957544D01*
X174942455Y-129957547D01*
X175057664Y-130043793D01*
X175057671Y-130043797D01*
X175192517Y-130094091D01*
X175192516Y-130094091D01*
X175199444Y-130094835D01*
X175252127Y-130100500D01*
X177047872Y-130100499D01*
X177107483Y-130094091D01*
X177242331Y-130043796D01*
X177357546Y-129957546D01*
X177443796Y-129842331D01*
X177494091Y-129707483D01*
X177500500Y-129647873D01*
X177500499Y-128720806D01*
X177520183Y-128653768D01*
X177536813Y-128633131D01*
X180105277Y-126064669D01*
X180176465Y-125958127D01*
X180225501Y-125839743D01*
X180250500Y-125714069D01*
X180250500Y-109660931D01*
X180250500Y-109660928D01*
X180225502Y-109535261D01*
X180225501Y-109535260D01*
X180225501Y-109535256D01*
X180176465Y-109416873D01*
X180105277Y-109310331D01*
X180105275Y-109310329D01*
X180105273Y-109310326D01*
X180105272Y-109310325D01*
X179036818Y-108241872D01*
X179003333Y-108180549D01*
X179000499Y-108154200D01*
X179000499Y-107474992D01*
X178989999Y-107372203D01*
X178934814Y-107205666D01*
X178842712Y-107056344D01*
X178718656Y-106932288D01*
X178572844Y-106842351D01*
X178569336Y-106840187D01*
X178569331Y-106840185D01*
X178535492Y-106828972D01*
X178402797Y-106785001D01*
X178402795Y-106785000D01*
X178300010Y-106774500D01*
X177599998Y-106774500D01*
X177599980Y-106774501D01*
X177497203Y-106785000D01*
X177497200Y-106785001D01*
X177330668Y-106840185D01*
X177330663Y-106840187D01*
X177181342Y-106932289D01*
X177057289Y-107056342D01*
X176965187Y-107205663D01*
X176965186Y-107205666D01*
X176910001Y-107372203D01*
X176910001Y-107372204D01*
X176910000Y-107372204D01*
X176899500Y-107474983D01*
X176899500Y-108175001D01*
X176899501Y-108175019D01*
X176910000Y-108277796D01*
X176910001Y-108277799D01*
X176965185Y-108444331D01*
X176965187Y-108444336D01*
X176993729Y-108490610D01*
X177057288Y-108593656D01*
X177181344Y-108717712D01*
X177330666Y-108809814D01*
X177400016Y-108832794D01*
X177457461Y-108872567D01*
X177484284Y-108937083D01*
X177471969Y-109005858D01*
X177424426Y-109057058D01*
X177361012Y-109074500D01*
X175338989Y-109074500D01*
X175271950Y-109054815D01*
X175226195Y-109002011D01*
X175216251Y-108932853D01*
X175245276Y-108869297D01*
X175299982Y-108832794D01*
X175369334Y-108809814D01*
X175518656Y-108717712D01*
X175642712Y-108593656D01*
X175734814Y-108444334D01*
X175789999Y-108277797D01*
X175800500Y-108175009D01*
X175800499Y-107474992D01*
X175789999Y-107372203D01*
X175756794Y-107271996D01*
X175750500Y-107232992D01*
X175750500Y-105500095D01*
X175770185Y-105433056D01*
X175822989Y-105387301D01*
X175892147Y-105377357D01*
X175947386Y-105399778D01*
X176072401Y-105490608D01*
X176072402Y-105490609D01*
X176072404Y-105490610D01*
X176072407Y-105490612D01*
X176235733Y-105563329D01*
X176410609Y-105600500D01*
X176410610Y-105600500D01*
X176589389Y-105600500D01*
X176589391Y-105600500D01*
X176764267Y-105563329D01*
X176880429Y-105511610D01*
X176949676Y-105502326D01*
X177012953Y-105531954D01*
X177036400Y-105559792D01*
X177057287Y-105593655D01*
X177057288Y-105593656D01*
X177181344Y-105717712D01*
X177330666Y-105809814D01*
X177497203Y-105864999D01*
X177599991Y-105875500D01*
X178300008Y-105875499D01*
X178300016Y-105875498D01*
X178300019Y-105875498D01*
X178356302Y-105869748D01*
X178402797Y-105864999D01*
X178569334Y-105809814D01*
X178718656Y-105717712D01*
X178842712Y-105593656D01*
X178934814Y-105444334D01*
X178989999Y-105277797D01*
X179000500Y-105175009D01*
X179000499Y-104474992D01*
X178989999Y-104372203D01*
X178934814Y-104205666D01*
X178842712Y-104056344D01*
X178718656Y-103932288D01*
X178569334Y-103840186D01*
X178402797Y-103785001D01*
X178402795Y-103785000D01*
X178300010Y-103774500D01*
X177599998Y-103774500D01*
X177599980Y-103774501D01*
X177497203Y-103785000D01*
X177497200Y-103785001D01*
X177330668Y-103840185D01*
X177330663Y-103840187D01*
X177181342Y-103932289D01*
X177104793Y-104008837D01*
X177043470Y-104042322D01*
X176973778Y-104037336D01*
X176944229Y-104021474D01*
X176927596Y-104009390D01*
X176927597Y-104009390D01*
X176906291Y-103999904D01*
X176764267Y-103936671D01*
X176764265Y-103936670D01*
X176619538Y-103905908D01*
X176589391Y-103899500D01*
X176410609Y-103899500D01*
X176380462Y-103905908D01*
X176235733Y-103936670D01*
X176235728Y-103936672D01*
X176072408Y-104009388D01*
X176072403Y-104009390D01*
X175947385Y-104100222D01*
X175881579Y-104123702D01*
X175813525Y-104107877D01*
X175764830Y-104057771D01*
X175750500Y-103999904D01*
X175750500Y-102500095D01*
X175770185Y-102433056D01*
X175822989Y-102387301D01*
X175892147Y-102377357D01*
X175947386Y-102399778D01*
X176072401Y-102490608D01*
X176072402Y-102490609D01*
X176072404Y-102490610D01*
X176072407Y-102490612D01*
X176235733Y-102563329D01*
X176410609Y-102600500D01*
X176410610Y-102600500D01*
X176589389Y-102600500D01*
X176589391Y-102600500D01*
X176764267Y-102563329D01*
X176880429Y-102511610D01*
X176949676Y-102502326D01*
X177012953Y-102531954D01*
X177036400Y-102559792D01*
X177038582Y-102563329D01*
X177057288Y-102593656D01*
X177181344Y-102717712D01*
X177330666Y-102809814D01*
X177497203Y-102864999D01*
X177599991Y-102875500D01*
X178300008Y-102875499D01*
X178300016Y-102875498D01*
X178300019Y-102875498D01*
X178356302Y-102869748D01*
X178402797Y-102864999D01*
X178569334Y-102809814D01*
X178718656Y-102717712D01*
X178842712Y-102593656D01*
X178934814Y-102444334D01*
X178989999Y-102277797D01*
X179000500Y-102175009D01*
X179000499Y-101474992D01*
X179000498Y-101474983D01*
X179699500Y-101474983D01*
X179699500Y-102175001D01*
X179699501Y-102175019D01*
X179710000Y-102277796D01*
X179710001Y-102277799D01*
X179765185Y-102444331D01*
X179765187Y-102444336D01*
X179793728Y-102490608D01*
X179857288Y-102593656D01*
X179981344Y-102717712D01*
X180130666Y-102809814D01*
X180164500Y-102821025D01*
X180221947Y-102860796D01*
X180248772Y-102925311D01*
X180249500Y-102938732D01*
X180249500Y-103711267D01*
X180229815Y-103778306D01*
X180177011Y-103824061D01*
X180164506Y-103828972D01*
X180130671Y-103840184D01*
X180130663Y-103840187D01*
X179981342Y-103932289D01*
X179857289Y-104056342D01*
X179765187Y-104205663D01*
X179765185Y-104205668D01*
X179750728Y-104249298D01*
X179710001Y-104372203D01*
X179710001Y-104372204D01*
X179710000Y-104372204D01*
X179699500Y-104474983D01*
X179699500Y-105175001D01*
X179699501Y-105175019D01*
X179710000Y-105277796D01*
X179710001Y-105277799D01*
X179765185Y-105444331D01*
X179765187Y-105444336D01*
X179793728Y-105490608D01*
X179857288Y-105593656D01*
X179981344Y-105717712D01*
X180130666Y-105809814D01*
X180164500Y-105821025D01*
X180221947Y-105860796D01*
X180248772Y-105925311D01*
X180249500Y-105938732D01*
X180249500Y-106711267D01*
X180229815Y-106778306D01*
X180177011Y-106824061D01*
X180164506Y-106828972D01*
X180130671Y-106840184D01*
X180130663Y-106840187D01*
X179981342Y-106932289D01*
X179857289Y-107056342D01*
X179765187Y-107205663D01*
X179765186Y-107205666D01*
X179710001Y-107372203D01*
X179710001Y-107372204D01*
X179710000Y-107372204D01*
X179699500Y-107474983D01*
X179699500Y-108175001D01*
X179699501Y-108175019D01*
X179710000Y-108277796D01*
X179710001Y-108277799D01*
X179765185Y-108444331D01*
X179765187Y-108444336D01*
X179793729Y-108490610D01*
X179857288Y-108593656D01*
X179981344Y-108717712D01*
X180130666Y-108809814D01*
X180297203Y-108864999D01*
X180399991Y-108875500D01*
X181100008Y-108875499D01*
X181100016Y-108875498D01*
X181100019Y-108875498D01*
X181160722Y-108869297D01*
X181202797Y-108864999D01*
X181369334Y-108809814D01*
X181518656Y-108717712D01*
X181642712Y-108593656D01*
X181734814Y-108444334D01*
X181789999Y-108277797D01*
X181800500Y-108175009D01*
X181800499Y-107474992D01*
X181789999Y-107372203D01*
X181756794Y-107271996D01*
X181750500Y-107232992D01*
X181750500Y-105417005D01*
X181756794Y-105378001D01*
X181789999Y-105277797D01*
X181800500Y-105175009D01*
X181800499Y-104474992D01*
X181789999Y-104372203D01*
X181783349Y-104352135D01*
X181756794Y-104271996D01*
X181750500Y-104232992D01*
X181750500Y-102417005D01*
X181756794Y-102378001D01*
X181789999Y-102277797D01*
X181800500Y-102175009D01*
X181800499Y-101474992D01*
X181789999Y-101372203D01*
X181789428Y-101370481D01*
X181756794Y-101271996D01*
X181750500Y-101232992D01*
X181750500Y-100687289D01*
X181770185Y-100620250D01*
X181808529Y-100582295D01*
X181852262Y-100554816D01*
X181979816Y-100427262D01*
X182075789Y-100274522D01*
X182135368Y-100104255D01*
X182140795Y-100056092D01*
X182155565Y-99925003D01*
X182155565Y-99918619D01*
X182155500Y-99917460D01*
X182155500Y-98732547D01*
X182155564Y-98731407D01*
X182155565Y-98724790D01*
X182155205Y-98720882D01*
X182153130Y-98691873D01*
X182150355Y-98653060D01*
X182148693Y-98647402D01*
X182144450Y-98626358D01*
X182135368Y-98545745D01*
X182075789Y-98375478D01*
X181979816Y-98222738D01*
X181852262Y-98095184D01*
X181699523Y-97999211D01*
X181529254Y-97939631D01*
X181529249Y-97939630D01*
X181350004Y-97919435D01*
X181349996Y-97919435D01*
X181170750Y-97939630D01*
X181170745Y-97939631D01*
X181000476Y-97999211D01*
X180847737Y-98095184D01*
X180720184Y-98222737D01*
X180624211Y-98375476D01*
X180564631Y-98545745D01*
X180564630Y-98545749D01*
X180544435Y-98724994D01*
X180544435Y-98731407D01*
X180544500Y-98732547D01*
X180544500Y-99617770D01*
X180524815Y-99684809D01*
X180508181Y-99705451D01*
X180417048Y-99796583D01*
X180402325Y-99818619D01*
X180374054Y-99860931D01*
X180354485Y-99890218D01*
X180334916Y-99919504D01*
X180334912Y-99919511D01*
X180278343Y-100056082D01*
X180278340Y-100056092D01*
X180249500Y-100201079D01*
X180249500Y-100711267D01*
X180229815Y-100778306D01*
X180177011Y-100824061D01*
X180164506Y-100828972D01*
X180130671Y-100840184D01*
X180130663Y-100840187D01*
X179981342Y-100932289D01*
X179857289Y-101056342D01*
X179765187Y-101205663D01*
X179765185Y-101205668D01*
X179749500Y-101253003D01*
X179710001Y-101372203D01*
X179710001Y-101372204D01*
X179710000Y-101372204D01*
X179699500Y-101474983D01*
X179000498Y-101474983D01*
X178989999Y-101372203D01*
X178934814Y-101205666D01*
X178842712Y-101056344D01*
X178718656Y-100932288D01*
X178609404Y-100864901D01*
X178569336Y-100840187D01*
X178569331Y-100840185D01*
X178535492Y-100828972D01*
X178402797Y-100785001D01*
X178402795Y-100785000D01*
X178300010Y-100774500D01*
X177599998Y-100774500D01*
X177599980Y-100774501D01*
X177497203Y-100785000D01*
X177497200Y-100785001D01*
X177330668Y-100840185D01*
X177330663Y-100840187D01*
X177181342Y-100932289D01*
X177104793Y-101008837D01*
X177043470Y-101042322D01*
X176973778Y-101037336D01*
X176944229Y-101021474D01*
X176927596Y-101009390D01*
X176927597Y-101009390D01*
X176906291Y-100999904D01*
X176764267Y-100936671D01*
X176764265Y-100936670D01*
X176608736Y-100903612D01*
X176589391Y-100899500D01*
X176410609Y-100899500D01*
X176391264Y-100903612D01*
X176235733Y-100936670D01*
X176235728Y-100936672D01*
X176072408Y-101009388D01*
X176072403Y-101009390D01*
X175947385Y-101100222D01*
X175881579Y-101123702D01*
X175813525Y-101107877D01*
X175764830Y-101057771D01*
X175750500Y-100999904D01*
X175750500Y-100587289D01*
X175770185Y-100520250D01*
X175808529Y-100482295D01*
X175852262Y-100454816D01*
X175979816Y-100327262D01*
X176075789Y-100174522D01*
X176135368Y-100004255D01*
X176140795Y-99956092D01*
X176155565Y-99825003D01*
X176155565Y-99818619D01*
X176155500Y-99817460D01*
X176155500Y-98632547D01*
X176155564Y-98631407D01*
X176155565Y-98624790D01*
X176155205Y-98620882D01*
X176152662Y-98585330D01*
X176150355Y-98553060D01*
X176148693Y-98547402D01*
X176144450Y-98526358D01*
X176135368Y-98445745D01*
X176075789Y-98275478D01*
X175979816Y-98122738D01*
X175852262Y-97995184D01*
X175763852Y-97939632D01*
X175699523Y-97899211D01*
X175529254Y-97839631D01*
X175529249Y-97839630D01*
X175350004Y-97819435D01*
X175349996Y-97819435D01*
X175170750Y-97839630D01*
X175170745Y-97839631D01*
X175000476Y-97899211D01*
X174847737Y-97995184D01*
X174720184Y-98122737D01*
X174624211Y-98275476D01*
X174564631Y-98445745D01*
X174564630Y-98445749D01*
X174544435Y-98624994D01*
X174544435Y-98631407D01*
X174544500Y-98632547D01*
X174544500Y-99517770D01*
X174524815Y-99584809D01*
X174508181Y-99605451D01*
X174417048Y-99696583D01*
X174411123Y-99705451D01*
X174374054Y-99760931D01*
X174361994Y-99778980D01*
X174334916Y-99819504D01*
X174334912Y-99819511D01*
X174278343Y-99956082D01*
X174278340Y-99956092D01*
X174249500Y-100101079D01*
X174249500Y-100711267D01*
X174229815Y-100778306D01*
X174177011Y-100824061D01*
X174164506Y-100828972D01*
X174130671Y-100840184D01*
X174130663Y-100840187D01*
X173981342Y-100932289D01*
X173857289Y-101056342D01*
X173765187Y-101205663D01*
X173765185Y-101205668D01*
X173749500Y-101253003D01*
X173710001Y-101372203D01*
X173710001Y-101372204D01*
X173710000Y-101372204D01*
X173699500Y-101474983D01*
X173699500Y-102175001D01*
X173699501Y-102175019D01*
X173710000Y-102277796D01*
X173710001Y-102277799D01*
X173765185Y-102444331D01*
X173765187Y-102444336D01*
X173793728Y-102490608D01*
X173857288Y-102593656D01*
X173981344Y-102717712D01*
X174130666Y-102809814D01*
X174164500Y-102821025D01*
X174221947Y-102860796D01*
X174248772Y-102925311D01*
X174249500Y-102938732D01*
X174249500Y-103711267D01*
X174229815Y-103778306D01*
X174177011Y-103824061D01*
X174164506Y-103828972D01*
X174130671Y-103840184D01*
X174130663Y-103840187D01*
X173981342Y-103932289D01*
X173857289Y-104056342D01*
X173765187Y-104205663D01*
X173765185Y-104205668D01*
X173750728Y-104249298D01*
X173710001Y-104372203D01*
X173710001Y-104372204D01*
X173710000Y-104372204D01*
X173699500Y-104474983D01*
X173699500Y-105175001D01*
X173699501Y-105175019D01*
X173710000Y-105277796D01*
X173710001Y-105277799D01*
X173765185Y-105444331D01*
X173765187Y-105444336D01*
X173793728Y-105490608D01*
X173857288Y-105593656D01*
X173981344Y-105717712D01*
X174130666Y-105809814D01*
X174164500Y-105821025D01*
X174221947Y-105860796D01*
X174248772Y-105925311D01*
X174249500Y-105938732D01*
X174249500Y-106711267D01*
X174229815Y-106778306D01*
X174177011Y-106824061D01*
X174164506Y-106828972D01*
X174130671Y-106840184D01*
X174130663Y-106840187D01*
X173981342Y-106932289D01*
X173857289Y-107056342D01*
X173765187Y-107205663D01*
X173765186Y-107205666D01*
X173710001Y-107372203D01*
X173710001Y-107372204D01*
X173710000Y-107372204D01*
X173699500Y-107474983D01*
X173699500Y-108175001D01*
X173699501Y-108175019D01*
X173710000Y-108277796D01*
X173710001Y-108277799D01*
X173765185Y-108444331D01*
X173765187Y-108444336D01*
X173793729Y-108490610D01*
X173857288Y-108593656D01*
X173981344Y-108717712D01*
X174130666Y-108809814D01*
X174200016Y-108832794D01*
X174257461Y-108872567D01*
X174284284Y-108937083D01*
X174271969Y-109005858D01*
X174224426Y-109057058D01*
X174161012Y-109074500D01*
X173920808Y-109074500D01*
X173853769Y-109054815D01*
X173833127Y-109038181D01*
X173036818Y-108241872D01*
X173003333Y-108180549D01*
X173000499Y-108154200D01*
X173000499Y-107474992D01*
X172989999Y-107372203D01*
X172934814Y-107205666D01*
X172842712Y-107056344D01*
X172718656Y-106932288D01*
X172572844Y-106842351D01*
X172569336Y-106840187D01*
X172569331Y-106840185D01*
X172535492Y-106828972D01*
X172402797Y-106785001D01*
X172402795Y-106785000D01*
X172300010Y-106774500D01*
X171599998Y-106774500D01*
X171599980Y-106774501D01*
X171497203Y-106785000D01*
X171497200Y-106785001D01*
X171330668Y-106840185D01*
X171330663Y-106840187D01*
X171181342Y-106932289D01*
X171112181Y-107001451D01*
X171050858Y-107034936D01*
X170981166Y-107029952D01*
X170925233Y-106988080D01*
X170900816Y-106922616D01*
X170900500Y-106913770D01*
X170900500Y-106595807D01*
X170920185Y-106528768D01*
X170936815Y-106508130D01*
X171533128Y-105911816D01*
X171594449Y-105878333D01*
X171620797Y-105875499D01*
X172300008Y-105875499D01*
X172300016Y-105875498D01*
X172300019Y-105875498D01*
X172356302Y-105869748D01*
X172402797Y-105864999D01*
X172569334Y-105809814D01*
X172718656Y-105717712D01*
X172842712Y-105593656D01*
X172934814Y-105444334D01*
X172989999Y-105277797D01*
X173000500Y-105175009D01*
X173000499Y-104474992D01*
X172989999Y-104372203D01*
X172934814Y-104205666D01*
X172842712Y-104056344D01*
X172718656Y-103932288D01*
X172569334Y-103840186D01*
X172402797Y-103785001D01*
X172402795Y-103785000D01*
X172300010Y-103774500D01*
X171599998Y-103774500D01*
X171599980Y-103774501D01*
X171497203Y-103785000D01*
X171497200Y-103785001D01*
X171330668Y-103840185D01*
X171330663Y-103840187D01*
X171181342Y-103932289D01*
X171057289Y-104056342D01*
X170965187Y-104205663D01*
X170965185Y-104205668D01*
X170950728Y-104249298D01*
X170910001Y-104372203D01*
X170910001Y-104372204D01*
X170910000Y-104372204D01*
X170899500Y-104474983D01*
X170899500Y-104654191D01*
X170879815Y-104721230D01*
X170863181Y-104741872D01*
X169962181Y-105642872D01*
X169900858Y-105676357D01*
X169831166Y-105671373D01*
X169775233Y-105629501D01*
X169750816Y-105564037D01*
X169750500Y-105555191D01*
X169750500Y-105417005D01*
X169756794Y-105378001D01*
X169789999Y-105277797D01*
X169800500Y-105175009D01*
X169800499Y-104474992D01*
X169789999Y-104372203D01*
X169783349Y-104352135D01*
X169756794Y-104271996D01*
X169750500Y-104232992D01*
X169750500Y-102417005D01*
X169756794Y-102378001D01*
X169789999Y-102277797D01*
X169800500Y-102175009D01*
X169800499Y-101474992D01*
X169789999Y-101372203D01*
X169789428Y-101370481D01*
X169756794Y-101271996D01*
X169750500Y-101232992D01*
X169750500Y-100587289D01*
X169770185Y-100520250D01*
X169808529Y-100482295D01*
X169852262Y-100454816D01*
X169979816Y-100327262D01*
X170075789Y-100174522D01*
X170135368Y-100004255D01*
X170140795Y-99956092D01*
X170155565Y-99825003D01*
X170155565Y-99818619D01*
X170155500Y-99817460D01*
X170155500Y-98632547D01*
X170155564Y-98631407D01*
X170155565Y-98624790D01*
X170155205Y-98620882D01*
X170152662Y-98585330D01*
X170150355Y-98553060D01*
X170148693Y-98547402D01*
X170144450Y-98526358D01*
X170135368Y-98445745D01*
X170135367Y-98445741D01*
X170135366Y-98445737D01*
X170104649Y-98357953D01*
X170101087Y-98288174D01*
X170135815Y-98227547D01*
X170197809Y-98195319D01*
X170267384Y-98201724D01*
X170309371Y-98229317D01*
X171313181Y-99233127D01*
X171346666Y-99294450D01*
X171349500Y-99320808D01*
X171349500Y-100759362D01*
X171329815Y-100826401D01*
X171290598Y-100864899D01*
X171222288Y-100907033D01*
X171181342Y-100932289D01*
X171057289Y-101056342D01*
X170965187Y-101205663D01*
X170965185Y-101205668D01*
X170949500Y-101253003D01*
X170910001Y-101372203D01*
X170910001Y-101372204D01*
X170910000Y-101372204D01*
X170899500Y-101474983D01*
X170899500Y-102175001D01*
X170899501Y-102175019D01*
X170910000Y-102277796D01*
X170910001Y-102277799D01*
X170965185Y-102444331D01*
X170965187Y-102444336D01*
X170993728Y-102490608D01*
X171057288Y-102593656D01*
X171181344Y-102717712D01*
X171330666Y-102809814D01*
X171497203Y-102864999D01*
X171599991Y-102875500D01*
X172300008Y-102875499D01*
X172300016Y-102875498D01*
X172300019Y-102875498D01*
X172356302Y-102869748D01*
X172402797Y-102864999D01*
X172569334Y-102809814D01*
X172718656Y-102717712D01*
X172842712Y-102593656D01*
X172934814Y-102444334D01*
X172989999Y-102277797D01*
X173000500Y-102175009D01*
X173000499Y-101474992D01*
X172989999Y-101372203D01*
X172934814Y-101205666D01*
X172842712Y-101056344D01*
X172718656Y-100932288D01*
X172718655Y-100932287D01*
X172709402Y-100926580D01*
X172662678Y-100874632D01*
X172650500Y-100821042D01*
X172650500Y-98935928D01*
X172625502Y-98810261D01*
X172625501Y-98810260D01*
X172625501Y-98810256D01*
X172576465Y-98691873D01*
X172531782Y-98625000D01*
X172505276Y-98585330D01*
X171739381Y-97819435D01*
X170914674Y-96994727D01*
X170914673Y-96994726D01*
X170914669Y-96994723D01*
X170808127Y-96923535D01*
X170689744Y-96874499D01*
X170689738Y-96874497D01*
X170564071Y-96849500D01*
X170564069Y-96849500D01*
X168685931Y-96849500D01*
X168685929Y-96849500D01*
X168560261Y-96874497D01*
X168560255Y-96874499D01*
X168441874Y-96923534D01*
X168335326Y-96994726D01*
X166994724Y-98335328D01*
X166940238Y-98416874D01*
X166923540Y-98441864D01*
X166923533Y-98441877D01*
X166874499Y-98560255D01*
X166874497Y-98560261D01*
X166849500Y-98685928D01*
X166849500Y-100790818D01*
X166829815Y-100857857D01*
X166777011Y-100903612D01*
X166707853Y-100913556D01*
X166660404Y-100896357D01*
X166569340Y-100840190D01*
X166569334Y-100840186D01*
X166402797Y-100785001D01*
X166402795Y-100785000D01*
X166300010Y-100774500D01*
X165599998Y-100774500D01*
X165599980Y-100774501D01*
X165497203Y-100785000D01*
X165497200Y-100785001D01*
X165330668Y-100840185D01*
X165330663Y-100840187D01*
X165181342Y-100932289D01*
X165057289Y-101056342D01*
X164965185Y-101205668D01*
X164962133Y-101212213D01*
X164959555Y-101211011D01*
X164927142Y-101257773D01*
X164918153Y-101264383D01*
X164835327Y-101319725D01*
X164835324Y-101319728D01*
X152741873Y-113413181D01*
X152680550Y-113446666D01*
X152654192Y-113449500D01*
X147564141Y-113449500D01*
X147497102Y-113429815D01*
X147451347Y-113377011D01*
X147447969Y-113368859D01*
X147443796Y-113357669D01*
X147443793Y-113357665D01*
X147443793Y-113357664D01*
X147357547Y-113242455D01*
X147357544Y-113242452D01*
X147242335Y-113156206D01*
X147242328Y-113156202D01*
X147107482Y-113105908D01*
X147107483Y-113105908D01*
X147047883Y-113099501D01*
X147047881Y-113099500D01*
X147047873Y-113099500D01*
X147047864Y-113099500D01*
X145252129Y-113099500D01*
X145252123Y-113099501D01*
X145192516Y-113105908D01*
X145057671Y-113156202D01*
X145057664Y-113156206D01*
X144942455Y-113242452D01*
X144942452Y-113242455D01*
X144856206Y-113357664D01*
X144856204Y-113357668D01*
X144856204Y-113357669D01*
X144852039Y-113368834D01*
X144810171Y-113424766D01*
X144744707Y-113449184D01*
X144735859Y-113449500D01*
X141264141Y-113449500D01*
X141197102Y-113429815D01*
X141151347Y-113377011D01*
X141147969Y-113368859D01*
X141143796Y-113357669D01*
X141143793Y-113357665D01*
X141143793Y-113357664D01*
X141057547Y-113242455D01*
X141057544Y-113242452D01*
X140942335Y-113156206D01*
X140942328Y-113156202D01*
X140807482Y-113105908D01*
X140807483Y-113105908D01*
X140747883Y-113099501D01*
X140747881Y-113099500D01*
X140747873Y-113099500D01*
X140747864Y-113099500D01*
X138952129Y-113099500D01*
X138952123Y-113099501D01*
X138892516Y-113105908D01*
X138757671Y-113156202D01*
X138757664Y-113156206D01*
X138642455Y-113242452D01*
X138642452Y-113242455D01*
X138556206Y-113357664D01*
X138556202Y-113357671D01*
X138505908Y-113492517D01*
X138499501Y-113552116D01*
X138499501Y-113552123D01*
X138499500Y-113552135D01*
X130500500Y-113552135D01*
X130500500Y-104352135D01*
X145879500Y-104352135D01*
X145879500Y-105447870D01*
X145879501Y-105447876D01*
X145885908Y-105507483D01*
X145936202Y-105642328D01*
X145936206Y-105642335D01*
X146022452Y-105757544D01*
X146022455Y-105757547D01*
X146137664Y-105843793D01*
X146137671Y-105843797D01*
X146272517Y-105894091D01*
X146272516Y-105894091D01*
X146279444Y-105894835D01*
X146332127Y-105900500D01*
X148127872Y-105900499D01*
X148187483Y-105894091D01*
X148322331Y-105843796D01*
X148437546Y-105757546D01*
X148523796Y-105642331D01*
X148527960Y-105631165D01*
X148569829Y-105575234D01*
X148635293Y-105550816D01*
X148644141Y-105550500D01*
X149658089Y-105550500D01*
X149725128Y-105570185D01*
X149730976Y-105574182D01*
X149822407Y-105640612D01*
X149985733Y-105713329D01*
X150160609Y-105750500D01*
X150160610Y-105750500D01*
X150339389Y-105750500D01*
X150339391Y-105750500D01*
X150514267Y-105713329D01*
X150677593Y-105640612D01*
X150769025Y-105574182D01*
X150834831Y-105550702D01*
X150841911Y-105550500D01*
X152115859Y-105550500D01*
X152182898Y-105570185D01*
X152228653Y-105622989D01*
X152232030Y-105631140D01*
X152236204Y-105642331D01*
X152236205Y-105642332D01*
X152236206Y-105642335D01*
X152322452Y-105757544D01*
X152322455Y-105757547D01*
X152437664Y-105843793D01*
X152437671Y-105843797D01*
X152572517Y-105894091D01*
X152572516Y-105894091D01*
X152579444Y-105894835D01*
X152632127Y-105900500D01*
X154427872Y-105900499D01*
X154487483Y-105894091D01*
X154622331Y-105843796D01*
X154737546Y-105757546D01*
X154764580Y-105721433D01*
X154780485Y-105700188D01*
X154836419Y-105658318D01*
X154879751Y-105650500D01*
X157364355Y-105650500D01*
X157431394Y-105670185D01*
X157465928Y-105703374D01*
X157538402Y-105806877D01*
X157693123Y-105961598D01*
X157872361Y-106087102D01*
X158070670Y-106179575D01*
X158282023Y-106236207D01*
X158464926Y-106252208D01*
X158499998Y-106255277D01*
X158500000Y-106255277D01*
X158500002Y-106255277D01*
X158528254Y-106252805D01*
X158717977Y-106236207D01*
X158929330Y-106179575D01*
X159127639Y-106087102D01*
X159306877Y-105961598D01*
X159461598Y-105806877D01*
X159587102Y-105627639D01*
X159679575Y-105429330D01*
X159736207Y-105217977D01*
X159755277Y-105000000D01*
X159736207Y-104782023D01*
X159679575Y-104570670D01*
X159587102Y-104372362D01*
X159587100Y-104372359D01*
X159587099Y-104372357D01*
X159461599Y-104193124D01*
X159392177Y-104123702D01*
X159306877Y-104038402D01*
X159127639Y-103912898D01*
X159127640Y-103912898D01*
X159127638Y-103912897D01*
X159028484Y-103866661D01*
X158929330Y-103820425D01*
X158929326Y-103820424D01*
X158929322Y-103820422D01*
X158717977Y-103763793D01*
X158500002Y-103744723D01*
X158499998Y-103744723D01*
X158354682Y-103757436D01*
X158282023Y-103763793D01*
X158282020Y-103763793D01*
X158070677Y-103820422D01*
X158070668Y-103820426D01*
X157872361Y-103912898D01*
X157872357Y-103912900D01*
X157693121Y-104038402D01*
X157538403Y-104193120D01*
X157465931Y-104296623D01*
X157411355Y-104340248D01*
X157364356Y-104349500D01*
X154981440Y-104349500D01*
X154914401Y-104329815D01*
X154868646Y-104277011D01*
X154865258Y-104268833D01*
X154823797Y-104157671D01*
X154823793Y-104157664D01*
X154737547Y-104042455D01*
X154737544Y-104042452D01*
X154622335Y-103956206D01*
X154622328Y-103956202D01*
X154487482Y-103905908D01*
X154487483Y-103905908D01*
X154427883Y-103899501D01*
X154427881Y-103899500D01*
X154427873Y-103899500D01*
X154427864Y-103899500D01*
X152632129Y-103899500D01*
X152632123Y-103899501D01*
X152572516Y-103905908D01*
X152437671Y-103956202D01*
X152437664Y-103956206D01*
X152322455Y-104042452D01*
X152322452Y-104042455D01*
X152236206Y-104157664D01*
X152236204Y-104157668D01*
X152236204Y-104157669D01*
X152232039Y-104168834D01*
X152190171Y-104224766D01*
X152124707Y-104249184D01*
X152115859Y-104249500D01*
X150841911Y-104249500D01*
X150774872Y-104229815D01*
X150769025Y-104225818D01*
X150724025Y-104193123D01*
X150677593Y-104159388D01*
X150514267Y-104086671D01*
X150514265Y-104086670D01*
X150378303Y-104057771D01*
X150339391Y-104049500D01*
X150160609Y-104049500D01*
X150129954Y-104056015D01*
X149985733Y-104086670D01*
X149985728Y-104086672D01*
X149822408Y-104159388D01*
X149822403Y-104159390D01*
X149730974Y-104225818D01*
X149665168Y-104249298D01*
X149658089Y-104249500D01*
X148644141Y-104249500D01*
X148577102Y-104229815D01*
X148531347Y-104177011D01*
X148527969Y-104168859D01*
X148523796Y-104157669D01*
X148523793Y-104157665D01*
X148523793Y-104157664D01*
X148437547Y-104042455D01*
X148437544Y-104042452D01*
X148322335Y-103956206D01*
X148322328Y-103956202D01*
X148187482Y-103905908D01*
X148187483Y-103905908D01*
X148127883Y-103899501D01*
X148127881Y-103899500D01*
X148127873Y-103899500D01*
X148127864Y-103899500D01*
X146332129Y-103899500D01*
X146332123Y-103899501D01*
X146272516Y-103905908D01*
X146137671Y-103956202D01*
X146137664Y-103956206D01*
X146022455Y-104042452D01*
X146022452Y-104042455D01*
X145936206Y-104157664D01*
X145936202Y-104157671D01*
X145885908Y-104292517D01*
X145879501Y-104352116D01*
X145879500Y-104352135D01*
X130500500Y-104352135D01*
X130500500Y-88952135D01*
X138049500Y-88952135D01*
X138049500Y-90747870D01*
X138049501Y-90747876D01*
X138055908Y-90807483D01*
X138106202Y-90942328D01*
X138106206Y-90942335D01*
X138192452Y-91057544D01*
X138192455Y-91057547D01*
X138307664Y-91143793D01*
X138307671Y-91143797D01*
X138352618Y-91160561D01*
X138442517Y-91194091D01*
X138502127Y-91200500D01*
X138946348Y-91200499D01*
X139013387Y-91220183D01*
X139034029Y-91236818D01*
X142957834Y-95160624D01*
X142957842Y-95160630D01*
X143097127Y-95253697D01*
X143097130Y-95253698D01*
X143097138Y-95253704D01*
X143187806Y-95291259D01*
X143251918Y-95317816D01*
X143416228Y-95350499D01*
X143416232Y-95350500D01*
X143416233Y-95350500D01*
X161163768Y-95350500D01*
X161163769Y-95350499D01*
X161218538Y-95339605D01*
X161328074Y-95317818D01*
X161328078Y-95317816D01*
X161328082Y-95317816D01*
X161373415Y-95299037D01*
X161482863Y-95253704D01*
X161622162Y-95160627D01*
X163472661Y-93310125D01*
X163528249Y-93278032D01*
X163543663Y-93273903D01*
X163757830Y-93174035D01*
X163951401Y-93038495D01*
X164118495Y-92871401D01*
X164254035Y-92677830D01*
X164353903Y-92463663D01*
X164415063Y-92235408D01*
X164435659Y-92000000D01*
X164415063Y-91764592D01*
X164380408Y-91635258D01*
X167499500Y-91635258D01*
X167499500Y-91864741D01*
X167517308Y-91999999D01*
X167529452Y-92092238D01*
X167529453Y-92092240D01*
X167588842Y-92313887D01*
X167676650Y-92525876D01*
X167676657Y-92525890D01*
X167739665Y-92635023D01*
X167764379Y-92677830D01*
X167791392Y-92724617D01*
X167931081Y-92906661D01*
X167931089Y-92906670D01*
X168093330Y-93068911D01*
X168093338Y-93068918D01*
X168275382Y-93208607D01*
X168275385Y-93208608D01*
X168275388Y-93208611D01*
X168474112Y-93323344D01*
X168474117Y-93323346D01*
X168474123Y-93323349D01*
X168552127Y-93355659D01*
X168686113Y-93411158D01*
X168907762Y-93470548D01*
X169135266Y-93500500D01*
X169135273Y-93500500D01*
X169364727Y-93500500D01*
X169364734Y-93500500D01*
X169592238Y-93470548D01*
X169813887Y-93411158D01*
X170025888Y-93323344D01*
X170224612Y-93208611D01*
X170406661Y-93068919D01*
X170406665Y-93068914D01*
X170406670Y-93068911D01*
X170568911Y-92906670D01*
X170568914Y-92906665D01*
X170568919Y-92906661D01*
X170708611Y-92724612D01*
X170823344Y-92525888D01*
X170911158Y-92313887D01*
X170970548Y-92092238D01*
X171000500Y-91864734D01*
X171000500Y-91635266D01*
X170970548Y-91407762D01*
X170911158Y-91186113D01*
X170823344Y-90974112D01*
X170708611Y-90775388D01*
X170708608Y-90775385D01*
X170708607Y-90775382D01*
X170568918Y-90593338D01*
X170568911Y-90593330D01*
X170406670Y-90431089D01*
X170406661Y-90431081D01*
X170224617Y-90291392D01*
X170025890Y-90176657D01*
X170025876Y-90176650D01*
X169813887Y-90088842D01*
X169592238Y-90029452D01*
X169554215Y-90024446D01*
X169364741Y-89999500D01*
X169364734Y-89999500D01*
X169135266Y-89999500D01*
X169135258Y-89999500D01*
X168918715Y-90028009D01*
X168907762Y-90029452D01*
X168814076Y-90054554D01*
X168686112Y-90088842D01*
X168474123Y-90176650D01*
X168474109Y-90176657D01*
X168275382Y-90291392D01*
X168093338Y-90431081D01*
X167931081Y-90593338D01*
X167791392Y-90775382D01*
X167676657Y-90974109D01*
X167676650Y-90974123D01*
X167588842Y-91186112D01*
X167529453Y-91407759D01*
X167529451Y-91407770D01*
X167499500Y-91635258D01*
X164380408Y-91635258D01*
X164353903Y-91536337D01*
X164254035Y-91322171D01*
X164248425Y-91314158D01*
X164118494Y-91128597D01*
X163951402Y-90961506D01*
X163951395Y-90961501D01*
X163757834Y-90825967D01*
X163757830Y-90825965D01*
X163718195Y-90807483D01*
X163543663Y-90726097D01*
X163543659Y-90726096D01*
X163543655Y-90726094D01*
X163315413Y-90664938D01*
X163315403Y-90664936D01*
X163080001Y-90644341D01*
X163079999Y-90644341D01*
X162844596Y-90664936D01*
X162844586Y-90664938D01*
X162616344Y-90726094D01*
X162616335Y-90726098D01*
X162402171Y-90825964D01*
X162402169Y-90825965D01*
X162208597Y-90961505D01*
X162041505Y-91128597D01*
X161911575Y-91314158D01*
X161856998Y-91357783D01*
X161787500Y-91364977D01*
X161725145Y-91333454D01*
X161708425Y-91314158D01*
X161578494Y-91128597D01*
X161411402Y-90961506D01*
X161411395Y-90961501D01*
X161217834Y-90825967D01*
X161217830Y-90825965D01*
X161178195Y-90807483D01*
X161003663Y-90726097D01*
X161003659Y-90726096D01*
X161003655Y-90726094D01*
X160775413Y-90664938D01*
X160775403Y-90664936D01*
X160540001Y-90644341D01*
X160539999Y-90644341D01*
X160304596Y-90664936D01*
X160304586Y-90664938D01*
X160076344Y-90726094D01*
X160076335Y-90726098D01*
X159862171Y-90825964D01*
X159862169Y-90825965D01*
X159668597Y-90961505D01*
X159501505Y-91128597D01*
X159371575Y-91314158D01*
X159316998Y-91357783D01*
X159247500Y-91364977D01*
X159185145Y-91333454D01*
X159168425Y-91314158D01*
X159038494Y-91128597D01*
X158871402Y-90961506D01*
X158871395Y-90961501D01*
X158677834Y-90825967D01*
X158677830Y-90825965D01*
X158638195Y-90807483D01*
X158463663Y-90726097D01*
X158463659Y-90726096D01*
X158463655Y-90726094D01*
X158235413Y-90664938D01*
X158235403Y-90664936D01*
X158000001Y-90644341D01*
X157999999Y-90644341D01*
X157764596Y-90664936D01*
X157764586Y-90664938D01*
X157536344Y-90726094D01*
X157536335Y-90726098D01*
X157322171Y-90825964D01*
X157322169Y-90825965D01*
X157128597Y-90961505D01*
X156961505Y-91128597D01*
X156831575Y-91314158D01*
X156776998Y-91357783D01*
X156707500Y-91364977D01*
X156645145Y-91333454D01*
X156628425Y-91314158D01*
X156498494Y-91128597D01*
X156331402Y-90961506D01*
X156331395Y-90961501D01*
X156137834Y-90825967D01*
X156137830Y-90825965D01*
X156098195Y-90807483D01*
X155923663Y-90726097D01*
X155923659Y-90726096D01*
X155923655Y-90726094D01*
X155695413Y-90664938D01*
X155695403Y-90664936D01*
X155460001Y-90644341D01*
X155459999Y-90644341D01*
X155224596Y-90664936D01*
X155224586Y-90664938D01*
X154996344Y-90726094D01*
X154996335Y-90726098D01*
X154782171Y-90825964D01*
X154782169Y-90825965D01*
X154588597Y-90961505D01*
X154421505Y-91128597D01*
X154291575Y-91314158D01*
X154236998Y-91357783D01*
X154167500Y-91364977D01*
X154105145Y-91333454D01*
X154088425Y-91314158D01*
X153958494Y-91128597D01*
X153791402Y-90961506D01*
X153791395Y-90961501D01*
X153597834Y-90825967D01*
X153597830Y-90825965D01*
X153558195Y-90807483D01*
X153383663Y-90726097D01*
X153383659Y-90726096D01*
X153383655Y-90726094D01*
X153155413Y-90664938D01*
X153155403Y-90664936D01*
X152920001Y-90644341D01*
X152919999Y-90644341D01*
X152684596Y-90664936D01*
X152684586Y-90664938D01*
X152456344Y-90726094D01*
X152456335Y-90726098D01*
X152242171Y-90825964D01*
X152242169Y-90825965D01*
X152048597Y-90961505D01*
X151881505Y-91128597D01*
X151751575Y-91314158D01*
X151696998Y-91357783D01*
X151627500Y-91364977D01*
X151565145Y-91333454D01*
X151548425Y-91314158D01*
X151418494Y-91128597D01*
X151251402Y-90961506D01*
X151251395Y-90961501D01*
X151057834Y-90825967D01*
X151057830Y-90825965D01*
X151018195Y-90807483D01*
X150843663Y-90726097D01*
X150843659Y-90726096D01*
X150843655Y-90726094D01*
X150615413Y-90664938D01*
X150615403Y-90664936D01*
X150380001Y-90644341D01*
X150379999Y-90644341D01*
X150144596Y-90664936D01*
X150144586Y-90664938D01*
X149916344Y-90726094D01*
X149916335Y-90726098D01*
X149702171Y-90825964D01*
X149702169Y-90825965D01*
X149508597Y-90961505D01*
X149341505Y-91128597D01*
X149205965Y-91322169D01*
X149205964Y-91322171D01*
X149106098Y-91536335D01*
X149106094Y-91536344D01*
X149044938Y-91764586D01*
X149044936Y-91764596D01*
X149024341Y-91999999D01*
X149024341Y-92000000D01*
X149044936Y-92235403D01*
X149044938Y-92235413D01*
X149106094Y-92463655D01*
X149106096Y-92463659D01*
X149106097Y-92463663D01*
X149135113Y-92525888D01*
X149205965Y-92677830D01*
X149205967Y-92677834D01*
X149314281Y-92832521D01*
X149341505Y-92871401D01*
X149508599Y-93038495D01*
X149552038Y-93068911D01*
X149702165Y-93174032D01*
X149702167Y-93174033D01*
X149702170Y-93174035D01*
X149916337Y-93273903D01*
X149916343Y-93273904D01*
X149916344Y-93273905D01*
X149963843Y-93286632D01*
X150144592Y-93335063D01*
X150332918Y-93351539D01*
X150379999Y-93355659D01*
X150380000Y-93355659D01*
X150380001Y-93355659D01*
X150419234Y-93352226D01*
X150615408Y-93335063D01*
X150843663Y-93273903D01*
X151057830Y-93174035D01*
X151251401Y-93038495D01*
X151418495Y-92871401D01*
X151548425Y-92685842D01*
X151603002Y-92642217D01*
X151672500Y-92635023D01*
X151734855Y-92666546D01*
X151751575Y-92685842D01*
X151881500Y-92871395D01*
X151881505Y-92871401D01*
X152048599Y-93038495D01*
X152092038Y-93068911D01*
X152242165Y-93174032D01*
X152242167Y-93174033D01*
X152242170Y-93174035D01*
X152456337Y-93273903D01*
X152456343Y-93273904D01*
X152456344Y-93273905D01*
X152503843Y-93286632D01*
X152684592Y-93335063D01*
X152872918Y-93351539D01*
X152919999Y-93355659D01*
X152920000Y-93355659D01*
X152920001Y-93355659D01*
X152959234Y-93352226D01*
X153155408Y-93335063D01*
X153383663Y-93273903D01*
X153597830Y-93174035D01*
X153791401Y-93038495D01*
X153958495Y-92871401D01*
X154088425Y-92685842D01*
X154143002Y-92642217D01*
X154212500Y-92635023D01*
X154274855Y-92666546D01*
X154291575Y-92685842D01*
X154421500Y-92871395D01*
X154421505Y-92871401D01*
X154588599Y-93038495D01*
X154632038Y-93068911D01*
X154782165Y-93174032D01*
X154782167Y-93174033D01*
X154782170Y-93174035D01*
X154996337Y-93273903D01*
X154996343Y-93273904D01*
X154996344Y-93273905D01*
X155043843Y-93286632D01*
X155224592Y-93335063D01*
X155412918Y-93351539D01*
X155459999Y-93355659D01*
X155460000Y-93355659D01*
X155460001Y-93355659D01*
X155499234Y-93352226D01*
X155695408Y-93335063D01*
X155923663Y-93273903D01*
X156137830Y-93174035D01*
X156331401Y-93038495D01*
X156498495Y-92871401D01*
X156628425Y-92685842D01*
X156683002Y-92642217D01*
X156752500Y-92635023D01*
X156814855Y-92666546D01*
X156831575Y-92685842D01*
X156961500Y-92871395D01*
X156961505Y-92871401D01*
X157128599Y-93038495D01*
X157172038Y-93068911D01*
X157322165Y-93174032D01*
X157322167Y-93174033D01*
X157322170Y-93174035D01*
X157536337Y-93273903D01*
X157536343Y-93273904D01*
X157536344Y-93273905D01*
X157583843Y-93286632D01*
X157764592Y-93335063D01*
X157952918Y-93351539D01*
X157999999Y-93355659D01*
X158000000Y-93355659D01*
X158000001Y-93355659D01*
X158039234Y-93352226D01*
X158235408Y-93335063D01*
X158463663Y-93273903D01*
X158677830Y-93174035D01*
X158871401Y-93038495D01*
X159038495Y-92871401D01*
X159168425Y-92685842D01*
X159223002Y-92642217D01*
X159292500Y-92635023D01*
X159354855Y-92666546D01*
X159371575Y-92685842D01*
X159501500Y-92871395D01*
X159501505Y-92871401D01*
X159668599Y-93038495D01*
X159712038Y-93068911D01*
X159862165Y-93174032D01*
X159862167Y-93174033D01*
X159862170Y-93174035D01*
X160076337Y-93273903D01*
X160076343Y-93273904D01*
X160076344Y-93273905D01*
X160123843Y-93286632D01*
X160304592Y-93335063D01*
X160492918Y-93351539D01*
X160539999Y-93355659D01*
X160540000Y-93355659D01*
X160540001Y-93355659D01*
X160558618Y-93354030D01*
X160728333Y-93339181D01*
X160796831Y-93352947D01*
X160847014Y-93401562D01*
X160862948Y-93469591D01*
X160839573Y-93535434D01*
X160826822Y-93550388D01*
X160764028Y-93613182D01*
X160702708Y-93646666D01*
X160676349Y-93649500D01*
X147361867Y-93649500D01*
X147294828Y-93629815D01*
X147249073Y-93577011D01*
X147239129Y-93507853D01*
X147268154Y-93444297D01*
X147314414Y-93410939D01*
X147525888Y-93323344D01*
X147724612Y-93208611D01*
X147906661Y-93068919D01*
X147906665Y-93068914D01*
X147906670Y-93068911D01*
X148068911Y-92906670D01*
X148068914Y-92906665D01*
X148068919Y-92906661D01*
X148208611Y-92724612D01*
X148323344Y-92525888D01*
X148411158Y-92313887D01*
X148470548Y-92092238D01*
X148500500Y-91864734D01*
X148500500Y-91635266D01*
X148470548Y-91407762D01*
X148411158Y-91186113D01*
X148323344Y-90974112D01*
X148208611Y-90775388D01*
X148208608Y-90775385D01*
X148208607Y-90775382D01*
X148068918Y-90593338D01*
X148068911Y-90593330D01*
X147906670Y-90431089D01*
X147906661Y-90431081D01*
X147724617Y-90291392D01*
X147525890Y-90176657D01*
X147525876Y-90176650D01*
X147313887Y-90088842D01*
X147092238Y-90029452D01*
X147054215Y-90024446D01*
X146864741Y-89999500D01*
X146864734Y-89999500D01*
X146635266Y-89999500D01*
X146635258Y-89999500D01*
X146418715Y-90028009D01*
X146407762Y-90029452D01*
X146314076Y-90054554D01*
X146186112Y-90088842D01*
X145974123Y-90176650D01*
X145974109Y-90176657D01*
X145775382Y-90291392D01*
X145593338Y-90431081D01*
X145431081Y-90593338D01*
X145291392Y-90775382D01*
X145176657Y-90974109D01*
X145176650Y-90974123D01*
X145088842Y-91186112D01*
X145029453Y-91407759D01*
X145029451Y-91407770D01*
X144999500Y-91635258D01*
X144999500Y-91864741D01*
X145017308Y-91999999D01*
X145029452Y-92092238D01*
X145029453Y-92092240D01*
X145088842Y-92313887D01*
X145176650Y-92525876D01*
X145176657Y-92525890D01*
X145239665Y-92635023D01*
X145264379Y-92677830D01*
X145291392Y-92724617D01*
X145431081Y-92906661D01*
X145431089Y-92906670D01*
X145593330Y-93068911D01*
X145593338Y-93068918D01*
X145775382Y-93208607D01*
X145775385Y-93208608D01*
X145775388Y-93208611D01*
X145974112Y-93323344D01*
X145974117Y-93323346D01*
X145974123Y-93323349D01*
X146052127Y-93355659D01*
X146185585Y-93410939D01*
X146239989Y-93454780D01*
X146262054Y-93521074D01*
X146244775Y-93588773D01*
X146193638Y-93636384D01*
X146138133Y-93649500D01*
X143903651Y-93649500D01*
X143836612Y-93629815D01*
X143815970Y-93613181D01*
X140786818Y-90584029D01*
X140753333Y-90522706D01*
X140750499Y-90496348D01*
X140750499Y-88952129D01*
X140750498Y-88952123D01*
X140750497Y-88952116D01*
X140744091Y-88892517D01*
X140693796Y-88757669D01*
X140693795Y-88757668D01*
X140693793Y-88757664D01*
X140607547Y-88642455D01*
X140607544Y-88642452D01*
X140492335Y-88556206D01*
X140492328Y-88556202D01*
X140357482Y-88505908D01*
X140357483Y-88505908D01*
X140297883Y-88499501D01*
X140297881Y-88499500D01*
X140297873Y-88499500D01*
X140297864Y-88499500D01*
X138502129Y-88499500D01*
X138502123Y-88499501D01*
X138442516Y-88505908D01*
X138307671Y-88556202D01*
X138307664Y-88556206D01*
X138192455Y-88642452D01*
X138192452Y-88642455D01*
X138106206Y-88757664D01*
X138106202Y-88757671D01*
X138055908Y-88892517D01*
X138049501Y-88952116D01*
X138049501Y-88952123D01*
X138049500Y-88952135D01*
X130500500Y-88952135D01*
X130500500Y-82229999D01*
X138044341Y-82229999D01*
X138044341Y-82230000D01*
X138064936Y-82465403D01*
X138064938Y-82465413D01*
X138126094Y-82693655D01*
X138126096Y-82693659D01*
X138126097Y-82693663D01*
X138185207Y-82820425D01*
X138225965Y-82907830D01*
X138225967Y-82907834D01*
X138361501Y-83101395D01*
X138361506Y-83101402D01*
X138528597Y-83268493D01*
X138528603Y-83268498D01*
X138714158Y-83398425D01*
X138757783Y-83453002D01*
X138764977Y-83522500D01*
X138733454Y-83584855D01*
X138714158Y-83601575D01*
X138528597Y-83731505D01*
X138361505Y-83898597D01*
X138225965Y-84092169D01*
X138225964Y-84092171D01*
X138126098Y-84306335D01*
X138126094Y-84306344D01*
X138064938Y-84534586D01*
X138064936Y-84534596D01*
X138044341Y-84769999D01*
X138044341Y-84770000D01*
X138064936Y-85005403D01*
X138064938Y-85005413D01*
X138126094Y-85233655D01*
X138126096Y-85233659D01*
X138126097Y-85233663D01*
X138205434Y-85403802D01*
X138225965Y-85447830D01*
X138225967Y-85447834D01*
X138334281Y-85602521D01*
X138361505Y-85641401D01*
X138528599Y-85808495D01*
X138625384Y-85876265D01*
X138722165Y-85944032D01*
X138722167Y-85944033D01*
X138722170Y-85944035D01*
X138936337Y-86043903D01*
X139164592Y-86105063D01*
X139352918Y-86121539D01*
X139399999Y-86125659D01*
X139400000Y-86125659D01*
X139400001Y-86125659D01*
X139439234Y-86122226D01*
X139635408Y-86105063D01*
X139863663Y-86043903D01*
X140077830Y-85944035D01*
X140271401Y-85808495D01*
X140438495Y-85641401D01*
X140574035Y-85447830D01*
X140673903Y-85233663D01*
X140735063Y-85005408D01*
X140755659Y-84770000D01*
X140735063Y-84534592D01*
X140673903Y-84306337D01*
X140574035Y-84092171D01*
X140509497Y-84000000D01*
X172144815Y-84000000D01*
X172163503Y-84177805D01*
X172163504Y-84177807D01*
X172218747Y-84347829D01*
X172218750Y-84347835D01*
X172308141Y-84502665D01*
X172317648Y-84513223D01*
X172347879Y-84576213D01*
X172349500Y-84596197D01*
X172349500Y-85403802D01*
X172329815Y-85470841D01*
X172317651Y-85486773D01*
X172308140Y-85497336D01*
X172218750Y-85652164D01*
X172218747Y-85652170D01*
X172163504Y-85822192D01*
X172163503Y-85822194D01*
X172144815Y-86000000D01*
X172163503Y-86177805D01*
X172163504Y-86177807D01*
X172218747Y-86347829D01*
X172218750Y-86347835D01*
X172308141Y-86502665D01*
X172349812Y-86548946D01*
X172427764Y-86635521D01*
X172427767Y-86635523D01*
X172427770Y-86635526D01*
X172572407Y-86740612D01*
X172735733Y-86813329D01*
X172910609Y-86850500D01*
X172910610Y-86850500D01*
X173089389Y-86850500D01*
X173089391Y-86850500D01*
X173264267Y-86813329D01*
X173427593Y-86740612D01*
X173572230Y-86635526D01*
X173691859Y-86502665D01*
X173781250Y-86347835D01*
X173836497Y-86177803D01*
X173855185Y-86000000D01*
X173836497Y-85822197D01*
X173781250Y-85652165D01*
X173691859Y-85497335D01*
X173682349Y-85486773D01*
X173652120Y-85423782D01*
X173650500Y-85403802D01*
X173650500Y-84596197D01*
X173670185Y-84529158D01*
X173682352Y-84513223D01*
X173691859Y-84502665D01*
X173781250Y-84347835D01*
X173836497Y-84177803D01*
X173855185Y-84000000D01*
X173836497Y-83822197D01*
X173798257Y-83704508D01*
X173781252Y-83652170D01*
X173781249Y-83652164D01*
X173691859Y-83497335D01*
X173617855Y-83415145D01*
X173572235Y-83364478D01*
X173572232Y-83364476D01*
X173572231Y-83364475D01*
X173572230Y-83364474D01*
X173427593Y-83259388D01*
X173264267Y-83186671D01*
X173264265Y-83186670D01*
X173136594Y-83159533D01*
X173089391Y-83149500D01*
X172910609Y-83149500D01*
X172879954Y-83156015D01*
X172735733Y-83186670D01*
X172735728Y-83186672D01*
X172572408Y-83259387D01*
X172427768Y-83364475D01*
X172308140Y-83497336D01*
X172218750Y-83652164D01*
X172218747Y-83652170D01*
X172163504Y-83822192D01*
X172163503Y-83822194D01*
X172144815Y-84000000D01*
X140509497Y-84000000D01*
X140438494Y-83898597D01*
X140271402Y-83731506D01*
X140271396Y-83731501D01*
X140085842Y-83601575D01*
X140042217Y-83546998D01*
X140035023Y-83477500D01*
X140066546Y-83415145D01*
X140085842Y-83398425D01*
X140134329Y-83364474D01*
X140271401Y-83268495D01*
X140438495Y-83101401D01*
X140574035Y-82907830D01*
X140673903Y-82693663D01*
X140735063Y-82465408D01*
X140755659Y-82230000D01*
X140735063Y-81994592D01*
X140673903Y-81766337D01*
X140574035Y-81552171D01*
X140535640Y-81497336D01*
X140438494Y-81358597D01*
X140271402Y-81191506D01*
X140271395Y-81191501D01*
X140077834Y-81055967D01*
X140077830Y-81055965D01*
X140030874Y-81034069D01*
X139863663Y-80956097D01*
X139863659Y-80956096D01*
X139863655Y-80956094D01*
X139635413Y-80894938D01*
X139635403Y-80894936D01*
X139400001Y-80874341D01*
X139399999Y-80874341D01*
X139164596Y-80894936D01*
X139164586Y-80894938D01*
X138936344Y-80956094D01*
X138936335Y-80956098D01*
X138722171Y-81055964D01*
X138722169Y-81055965D01*
X138528597Y-81191505D01*
X138361505Y-81358597D01*
X138225965Y-81552169D01*
X138225964Y-81552171D01*
X138126098Y-81766335D01*
X138126094Y-81766344D01*
X138064938Y-81994586D01*
X138064936Y-81994596D01*
X138044341Y-82229999D01*
X130500500Y-82229999D01*
X130500500Y-77750000D01*
X137394815Y-77750000D01*
X137413503Y-77927805D01*
X137413504Y-77927807D01*
X137468747Y-78097829D01*
X137468750Y-78097835D01*
X137558141Y-78252665D01*
X137599812Y-78298946D01*
X137677764Y-78385521D01*
X137677767Y-78385523D01*
X137677770Y-78385526D01*
X137822407Y-78490612D01*
X137985733Y-78563329D01*
X138160609Y-78600500D01*
X138160610Y-78600500D01*
X138339389Y-78600500D01*
X138339391Y-78600500D01*
X138514267Y-78563329D01*
X138677593Y-78490612D01*
X138769025Y-78424182D01*
X138834831Y-78400702D01*
X138841911Y-78400500D01*
X140158089Y-78400500D01*
X140225128Y-78420185D01*
X140230976Y-78424182D01*
X140322407Y-78490612D01*
X140485733Y-78563329D01*
X140660609Y-78600500D01*
X140660610Y-78600500D01*
X140839389Y-78600500D01*
X140839391Y-78600500D01*
X141014267Y-78563329D01*
X141177593Y-78490612D01*
X141322230Y-78385526D01*
X141331258Y-78375500D01*
X141356167Y-78347835D01*
X141441859Y-78252665D01*
X141531250Y-78097835D01*
X141586497Y-77927803D01*
X141605185Y-77750000D01*
X141586497Y-77572197D01*
X141531250Y-77402165D01*
X141441859Y-77247335D01*
X141395003Y-77195296D01*
X141322235Y-77114478D01*
X141322232Y-77114476D01*
X141322231Y-77114475D01*
X141322230Y-77114474D01*
X141177593Y-77009388D01*
X141014267Y-76936671D01*
X141014265Y-76936670D01*
X140886594Y-76909533D01*
X140839391Y-76899500D01*
X140660609Y-76899500D01*
X140629954Y-76906015D01*
X140485733Y-76936670D01*
X140485728Y-76936672D01*
X140322408Y-77009388D01*
X140322403Y-77009390D01*
X140230974Y-77075818D01*
X140165168Y-77099298D01*
X140158089Y-77099500D01*
X138841911Y-77099500D01*
X138774872Y-77079815D01*
X138769025Y-77075818D01*
X138690594Y-77018834D01*
X138677593Y-77009388D01*
X138514267Y-76936671D01*
X138514265Y-76936670D01*
X138386594Y-76909533D01*
X138339391Y-76899500D01*
X138160609Y-76899500D01*
X138129954Y-76906015D01*
X137985733Y-76936670D01*
X137985728Y-76936672D01*
X137822408Y-77009387D01*
X137677768Y-77114475D01*
X137558140Y-77247336D01*
X137468750Y-77402164D01*
X137468747Y-77402170D01*
X137413504Y-77572192D01*
X137413503Y-77572194D01*
X137394815Y-77750000D01*
X130500500Y-77750000D01*
X130500500Y-60385258D01*
X131249500Y-60385258D01*
X131249500Y-60614741D01*
X131265387Y-60735408D01*
X131279452Y-60842238D01*
X131311988Y-60963664D01*
X131338842Y-61063887D01*
X131426650Y-61275876D01*
X131426657Y-61275890D01*
X131541392Y-61474617D01*
X131681081Y-61656661D01*
X131681089Y-61656670D01*
X131843330Y-61818911D01*
X131843338Y-61818918D01*
X132025382Y-61958607D01*
X132025385Y-61958608D01*
X132025388Y-61958611D01*
X132224112Y-62073344D01*
X132224117Y-62073346D01*
X132224123Y-62073349D01*
X132283979Y-62098142D01*
X132436113Y-62161158D01*
X132657762Y-62220548D01*
X132885266Y-62250500D01*
X132885273Y-62250500D01*
X133114727Y-62250500D01*
X133114734Y-62250500D01*
X133342238Y-62220548D01*
X133563887Y-62161158D01*
X133775888Y-62073344D01*
X133974612Y-61958611D01*
X134156661Y-61818919D01*
X134156665Y-61818914D01*
X134156670Y-61818911D01*
X134318911Y-61656670D01*
X134318914Y-61656665D01*
X134318919Y-61656661D01*
X134458611Y-61474612D01*
X134573344Y-61275888D01*
X134661158Y-61063887D01*
X134720548Y-60842238D01*
X134750500Y-60614734D01*
X134750500Y-60385266D01*
X134720548Y-60157762D01*
X134661158Y-59936113D01*
X134573344Y-59724112D01*
X134458611Y-59525388D01*
X134458608Y-59525385D01*
X134458607Y-59525382D01*
X134318918Y-59343338D01*
X134318911Y-59343330D01*
X134156670Y-59181089D01*
X134156661Y-59181081D01*
X133974617Y-59041392D01*
X133775890Y-58926657D01*
X133775876Y-58926650D01*
X133563887Y-58838842D01*
X133342238Y-58779452D01*
X133304215Y-58774446D01*
X133114741Y-58749500D01*
X133114734Y-58749500D01*
X132885266Y-58749500D01*
X132885258Y-58749500D01*
X132668715Y-58778009D01*
X132657762Y-58779452D01*
X132564076Y-58804554D01*
X132436112Y-58838842D01*
X132224123Y-58926650D01*
X132224109Y-58926657D01*
X132025382Y-59041392D01*
X131843338Y-59181081D01*
X131681081Y-59343338D01*
X131541392Y-59525382D01*
X131426657Y-59724109D01*
X131426650Y-59724123D01*
X131338842Y-59936112D01*
X131338842Y-59936113D01*
X131285412Y-60135521D01*
X131279453Y-60157759D01*
X131279451Y-60157770D01*
X131249500Y-60385258D01*
X130500500Y-60385258D01*
X130500500Y-59258676D01*
X130520185Y-59191637D01*
X130536819Y-59170995D01*
X136670995Y-53036819D01*
X136732318Y-53003334D01*
X136758676Y-53000500D01*
X147376000Y-53000500D01*
X147443039Y-53020185D01*
G37*
%TD.AperFunction*%
%TD*%
M02*
