%TF.GenerationSoftware,KiCad,Pcbnew,8.0.5*%
%TF.CreationDate,2024-10-11T20:45:06+03:00*%
%TF.ProjectId,dice-roller-pcb,64696365-2d72-46f6-9c6c-65722d706362,rev?*%
%TF.SameCoordinates,Original*%
%TF.FileFunction,Soldermask,Top*%
%TF.FilePolarity,Negative*%
%FSLAX46Y46*%
G04 Gerber Fmt 4.6, Leading zero omitted, Abs format (unit mm)*
G04 Created by KiCad (PCBNEW 8.0.5) date 2024-10-11 20:45:06*
%MOMM*%
%LPD*%
G01*
G04 APERTURE LIST*
G04 Aperture macros list*
%AMRoundRect*
0 Rectangle with rounded corners*
0 $1 Rounding radius*
0 $2 $3 $4 $5 $6 $7 $8 $9 X,Y pos of 4 corners*
0 Add a 4 corners polygon primitive as box body*
4,1,4,$2,$3,$4,$5,$6,$7,$8,$9,$2,$3,0*
0 Add four circle primitives for the rounded corners*
1,1,$1+$1,$2,$3*
1,1,$1+$1,$4,$5*
1,1,$1+$1,$6,$7*
1,1,$1+$1,$8,$9*
0 Add four rect primitives between the rounded corners*
20,1,$1+$1,$2,$3,$4,$5,0*
20,1,$1+$1,$4,$5,$6,$7,0*
20,1,$1+$1,$6,$7,$8,$9,0*
20,1,$1+$1,$8,$9,$2,$3,0*%
G04 Aperture macros list end*
%ADD10R,1.700000X1.000000*%
%ADD11C,1.500000*%
%ADD12C,3.000000*%
%ADD13C,1.700000*%
%ADD14RoundRect,0.250000X-0.300000X-0.300000X0.300000X-0.300000X0.300000X0.300000X-0.300000X0.300000X0*%
%ADD15R,1.600000X1.600000*%
%ADD16O,1.600000X1.600000*%
%ADD17R,1.700000X1.700000*%
%ADD18O,1.700000X1.700000*%
G04 APERTURE END LIST*
D10*
%TO.C,SW_D20*%
X176150000Y-132900000D03*
X169850000Y-132900000D03*
X176150000Y-129100000D03*
X169850000Y-129100000D03*
%TD*%
D11*
%TO.C,TP6*%
X180000000Y-68000000D03*
%TD*%
D10*
%TO.C,SW_D6*%
X161150000Y-117900000D03*
X154850000Y-117900000D03*
X161150000Y-114100000D03*
X154850000Y-114100000D03*
%TD*%
D12*
%TO.C,OLED1*%
X169250000Y-91750000D03*
X169250000Y-65250000D03*
X146750000Y-91750000D03*
X146750000Y-65250000D03*
D13*
X165620000Y-92000000D03*
X163080000Y-92000000D03*
X160540000Y-92000000D03*
X158000000Y-92000000D03*
X155460000Y-92000000D03*
X152920000Y-92000000D03*
X150380000Y-92000000D03*
%TD*%
D10*
%TO.C,SW_D4*%
X146150000Y-117900000D03*
X139850000Y-117900000D03*
X146150000Y-114100000D03*
X139850000Y-114100000D03*
%TD*%
D14*
%TO.C,D8*%
X177950000Y-104825000D03*
X180750000Y-104825000D03*
%TD*%
%TO.C,D6*%
X171950000Y-107825000D03*
X174750000Y-107825000D03*
%TD*%
D11*
%TO.C,TP1*%
X180000000Y-84000000D03*
%TD*%
D14*
%TO.C,D7*%
X177950000Y-101825000D03*
X180750000Y-101825000D03*
%TD*%
%TO.C,D2*%
X165950000Y-104825000D03*
X168750000Y-104825000D03*
%TD*%
%TO.C,D9*%
X177950000Y-107825000D03*
X180750000Y-107825000D03*
%TD*%
D12*
%TO.C,REF\u002A\u002A*%
X133000000Y-139000000D03*
%TD*%
D10*
%TO.C,SW_D12*%
X161150000Y-132900000D03*
X154850000Y-132900000D03*
X161150000Y-129100000D03*
X154850000Y-129100000D03*
%TD*%
D12*
%TO.C,REF\u002A\u002A*%
X133000000Y-60500000D03*
%TD*%
D11*
%TO.C,TP8*%
X158500000Y-105000000D03*
%TD*%
D10*
%TO.C,SW_D10*%
X146150000Y-132900000D03*
X139850000Y-132900000D03*
X146150000Y-129100000D03*
X139850000Y-129100000D03*
%TD*%
D15*
%TO.C,D10*%
X1075000Y-1275000D03*
D16*
X8695000Y-1275000D03*
%TD*%
D12*
%TO.C,REF\u002A\u002A*%
X183000000Y-139000000D03*
%TD*%
D10*
%TO.C,SW_MODE1*%
X147230000Y-101100000D03*
X153530000Y-101100000D03*
X147230000Y-104900000D03*
X153530000Y-104900000D03*
%TD*%
%TO.C,SW_D8*%
X176270000Y-117900000D03*
X169970000Y-117900000D03*
X176270000Y-114100000D03*
X169970000Y-114100000D03*
%TD*%
D14*
%TO.C,D3*%
X165950000Y-107825000D03*
X168750000Y-107825000D03*
%TD*%
D11*
%TO.C,TP4*%
X180000000Y-88000000D03*
%TD*%
D14*
%TO.C,D1*%
X165950000Y-101825000D03*
X168750000Y-101825000D03*
%TD*%
D12*
%TO.C,REF\u002A\u002A*%
X183000000Y-60500000D03*
%TD*%
D11*
%TO.C,TP2*%
X180000000Y-80000000D03*
%TD*%
D14*
%TO.C,D4*%
X171950000Y-101825000D03*
X174750000Y-101825000D03*
%TD*%
%TO.C,D5*%
X171950000Y-104825000D03*
X174750000Y-104825000D03*
%TD*%
D11*
%TO.C,TP3*%
X180000000Y-76000000D03*
%TD*%
%TO.C,TP5*%
X180000000Y-72000000D03*
%TD*%
D17*
%TO.C,J1*%
X139400000Y-89850000D03*
D18*
X139400000Y-87310000D03*
X139400000Y-84770000D03*
X139400000Y-82230000D03*
%TD*%
D17*
%TO.C,J2*%
X140540000Y-138625000D03*
D18*
X138000000Y-138625000D03*
%TD*%
D13*
%TO.C,SW_POWER1*%
X175540000Y-55420000D03*
X170460000Y-55420000D03*
X173000000Y-60500000D03*
X170460000Y-60500000D03*
X175540000Y-60500000D03*
%TD*%
M02*
